<svg width="170" height="83" viewBox="0 0 170 83" fill="none" xmlns="http://www.w3.org/2000/svg">
<g clip-path="url(#clip0_2323_8124)">
<path d="M80.3789 48.0854C84.1404 48.0854 87.3735 49.9034 89.2266 52.4438L74.0072 64.8919C74.0388 64.9236 74.0545 64.9554 74.0545 64.9871L74.1965 65.2253C74.1965 65.2253 74.2438 65.2729 74.2438 65.3206C76.8145 69.0597 80.4735 70.973 83.5647 70.973C87.129 70.973 89.2266 68.4326 89.5578 64.9871L90.5593 65.3682C89.6525 69.5837 85.7096 72.9338 80.3789 72.9338C73.818 72.9338 69.4414 67.9562 69.4414 60.4858C69.4414 53.0154 73.818 48.0854 80.3789 48.0854ZM85.7096 54.4603C84.093 52.547 80.0477 50.2448 76.7672 50.2448C75.5765 50.2448 74.4331 50.5306 73.5814 51.3007C70.3956 54.1269 70.4429 59.0092 73.5814 64.2806L85.7096 54.4603Z" fill="#535B63" stroke="#535B63" stroke-width="0.5" stroke-miterlimit="10"/>
<path d="M102.546 48.0854C106.307 48.0854 109.54 49.9034 111.394 52.4438L96.1742 64.8919C96.2058 64.9236 96.2215 64.9554 96.2215 64.9871L96.3635 65.2253C96.3635 65.2253 96.4108 65.2729 96.4108 65.3206C98.9815 69.0597 102.641 70.973 105.732 70.973C109.296 70.973 111.394 68.4326 111.725 64.9871L112.726 65.3682C111.819 69.5837 107.877 72.9338 102.546 72.9338C95.985 72.9338 91.6084 67.9562 91.6084 60.4858C91.6084 53.0154 95.985 48.0854 102.546 48.0854ZM107.877 54.4603C106.26 52.547 102.215 50.2448 98.9342 50.2448C97.7435 50.2448 96.6 50.5306 95.7484 51.3007C92.5626 54.1269 92.6099 59.0092 95.7484 64.2806L107.877 54.4603Z" fill="#535B63" stroke="#535B63" stroke-width="0.5" stroke-miterlimit="10"/>
<path d="M119.571 72.2269H121.661V72.8937H113.672V72.2269H115.762V39.662H113.672V38.9951H119.571V72.2269Z" fill="#535B63" stroke="#535B63" stroke-width="0.5" stroke-miterlimit="10"/>
<path d="M133.56 48.0854C140.026 48.0854 144.979 53.1583 144.979 60.4858C144.979 67.8133 140.034 72.9338 133.56 72.9338C127.086 72.9338 122.142 67.861 122.142 60.4858C122.142 53.1107 127.086 48.0854 133.56 48.0854ZM127.133 65.519C129.751 69.155 133.41 70.9333 136.549 70.9333C138.165 70.9333 139.593 70.5046 140.689 69.5916C143.922 66.9559 144.498 61.9307 140.641 56.4212C137.881 52.4915 133.552 50.1019 130.083 50.1019C128.75 50.1019 127.512 50.483 126.613 51.253C123.19 54.1745 123.427 60.3509 127.133 65.519Z" fill="#535B63" stroke="#535B63" stroke-width="0.5" stroke-miterlimit="10"/>
<path d="M157.627 48.0852C160.151 48.0852 162.382 48.7521 164.094 49.9508C165.758 49.3316 167.138 46.7436 167.469 45.3066C168.226 45.5448 169.85 46.0211 169.803 46.2196C169.141 48.8553 167.138 49.8556 164.811 50.4827C166.948 52.3007 168.186 55.0793 168.186 58.4295C168.186 64.6535 163.999 68.8213 157.627 68.8213C155.104 68.8213 152.967 68.1545 151.256 66.9557C147.975 70.8854 153.543 70.6949 157.722 70.6949C165.521 70.6949 168.234 70.2662 168.234 75.3391C168.234 78.8321 167.477 82.8095 157.675 82.8095C152.013 82.8095 148.638 81.8012 148.638 78.6416C148.638 76.8236 149.545 75.1485 151.398 74.1879C150.396 73.9498 149.639 73.5211 149.261 72.8939C147.739 70.2582 150.12 67.5273 150.877 66.6699C148.543 64.8519 147.218 61.9781 147.218 58.4295C147.218 52.2531 151.406 48.0852 157.635 48.0852H157.627ZM152.249 61.9305C154.867 65.2806 158.526 67.051 161.334 67.051C162.43 67.051 163.423 66.7652 164.188 66.2333C166.948 64.1771 166.57 59.7711 162.95 55.1269C160.285 51.7291 156.626 49.9111 153.819 49.9111C152.722 49.9111 151.776 50.1493 151.011 50.7288C148.251 52.785 148.582 57.2386 152.249 61.9305ZM157.675 78.9274C160.624 78.9274 167.713 79.0227 167.713 75.3867C167.713 74.5214 166.286 74.2832 164.291 74.2832C161.862 74.2832 158.534 74.6166 155.585 74.6166C154.158 74.6166 152.825 74.5214 151.729 74.2832C148.023 78.5463 152.967 78.9274 157.675 78.9274Z" fill="#535B63" stroke="#535B63" stroke-width="0.5" stroke-miterlimit="10"/>
<path d="M93.2325 26.7061L90.4173 36.2009H88.9664C89.1004 35.7801 89.1872 35.4626 89.2424 35.2561C89.5262 34.3114 89.6761 33.5255 89.6761 32.8904C89.6761 32.0012 89.2976 31.4296 88.5405 31.1994C87.7835 30.9613 85.9698 30.8422 83.0994 30.8422H77.0747L76.5306 32.5331C74.3147 39.678 71.8544 45.6321 69.1575 50.4113C66.4606 55.1904 63.0776 59.5488 59.0086 63.4865C54.8607 67.5591 50.1529 70.7346 44.8853 73.0209C39.6176 75.3073 34.3894 76.4505 29.2006 76.4505C23.3336 76.4505 18.0502 75.1882 13.3582 72.6716C9.15516 70.4408 5.88259 67.2891 3.54053 63.2165C1.19059 59.1439 0.015625 54.6188 0.015625 49.6253C0.015625 43.0362 2.08956 37.7569 6.23744 33.7954C10.3853 29.834 15.8974 27.8493 22.7895 27.8493C30.5096 27.8493 38.7502 31.4296 47.5112 38.5984C50.4289 40.9879 54.4743 44.8462 59.6394 50.1811L60.8538 51.4036C62.155 49.1728 62.8095 46.823 62.8095 44.354C62.8095 40.5196 61.1535 37.344 57.8415 34.8195C54.5295 32.295 50.1766 30.8978 44.7749 30.604C45.4294 29.4767 45.9341 28.2144 46.3047 26.8252L74.0387 26.7061C74.2438 26.0233 74.4015 25.5153 74.5119 25.1659C75.6632 21.1727 76.6016 18.3068 77.3271 16.5603C78.0604 14.8138 78.9988 13.2022 80.1423 11.7335C82.2793 8.94701 85.2128 6.31133 88.9427 3.81856C92.7515 1.27021 95.9846 0 98.6421 0C99.1626 0 99.825 0.0793879 100.637 0.238164C100.298 2.2308 99.5253 5.27929 98.3267 9.37571L98.0507 10.3601H96.5997C97.0729 8.67709 97.3016 7.50215 97.3016 6.81942C97.3016 5.13639 96.4026 4.29488 94.6046 4.29488C91.8131 4.29488 89.1004 5.3428 86.4666 7.44658C85.0866 8.57389 83.9984 9.9473 83.2177 11.5589C82.437 13.1704 81.3803 16.211 80.0476 20.6726L78.5572 25.7534L78.2812 26.6981H93.2246L93.2325 26.7061ZM72.9268 30.8422L55.05 30.7231C57.8178 31.9854 60.0574 33.8272 61.7765 36.2564C63.4955 38.6857 64.3551 41.2261 64.3551 43.8777C64.3551 47.9979 62.8331 52.5706 59.7814 57.58C52.3767 48.76 45.177 41.9962 38.1824 37.2964C31.1957 32.5967 24.8398 30.2468 19.1306 30.2468C14.1783 30.2468 10.0778 31.8583 6.82887 35.0894C3.57996 38.3205 1.95551 42.4011 1.95551 47.339C1.95551 54.8491 4.84168 61.0254 10.6219 65.8681C16.4021 70.7108 23.7595 73.1321 32.7098 73.1321C42.6457 73.1321 51.0677 69.512 57.9598 62.2639C64.8598 55.0158 69.8435 44.5366 72.9268 30.8342V30.8422Z" fill="#535B63"/>
</g>
<defs>
<clipPath id="clip0_2323_8124">
<rect width="170" height="83" fill="white"/>
</clipPath>
</defs>
</svg>
