<svg width="71" height="33" viewBox="0 0 62 30" fill="none" xmlns="http://www.w3.org/2000/svg">
<g clip-path="url(#clip0_2313_7837)">
<path d="M29.3146 17.3799C30.6865 17.3799 31.8656 18.037 32.5415 18.9552L26.9909 23.4545C27.0024 23.466 27.0081 23.4774 27.0081 23.4889L27.0599 23.575C27.0599 23.575 27.0771 23.5922 27.0771 23.6094C28.0147 24.9609 29.3492 25.6525 30.4765 25.6525C31.7765 25.6525 32.5415 24.7343 32.6623 23.4889L33.0275 23.6267C32.6968 25.1503 31.2588 26.3612 29.3146 26.3612C26.9218 26.3612 25.3257 24.5621 25.3257 21.8619C25.3257 19.1618 26.9218 17.3799 29.3146 17.3799ZM31.2588 19.684C30.6692 18.9925 29.1939 18.1604 27.9975 18.1604C27.5632 18.1604 27.1462 18.2637 26.8356 18.542C25.6737 19.5635 25.6909 21.3282 26.8356 23.2335L31.2588 19.684Z" fill="black" stroke="black" stroke-width="0.5" stroke-miterlimit="10"/>
<path d="M37.3991 17.3799C38.7709 17.3799 39.9501 18.037 40.6259 18.9552L35.0753 23.4545C35.0868 23.466 35.0926 23.4774 35.0926 23.4889L35.1444 23.575C35.1444 23.575 35.1616 23.5922 35.1616 23.6094C36.0992 24.9609 37.4336 25.6525 38.561 25.6525C39.8609 25.6525 40.6259 24.7343 40.7467 23.4889L41.112 23.6267C40.7812 25.1503 39.3433 26.3612 37.3991 26.3612C35.0063 26.3612 33.4102 24.5621 33.4102 21.8619C33.4102 19.1618 35.0063 17.3799 37.3991 17.3799ZM39.3433 19.684C38.7537 18.9925 37.2783 18.1604 36.0819 18.1604C35.6477 18.1604 35.2306 18.2637 34.92 18.542C33.7581 19.5635 33.7754 21.3282 34.92 23.2335L39.3433 19.684Z" fill="black" stroke="black" stroke-width="0.5" stroke-miterlimit="10"/>
<path d="M43.6083 26.1062H44.3704V26.3472H41.457V26.1062H42.2192V14.3358H41.457V14.0947H43.6083V26.1062Z" fill="black" stroke="black" stroke-width="0.5" stroke-miterlimit="10"/>
<path d="M48.7103 17.3799C51.0686 17.3799 52.8747 19.2135 52.8747 21.8619C52.8747 24.5104 51.0715 26.3612 48.7103 26.3612C46.3491 26.3612 44.5459 24.5277 44.5459 21.8619C44.5459 19.1962 46.3491 17.3799 48.7103 17.3799ZM46.3664 23.6812C47.3212 24.9954 48.6557 25.6381 49.8003 25.6381C50.3899 25.6381 50.9104 25.4832 51.3102 25.1532C52.4893 24.2005 52.6993 22.3842 51.2929 20.3928C50.2863 18.9724 48.7074 18.1087 47.442 18.1087C46.956 18.1087 46.5044 18.2465 46.1766 18.5248C44.9284 19.5807 45.0147 21.8132 46.3664 23.6812Z" fill="black" stroke="black" stroke-width="0.5" stroke-miterlimit="10"/>
<path d="M57.4877 17.3803C58.408 17.3803 59.2219 17.6213 59.846 18.0546C60.4528 17.8308 60.9561 16.8953 61.0769 16.376C61.353 16.4621 61.9454 16.6342 61.9282 16.706C61.6866 17.6586 60.9561 18.0202 60.1077 18.2469C60.8871 18.904 61.3386 19.9083 61.3386 21.1192C61.3386 23.3688 59.8115 24.8753 57.4877 24.8753C56.5674 24.8753 55.788 24.6342 55.1639 24.2009C53.9675 25.6213 55.9979 25.5524 57.5222 25.5524C60.3665 25.5524 61.3558 25.3975 61.3558 27.2311C61.3558 28.4936 61.0798 29.9312 57.5049 29.9312C55.44 29.9312 54.2091 29.5668 54.2091 28.4248C54.2091 27.7677 54.5398 27.1622 55.2157 26.815C54.8504 26.7289 54.5743 26.574 54.4363 26.3473C53.8812 25.3946 54.7498 24.4075 55.0259 24.0976C54.1746 23.4405 53.6914 22.4018 53.6914 21.1192C53.6914 18.8867 55.2185 17.3803 57.4906 17.3803H57.4877ZM55.5263 22.3846C56.4811 23.5955 57.8155 24.2354 58.8394 24.2354C59.2391 24.2354 59.6015 24.1321 59.8805 23.9398C60.8871 23.1966 60.749 21.6041 59.429 19.9255C58.4569 18.6974 57.1224 18.0403 56.0986 18.0403C55.6988 18.0403 55.3537 18.1263 55.0747 18.3358C54.0682 19.079 54.1889 20.6887 55.5263 22.3846ZM57.5049 28.5281C58.5805 28.5281 61.166 28.5625 61.166 27.2483C61.166 26.9355 60.6455 26.8494 59.9179 26.8494C59.0321 26.8494 57.8184 26.9699 56.7428 26.9699C56.2223 26.9699 55.7362 26.9355 55.3365 26.8494C53.9848 28.3903 55.788 28.5281 57.5049 28.5281Z" fill="black" stroke="black" stroke-width="0.5" stroke-miterlimit="10"/>
<path d="M34.0026 9.6528L32.9759 13.0846H32.4467C32.4956 12.9326 32.5272 12.8178 32.5474 12.7432C32.6509 12.4017 32.7056 12.1176 32.7056 11.8881C32.7056 11.5667 32.5675 11.3601 32.2914 11.2769C32.0153 11.1908 31.3539 11.1478 30.307 11.1478H28.1098L27.9113 11.759C27.1032 14.3415 26.2059 16.4935 25.2223 18.2209C24.2387 19.9483 23.0049 21.5237 21.5209 22.9469C20.0082 24.4189 18.2912 25.5667 16.3701 26.3931C14.4489 27.2195 12.5422 27.6327 10.6498 27.6327C8.51008 27.6327 6.58319 27.1765 4.87199 26.2669C3.3391 25.4605 2.14558 24.3214 1.29141 22.8494C0.434378 21.3773 0.00585938 19.7417 0.00585938 17.9369C0.00585938 15.5552 0.762237 13.6471 2.27499 12.2152C3.78775 10.7834 5.79805 10.066 8.31164 10.066C11.1272 10.066 14.1326 11.3601 17.3278 13.9512C18.3919 14.8149 19.8673 16.2095 21.751 18.1377L22.1939 18.5796C22.6684 17.7733 22.9072 16.924 22.9072 16.0316C22.9072 14.6456 22.3032 13.4978 21.0953 12.5854C19.8874 11.6729 18.2999 11.1679 16.3298 11.0617C16.5685 10.6542 16.7526 10.198 16.8878 9.69584L27.0025 9.6528C27.0773 9.40603 27.1348 9.22238 27.1751 9.09613C27.595 7.6528 27.9372 6.61693 28.2018 5.98565C28.4693 5.35438 28.8115 4.77188 29.2285 4.24103C30.0079 3.23386 31.0778 2.28121 32.4381 1.3802C33.8272 0.45911 35.0063 0 35.9755 0C36.1653 0 36.4069 0.0286944 36.7031 0.0860832C36.5795 0.806313 36.2976 1.90818 35.8605 3.38881L35.7598 3.74462H35.2306C35.4032 3.1363 35.4866 2.71162 35.4866 2.46485C35.4866 1.85653 35.1588 1.55237 34.503 1.55237C33.4849 1.55237 32.4956 1.93113 31.535 2.69154C31.0317 3.099 30.6349 3.59541 30.3501 4.17791C30.0654 4.7604 29.68 5.8594 29.194 7.47202L28.6504 9.30846L28.5498 9.64993H33.9997L34.0026 9.6528ZM26.597 11.1478L20.0772 11.1047C21.0867 11.561 21.9034 12.2267 22.5304 13.1047C23.1574 13.9828 23.4708 14.901 23.4708 15.8594C23.4708 17.3486 22.9158 19.0014 21.8028 20.8121C19.1023 17.6241 16.4765 15.1793 13.9255 13.4806C11.3774 11.7819 9.05939 10.9326 6.97719 10.9326C5.17109 10.9326 3.67559 11.5151 2.49069 12.6829C1.30579 13.8508 0.713346 15.3257 0.713346 17.1105C0.713346 19.825 1.76595 22.0574 3.87403 23.8077C5.98211 25.5581 8.66538 26.4333 11.9296 26.4333C15.5533 26.4333 18.6248 25.1248 21.1384 22.505C23.6549 19.8852 25.4725 16.0976 26.597 11.1449V11.1478Z" fill="black"/>
</g>
<defs>
<clipPath id="clip0_2313_7837">
<rect width="62" height="30" fill="white"/>
</clipPath>
</defs>
</svg>
