<svg width="100" height="50" viewBox="0 0 582 187" fill="none" xmlns="http://www.w3.org/2000/svg">
<path d="M24.4 147.8C19.6 147.8 15.2667 145.8 11.4 141.8C7.53333 137.8 5.6 131.2 5.6 122C5.6 114.533 6.46667 107.2 8.2 100C9.93333 92.8 11.8667 85.5333 14 78.2C16.2667 70.7333 18.1333 63.0667 19.6 55.2C21.2 47.2 21.7333 38.8 21.2 30C17.6 30.5333 14.0667 31.4667 10.6 32.8C7.13333 34.1333 3.73333 36.0667 0.4 38.6C0.4 30.2 1.13333 23.4 2.6 18.2C4.06667 12.8667 6.93333 9 11.2 6.6C15.4667 4.19999 21.8 2.99999 30.2 2.99999C34.7333 2.99999 39.8 3.33333 45.4 3.99999C51 4.66666 56.7333 5.33333 62.6 5.99999C68.6 6.66666 74.2667 6.99999 79.6 6.99999C84.8 6.99999 89.4667 6.53333 93.6 5.6C97.7333 4.53333 100.933 2.66666 103.2 -2.86102e-06C105.867 1.73332 107.867 4.13332 109.2 7.19999C110.667 10.1333 111.4 13.3333 111.4 16.8C111.4 20.4 110.533 23.9333 108.8 27.4C107.2 30.7333 104.667 33.5333 101.2 35.8C97.7333 37.9333 93.2 39 87.6 39C81.7333 39 75.3333 38.0667 68.4 36.2C61.4667 34.3333 54.3333 32.7333 47 31.4C47.6667 34.3333 48.1333 37.2667 48.4 40.2C48.8 43.1333 49 46.1333 49 49.2C49 52.5333 48.8667 55.8667 48.6 59.2C48.3333 62.4 47.9333 65.7333 47.4 69.2C50.2 67.7333 53.6 66.4 57.6 65.2C61.6 64 65.6667 63 69.8 62.2C74.0667 61.4 77.8667 61 81.2 61C83.3333 61 85.2 61.2 86.8 61.6C88.1333 64.4 88.8 67.8 88.8 71.8C88.8 78.2 87.2 84.7333 84 91.4L82.6 92C77.6667 89.3333 71.9333 87.2667 65.4 85.8C59 84.3333 52.2667 83.3333 45.2 82.8C43.8667 90.4 42.6 98.1333 41.4 106C40.2 113.867 39.6 121.933 39.6 130.2C39.6 131.933 39.6 133.733 39.6 135.6C39.7333 137.467 39.8667 139.333 40 141.2C35.6 145.6 30.4 147.8 24.4 147.8ZM142.266 148.4C132.532 148.4 124.466 146.467 118.066 142.6C111.666 138.6 106.866 133.4 103.666 127C100.466 120.467 98.8656 113.467 98.8656 106C98.8656 98.9333 100.199 91.8667 102.866 84.8C105.666 77.6 109.666 71.0667 114.866 65.2C120.199 59.3333 126.599 54.6 134.066 51C141.666 47.4 150.199 45.6 159.666 45.6C171.399 45.6 179.932 48.2667 185.266 53.6C190.732 58.8 193.466 65.1333 193.466 72.6C193.466 79 191.732 84.9333 188.266 90.4C184.932 95.7333 180.466 100.067 174.866 103.4C169.266 106.6 163.132 108.2 156.466 108.2C152.999 108.2 149.466 107.667 145.866 106.6C142.266 105.533 138.732 103.867 135.266 101.6C135.932 109.867 138.332 115.867 142.466 119.6C146.599 123.333 151.532 125.2 157.266 125.2C161.266 125.2 165.266 124.467 169.266 123C173.266 121.4 176.932 119.4 180.266 117C183.732 114.467 186.399 111.8 188.266 109L189.666 110C189.666 116.933 188.199 122.867 185.266 127.8C182.466 132.6 178.732 136.533 174.066 139.6C169.399 142.667 164.266 144.933 158.666 146.4C153.199 147.733 147.732 148.4 142.266 148.4ZM146.866 94.4C151.132 94.4 154.599 93.2 157.266 90.8C159.932 88.2667 161.932 85.3333 163.266 82C164.599 78.6667 165.266 75.7333 165.266 73.2C165.266 70.1333 164.399 67.6 162.666 65.6C160.932 63.4667 158.532 62.4 155.466 62.4C153.066 62.4 150.399 63.2667 147.466 65C144.666 66.7333 142.132 69.7333 139.866 74C137.599 78.1333 136.132 83.9333 135.466 91.4C139.732 93.4 143.532 94.4 146.866 94.4ZM246.563 148.4C236.829 148.4 228.763 146.467 222.363 142.6C215.963 138.6 211.163 133.4 207.963 127C204.763 120.467 203.163 113.467 203.163 106C203.163 98.9333 204.496 91.8667 207.163 84.8C209.963 77.6 213.963 71.0667 219.163 65.2C224.496 59.3333 230.896 54.6 238.363 51C245.963 47.4 254.496 45.6 263.963 45.6C275.696 45.6 284.229 48.2667 289.563 53.6C295.029 58.8 297.763 65.1333 297.763 72.6C297.763 79 296.029 84.9333 292.563 90.4C289.229 95.7333 284.763 100.067 279.163 103.4C273.563 106.6 267.429 108.2 260.763 108.2C257.296 108.2 253.763 107.667 250.163 106.6C246.563 105.533 243.029 103.867 239.563 101.6C240.229 109.867 242.629 115.867 246.763 119.6C250.896 123.333 255.829 125.2 261.563 125.2C265.563 125.2 269.563 124.467 273.563 123C277.563 121.4 281.229 119.4 284.563 117C288.029 114.467 290.696 111.8 292.563 109L293.963 110C293.963 116.933 292.496 122.867 289.563 127.8C286.763 132.6 283.029 136.533 278.363 139.6C273.696 142.667 268.563 144.933 262.963 146.4C257.496 147.733 252.029 148.4 246.563 148.4ZM251.163 94.4C255.429 94.4 258.896 93.2 261.563 90.8C264.229 88.2667 266.229 85.3333 267.563 82C268.896 78.6667 269.563 75.7333 269.563 73.2C269.563 70.1333 268.696 67.6 266.963 65.6C265.229 63.4667 262.829 62.4 259.763 62.4C257.363 62.4 254.696 63.2667 251.763 65C248.963 66.7333 246.429 69.7333 244.163 74C241.896 78.1333 240.429 83.9333 239.763 91.4C244.029 93.4 247.829 94.4 251.163 94.4ZM329.878 147.8C326.278 147.8 322.745 146.933 319.278 145.2C315.945 143.333 313.211 140.4 311.078 136.4C308.945 132.4 307.878 127.267 307.878 121C307.878 115.4 308.611 108.867 310.078 101.4C311.678 93.8 313.411 85.9333 315.278 77.8C317.278 69.6667 319.011 61.7333 320.478 54C321.945 46.2667 322.611 39.4 322.478 33.4C322.478 27.6667 321.811 23.6 320.478 21.2L320.278 20.6C321.745 16.3333 324.345 13 328.078 10.6C331.811 8.19999 335.745 6.99999 339.878 6.99999C344.545 6.99999 348.678 8.79999 352.278 12.4C356.011 15.8667 357.878 21.7333 357.878 30C357.878 34.4 357.345 39.6667 356.278 45.8C355.211 51.8 353.945 58.2667 352.478 65.2C351.011 72 349.478 78.7333 347.878 85.4C346.411 92.0667 345.145 98.2 344.078 103.8C343.011 109.4 342.478 114 342.478 117.6C342.478 121.333 343.011 123.933 344.078 125.4C345.145 126.733 346.345 127.4 347.678 127.4C349.145 127.4 350.545 126.867 351.878 125.8C353.211 124.6 354.078 123.533 354.478 122.6L356.078 123C355.945 127.8 354.545 132.067 351.878 135.8C349.345 139.533 346.078 142.467 342.078 144.6C338.211 146.733 334.145 147.8 329.878 147.8ZM410.053 148.4C400.053 148.4 391.786 146.4 385.253 142.4C378.72 138.4 373.853 133.133 370.653 126.6C367.586 119.933 366.053 112.867 366.053 105.4C366.053 98.3333 367.32 91.2667 369.853 84.2C372.52 77.1333 376.32 70.7333 381.253 65C386.32 59.1333 392.453 54.4667 399.653 51C406.853 47.4 415.12 45.6 424.453 45.6C434.453 45.6 442.653 47.6667 449.053 51.8C455.586 55.8 460.386 61.1333 463.453 67.8C466.653 74.4667 468.253 81.6 468.253 89.2C468.253 96.1333 466.986 103.133 464.453 110.2C461.92 117.133 458.12 123.533 453.053 129.4C448.12 135.133 442.053 139.733 434.853 143.2C427.653 146.667 419.386 148.4 410.053 148.4ZM415.453 131.4C419.053 131.4 422.053 129.533 424.453 125.8C426.853 122.067 428.653 117.333 429.853 111.6C431.053 105.733 431.653 99.8 431.653 93.8C431.653 88.4667 431.12 83.4667 430.053 78.8C429.12 74 427.653 70.1333 425.653 67.2C423.653 64.1333 421.053 62.6 417.853 62.6C414.386 62.6 411.386 64.4667 408.853 68.2C406.453 71.9333 404.653 76.6667 403.453 82.4C402.253 88.1333 401.653 94.0667 401.653 100.2C401.653 105.533 402.12 110.6 403.053 115.4C404.12 120.067 405.653 123.933 407.653 127C409.653 129.933 412.253 131.4 415.453 131.4ZM527.944 187C521.41 187 516.01 185.067 511.744 181.2C507.477 177.333 505.344 171.867 505.344 164.8C505.344 157.2 508.01 148.267 513.344 138C512.41 138.267 511.477 138.467 510.544 138.6C509.61 138.733 508.677 138.8 507.744 138.8C500.01 138.8 493.477 135.467 488.144 128.8C482.944 122 480.344 112.6 480.344 100.6C480.344 89.8 482.41 80.2667 486.544 72C490.81 63.7333 496.21 57.2667 502.744 52.6C509.277 47.9333 516.077 45.6 523.144 45.6C528.077 45.6 532.544 46.8667 536.544 49.4C540.544 51.8 543.81 55.7333 546.344 61.2C546.477 59.8667 546.544 58.6667 546.544 57.6C546.544 56.5333 546.544 55.5333 546.544 54.6C546.544 52.3333 548.277 50.4667 551.744 49C555.21 47.5333 559.077 46.8 563.344 46.8C567.21 46.8 570.81 47.5333 574.144 49C577.477 50.4667 579.677 52.9333 580.744 56.4L581.144 57.6C579.944 58.6667 578.877 62.1333 577.944 68C577.144 73.8667 576.144 82 574.944 92.4C574.144 98.9333 573.144 106.4 571.944 114.8C570.744 123.067 569.077 131.467 566.944 140C564.944 148.4 562.277 156.133 558.944 163.2C555.61 170.4 551.41 176.133 546.344 180.4C541.277 184.8 535.144 187 527.944 187ZM521.344 115.8C525.21 115.8 529.477 112.667 534.144 106.4C538.944 100 542.744 90.8667 545.544 79C543.144 73.8 540.677 70.1333 538.144 68C535.744 65.7333 533.277 64.6 530.744 64.6C527.41 64.6 524.277 66.2667 521.344 69.6C518.41 72.9333 516.01 77.2 514.144 82.4C512.41 87.4667 511.544 92.7333 511.544 98.2C511.544 103.8 512.477 108.133 514.344 111.2C516.21 114.267 518.544 115.8 521.344 115.8ZM518.944 164C523.477 164 528.077 159.533 532.744 150.6C537.544 141.8 540.877 129.333 542.744 113.2C532.61 126.933 525.544 137.533 521.544 145C517.677 152.333 515.744 157.533 515.744 160.6C515.744 162.867 516.81 164 518.944 164Z" fill="black"/>
</svg>
