<svg width="33" height="33" viewBox="0 0 33 33" fill="none" xmlns="http://www.w3.org/2000/svg">
<g clip-path="url(#clip0_4494_9387)">
<mask id="mask0_4494_9387" style="mask-type:luminance" maskUnits="userSpaceOnUse" x="0" y="0" width="33" height="33">
<path d="M0 0H32.9473V32.9476H0V0Z" fill="white"/>
</mask>
<g mask="url(#mask0_4494_9387)">
<mask id="mask1_4494_9387" style="mask-type:luminance" maskUnits="userSpaceOnUse" x="0" y="0" width="33" height="33">
<path d="M1.73684 0H31.2105C32.1697 0 32.9473 0.77764 32.9473 1.73684V31.2108C32.9473 32.17 32.1697 32.9476 31.2105 32.9476H1.73684C0.777311 32.9476 0 32.17 0 31.2108V1.73684C0 0.77764 0.777311 0 1.73684 0Z" fill="white"/>
</mask>
<g mask="url(#mask1_4494_9387)">
<path d="M0 8C0 3.58173 3.58172 0 8 0H24.9473C29.3656 0 32.9473 3.58172 32.9473 8V24.9476C32.9473 29.3659 29.3656 32.9476 24.9473 32.9476H8C3.58172 32.9476 0 29.3659 0 24.9476V8Z" fill="#1F9EFF"/>
</g>
</g>
<path d="M20.9702 19.8887L17.2771 23.5818L18.13 24.4353L21.8234 20.742L20.9702 19.8887ZM22.7105 16.6325C22.465 17.8663 21.8596 18.9993 20.9702 19.8887L21.8234 20.742C22.8814 19.6839 23.6019 18.3357 23.894 16.868L22.7105 16.6325ZM22.3483 12.9582C22.8298 14.1202 22.9557 15.399 22.7105 16.6325L23.894 16.868C24.1857 15.4003 24.0361 13.8789 23.4633 12.4965L22.3483 12.9582ZM20.0061 10.1042C21.0519 10.8029 21.867 11.7961 22.3483 12.9582L23.4633 12.4965C22.8905 11.1141 21.9207 9.93228 20.6765 9.10102L20.0061 10.1042ZM16.473 9.03254C17.7307 9.03254 18.9603 9.40534 20.0061 10.1042L20.6765 9.10102C19.4323 8.26944 17.9695 7.82581 16.473 7.82581V9.03254ZM12.9398 10.1042C13.9856 9.40534 15.2153 9.03254 16.473 9.03254V7.82581C14.9765 7.82581 13.5136 8.26944 12.2695 9.10102L12.9398 10.1042ZM10.5976 12.9582C11.0789 11.7961 11.894 10.8029 12.9398 10.1042L12.2695 9.10102C11.0253 9.93228 10.0554 11.1141 9.48263 12.4965L10.5976 12.9582ZM10.2357 16.6325C9.99016 15.399 10.1162 14.1202 10.5976 12.9582L9.48263 12.4965C8.91015 13.8789 8.76023 15.4003 9.05196 16.868L10.2357 16.6325ZM11.9761 19.8887C11.0867 18.9993 10.4809 17.8663 10.2357 16.6325L9.05196 16.868C9.34406 18.3357 10.0645 19.6839 11.1229 20.742L11.9761 19.8887ZM15.6698 23.5818L11.9761 19.8887L11.1229 20.742L14.8166 24.435L15.6698 23.5818ZM16.4733 23.9142C16.1719 23.9142 15.883 23.795 15.6698 23.5818L14.8166 24.435C15.256 24.8741 15.852 25.1209 16.4733 25.1209V23.9142ZM17.2771 23.5818C17.0639 23.795 16.7751 23.9142 16.4733 23.9142V25.1209C17.0946 25.1209 17.6906 24.8744 18.13 24.4353L17.2771 23.5818Z" fill="white"/>
<path d="M20.3767 19.4374L17.1715 22.6426L17.9116 23.3831L21.1171 20.1779L20.3767 19.4374ZM21.887 16.6112C21.6742 17.6821 21.1485 18.6656 20.3767 19.4374L21.1171 20.1779C22.0353 19.2594 22.6608 18.0895 22.9141 16.8157L21.887 16.6112ZM21.573 13.4225C21.9908 14.4308 22.0999 15.5405 21.887 16.6112L22.9141 16.8157C23.1677 15.5418 23.0375 14.2214 22.5403 13.0215L21.573 13.4225ZM19.5399 10.9454C20.4478 11.5518 21.1553 12.4138 21.573 13.4225L22.5403 13.0215C22.0434 11.8216 21.2018 10.7962 20.1217 10.0745L19.5399 10.9454ZM16.4736 10.015C17.5653 10.015 18.6324 10.3387 19.5399 10.9454L20.1217 10.0745C19.042 9.35298 17.7723 8.9679 16.4736 8.9679V10.015ZM13.407 10.9454C14.3148 10.3387 15.3819 10.015 16.4736 10.015V8.9679C15.1748 8.9679 13.9052 9.35298 12.8254 10.0745L13.407 10.9454ZM11.3742 13.4225C11.792 12.4138 12.4995 11.5518 13.407 10.9454L12.8254 10.0745C11.7454 10.7962 10.9038 11.8216 10.4066 13.0215L11.3742 13.4225ZM11.0602 16.6112C10.8473 15.5405 10.9565 14.4308 11.3742 13.4225L10.4066 13.0215C9.90972 14.2214 9.77952 15.5418 10.0328 16.8157L11.0602 16.6112ZM12.5706 19.4374C11.7987 18.6656 11.2731 17.6821 11.0602 16.6112L10.0328 16.8157C10.2864 18.0895 10.9116 19.2594 11.8301 20.1779L12.5706 19.4374ZM15.7764 22.6423L12.5706 19.4374L11.8301 20.1779L15.0359 23.3831L15.7764 22.6423ZM16.4739 22.9311C16.2122 22.9311 15.9612 22.8271 15.7764 22.6423L15.0359 23.3831C15.4172 23.7643 15.9347 23.9782 16.4739 23.9782V22.9311ZM17.1715 22.6426C16.9864 22.8274 16.7356 22.9311 16.4739 22.9311V23.9782C17.0132 23.9782 17.5304 23.7643 17.9116 23.3831L17.1715 22.6426Z" fill="white"/>
<mask id="mask2_4494_9387" style="mask-type:luminance" maskUnits="userSpaceOnUse" x="25" y="2" width="5" height="5">
<path d="M25.9097 2.55066H29.8996V6.54063H25.9097V2.55066Z" fill="white"/>
</mask>
<g mask="url(#mask2_4494_9387)">
<mask id="mask3_4494_9387" style="mask-type:luminance" maskUnits="userSpaceOnUse" x="25" y="2" width="5" height="5">
<path d="M27.9046 2.55066C26.803 2.55066 25.9097 3.44395 25.9097 4.54563C25.9097 5.64764 26.803 6.54063 27.9046 6.54063C29.0066 6.54063 29.8996 5.64764 29.8996 4.54563C29.8996 3.44395 29.0066 2.55066 27.9046 2.55066Z" fill="white"/>
</mask>
<g mask="url(#mask3_4494_9387)">
<path d="M25.9097 2.55066H29.8996V6.54063H25.9097V2.55066Z" fill="white"/>
</g>
</g>
<mask id="mask4_4494_9387" style="mask-type:luminance" maskUnits="userSpaceOnUse" x="16" y="14" width="8" height="3">
<path d="M16.4736 14.6588H23.832V16.6008H16.4736V14.6588Z" fill="white"/>
</mask>
<g mask="url(#mask4_4494_9387)">
<mask id="mask5_4494_9387" style="mask-type:luminance" maskUnits="userSpaceOnUse" x="16" y="14" width="8" height="3">
<path d="M17.4448 14.6588H22.8569C23.1144 14.6588 23.3616 14.7609 23.5434 14.9431C23.7256 15.1253 23.8277 15.3722 23.8277 15.6296C23.8277 15.8871 23.7256 16.1343 23.5434 16.3161C23.3616 16.4984 23.1144 16.6008 22.8569 16.6008H17.4448C17.187 16.6008 16.9402 16.4984 16.7579 16.3161C16.576 16.1343 16.4736 15.8871 16.4736 15.6296C16.4736 15.3722 16.576 15.1253 16.7579 14.9431C16.9402 14.7609 17.187 14.6588 17.4448 14.6588Z" fill="white"/>
</mask>
<g mask="url(#mask5_4494_9387)">
<path d="M16.4736 14.6588H23.8245V16.6008H16.4736V14.6588Z" fill="white"/>
</g>
</g>
</g>
<defs>
<clipPath id="clip0_4494_9387">
<rect width="33" height="33" fill="white"/>
</clipPath>
</defs>
</svg>
