 <svg xmlns="http://www.w3.org/2000/svg" width="40" height="40" viewBox="0 0 35 35" fill="none">
  <mask id="mask0_4203_11523" style="mask-type:luminance" maskUnits="userSpaceOnUse" x="0" y="0" width="35" height="35">
    <path d="M0 10C0 4.47715 4.47715 0 10 0H25C30.5228 0 35 4.47715 35 10V25C35 30.5228 30.5228 35 25 35H10C4.47715 35 0 30.5228 0 25V10Z" fill="white"/>
  </mask>
  <g mask="url(#mask0_4203_11523)">
    <mask id="mask1_4203_11523" style="mask-type:luminance" maskUnits="userSpaceOnUse" x="0" y="0" width="35" height="35">
      <path d="M1.84505 1H33.1549C33.6216 1 34 1.37837 34 1.84503V33.155C34 33.6216 33.6216 34 33.1549 34H1.84505C1.37814 34 1 33.6217 1 33.155V1.84503C1 1.37825 1.37814 1 1.84505 1Z" fill="white" stroke="white" stroke-width="2"/>
    </mask>
    <g mask="url(#mask1_4203_11523)">
      <path d="M10 1H25C29.9706 1 34 5.02944 34 10V25C34 29.9706 29.9706 34 25 34H10C5.02944 34 1 29.9706 1 25V10C1 5.02944 5.02944 1 10 1Z" stroke="black" stroke-width="2"/>
    </g>
  </g>
  <mask id="path-5-inside-1_4203_11523" fill="white">
    <path d="M22.2772 21.1282L18.3541 25.0513L19.2601 25.9577L23.1836 22.0346L22.2772 21.1282ZM24.126 17.6688C23.8656 18.9795 23.2221 20.1834 22.2772 21.1282L23.1836 22.0346C24.3076 20.9103 25.0733 19.4781 25.3832 17.919L24.126 17.6688ZM23.7417 13.7656C24.253 15.0001 24.3869 16.3585 24.126 17.6688L25.3832 17.919C25.6934 16.3598 25.5342 14.7437 24.9257 13.2748L23.7417 13.7656ZM21.2531 10.7335C22.3644 11.4758 23.2303 12.5311 23.7417 13.7656L24.9257 13.2748C24.3176 11.8063 23.2873 10.5509 21.9653 9.66783L21.2531 10.7335ZM17.4999 9.59508C18.8359 9.59508 20.1422 9.99113 21.2531 10.7335L21.9653 9.66783C20.6436 8.78479 19.0896 8.31323 17.4999 8.31323V9.59508ZM13.7463 10.7335C14.8576 9.99113 16.1638 9.59508 17.4999 9.59508V8.31323C15.9102 8.31323 14.3561 8.78479 13.0341 9.66783L13.7463 10.7335ZM11.2581 13.7656C11.7694 12.5311 12.6353 11.4758 13.7463 10.7335L13.0341 9.66783C11.7125 10.5509 10.6822 11.8063 10.0737 13.2748L11.2581 13.7656ZM10.8737 17.6688C10.6128 16.3585 10.7467 15.0001 11.2581 13.7656L10.0737 13.2748C9.46552 14.7437 9.30628 16.3598 9.61619 17.919L10.8737 17.6688ZM12.7225 21.1282C11.7777 20.1834 11.1342 18.9795 10.8737 17.6688L9.61619 17.919C9.92644 19.4781 10.6918 20.9103 11.8161 22.0346L12.7225 21.1282ZM16.6467 25.051L12.7225 21.1282L11.8161 22.0346L15.7403 25.9577L16.6467 25.051ZM17.5002 25.4045C17.18 25.4045 16.8732 25.2772 16.6467 25.051L15.7403 25.9577C16.2074 26.4245 16.8402 26.6863 17.5002 26.6863V25.4045ZM18.3541 25.0513C18.1276 25.2775 17.8204 25.4045 17.5002 25.4045V26.6863C18.1602 26.6863 18.7934 26.4245 19.2601 25.9577L18.3541 25.0513Z"/>
  </mask>
  <path d="M22.2772 21.1282L18.3541 25.0513L19.2601 25.9577L23.1836 22.0346L22.2772 21.1282ZM24.126 17.6688C23.8656 18.9795 23.2221 20.1834 22.2772 21.1282L23.1836 22.0346C24.3076 20.9103 25.0733 19.4781 25.3832 17.919L24.126 17.6688ZM23.7417 13.7656C24.253 15.0001 24.3869 16.3585 24.126 17.6688L25.3832 17.919C25.6934 16.3598 25.5342 14.7437 24.9257 13.2748L23.7417 13.7656ZM21.2531 10.7335C22.3644 11.4758 23.2303 12.5311 23.7417 13.7656L24.9257 13.2748C24.3176 11.8063 23.2873 10.5509 21.9653 9.66783L21.2531 10.7335ZM17.4999 9.59508C18.8359 9.59508 20.1422 9.99113 21.2531 10.7335L21.9653 9.66783C20.6436 8.78479 19.0896 8.31323 17.4999 8.31323V9.59508ZM13.7463 10.7335C14.8576 9.99113 16.1638 9.59508 17.4999 9.59508V8.31323C15.9102 8.31323 14.3561 8.78479 13.0341 9.66783L13.7463 10.7335ZM11.2581 13.7656C11.7694 12.5311 12.6353 11.4758 13.7463 10.7335L13.0341 9.66783C11.7125 10.5509 10.6822 11.8063 10.0737 13.2748L11.2581 13.7656ZM10.8737 17.6688C10.6128 16.3585 10.7467 15.0001 11.2581 13.7656L10.0737 13.2748C9.46552 14.7437 9.30628 16.3598 9.61619 17.919L10.8737 17.6688ZM12.7225 21.1282C11.7777 20.1834 11.1342 18.9795 10.8737 17.6688L9.61619 17.919C9.92644 19.4781 10.6918 20.9103 11.8161 22.0346L12.7225 21.1282ZM16.6467 25.051L12.7225 21.1282L11.8161 22.0346L15.7403 25.9577L16.6467 25.051ZM17.5002 25.4045C17.18 25.4045 16.8732 25.2772 16.6467 25.051L15.7403 25.9577C16.2074 26.4245 16.8402 26.6863 17.5002 26.6863V25.4045ZM18.3541 25.0513C18.1276 25.2775 17.8204 25.4045 17.5002 25.4045V26.6863C18.1602 26.6863 18.7934 26.4245 19.2601 25.9577L18.3541 25.0513Z" fill="black"/>
  <path d="M19.2601 25.9577L18.5529 26.6647L19.9675 25.2509L19.2601 25.9577ZM21.9653 9.66783L22.7969 10.2232L21.1338 9.1122L21.9653 9.66783ZM13.7463 10.7335L12.9148 11.2891L14.5777 10.1779L13.7463 10.7335ZM11.2581 13.7656L10.8753 14.6894L11.641 12.8418L11.2581 13.7656ZM10.8737 17.6688L11.0691 18.6495L10.6785 16.688L10.8737 17.6688ZM11.8161 22.0346L11.1087 21.3278L12.5232 22.7417L11.8161 22.0346ZM15.7403 25.9577L15.0329 25.2509L16.4475 26.6647L15.7403 25.9577ZM22.0231 22.2884L22.4765 22.7417L23.8907 21.3275L23.4374 20.8742L22.0231 22.2884ZM18.0997 26.2112L18.5528 26.6646L19.9675 25.2509L19.5145 24.7975L18.0997 26.2112ZM24.7166 14.444L25.3086 14.1986L24.5428 12.3511L23.9508 12.5964L24.7166 14.444ZM22.441 10.7561L22.7969 10.2232L21.1336 9.11251L20.7777 9.6455L22.441 10.7561ZM12.5589 10.7564L12.9148 11.289L14.5777 10.1779L14.2218 9.64525L12.5589 10.7564ZM10.2831 14.444L10.8752 14.6894L11.641 12.8418L11.0489 12.5964L10.2831 14.444ZM10.4403 18.7748L11.0691 18.6495L10.6783 16.6881L10.0495 16.8133L10.4403 18.7748ZM11.5618 20.8744L11.1087 21.3278L12.5235 22.7415L12.9765 22.2881L11.5618 20.8744ZM15.4859 24.7975L15.0329 25.2509L16.4476 26.6646L16.9007 26.2112L15.4859 24.7975ZM17.6469 25.7583L18.5529 26.6647L19.9674 25.2507L19.0613 24.3444L17.6469 25.7583ZM23.8907 21.3275L22.9843 20.4211L21.5701 21.8354L22.4765 22.7417L23.8907 21.3275ZM25.5784 16.9382L24.3212 16.688L23.9309 18.6496L25.188 18.8998L25.5784 16.9382ZM24.5428 12.3511L23.3588 12.8418L24.1246 14.6894L25.3086 14.1986L24.5428 12.3511ZM21.1338 9.1122L20.4217 10.1778L22.0845 11.2891L22.7967 10.2235L21.1338 9.1122ZM16.4999 8.31323V9.59508H18.4999V8.31323H16.4999ZM12.2027 10.2235L12.9148 11.2891L14.5777 10.1778L13.8656 9.1122L12.2027 10.2235ZM9.69087 14.1987L10.8753 14.6894L11.6409 12.8418L10.4565 12.351L9.69087 14.1987ZM9.81133 18.8998L11.0688 18.6496L10.6785 16.688L9.42105 16.9382L9.81133 18.8998ZM12.5232 22.7417L13.4296 21.8353L12.0154 20.4211L11.109 21.3275L12.5232 22.7417ZM16.4475 26.6647L17.3539 25.758L15.9394 24.344L15.033 25.2507L16.4475 26.6647ZM18.5002 26.6863V25.4045H16.5002V26.6863H18.5002ZM23.1836 22.0346L24.5978 23.4489L24.598 23.4486L23.1836 22.0346ZM19.2601 25.9577L17.846 24.5434L17.8459 24.5435L19.2601 25.9577ZM24.9257 13.2748L23.0779 14.0401L23.078 14.0403L24.9257 13.2748ZM21.9653 9.66783L20.8542 11.3308L20.8544 11.3309L21.9653 9.66783ZM13.7463 10.7335L12.6353 9.07039L12.6351 9.07054L13.7463 10.7335ZM11.2581 13.7656L13.1058 14.531L13.1058 14.531L11.2581 13.7656ZM10.8737 17.6688L12.8353 17.2789L12.8352 17.2783L10.8737 17.6688ZM11.8161 22.0346L10.4019 23.4488L10.4021 23.449L11.8161 22.0346ZM15.7403 25.9577L14.3263 27.3721L14.3266 27.3725L15.7403 25.9577ZM22.2772 21.1282L23.6914 22.5425L22.2772 21.1282ZM18.3541 25.0513L19.7672 26.4666L19.7683 26.4656L18.3541 25.0513ZM24.126 17.6688L22.1645 17.2783L22.1644 17.2789L24.126 17.6688ZM25.3832 17.919L23.4217 17.5287L23.4216 17.5291L25.3832 17.919ZM23.7417 13.7656L21.8939 14.531L21.8939 14.531L23.7417 13.7656ZM21.2531 10.7335L20.1419 12.3964L20.1422 12.3965L21.2531 10.7335ZM13.0341 9.66783L11.9232 8.00473L11.923 8.00486L13.0341 9.66783ZM10.0737 13.2748L8.22601 12.5093L8.22579 12.5098L10.0737 13.2748ZM9.61619 17.919L7.65457 18.3089L7.65465 18.3093L9.61619 17.919ZM12.7225 21.1282L11.3083 22.5425L11.3085 22.5427L12.7225 21.1282ZM16.6467 25.051L15.2327 26.4655L15.2335 26.4663L16.6467 25.051ZM20.863 19.714L16.9399 23.6371L19.7683 26.4656L23.6914 22.5425L20.863 19.714ZM20.6743 27.372L24.5978 23.4489L21.7695 20.6203L17.846 24.5434L20.6743 27.372ZM22.1644 17.2789C21.9811 18.2015 21.5281 19.0489 20.863 19.714L23.6914 22.5425C24.916 21.3179 25.75 19.7575 26.0877 18.0587L22.1644 17.2789ZM24.598 23.4486C26.0014 22.0448 26.9577 20.2564 27.3448 18.3089L23.4216 17.5291C23.1888 18.6999 22.6138 19.7758 21.7692 20.6206L24.598 23.4486ZM21.8939 14.531C22.2539 15.4001 22.3481 16.3562 22.1645 17.2783L26.0876 18.0593C26.4257 16.3607 26.2521 14.6001 25.5894 13.0002L21.8939 14.531ZM27.3447 18.3093C27.7322 16.362 27.5333 14.3437 26.7734 12.5094L23.078 14.0403C23.5351 15.1438 23.6547 16.3577 23.4217 17.5287L27.3447 18.3093ZM20.1422 12.3965C20.9243 12.919 21.5339 13.6618 21.8939 14.531L25.5894 13.0002C24.9267 11.4004 23.8045 10.0326 22.364 9.07039L20.1422 12.3965ZM26.7735 12.5096C26.014 10.6755 24.7272 9.10758 23.0761 8.00473L20.8544 11.3309C21.8473 11.9942 22.6211 12.9371 23.0779 14.0401L26.7735 12.5096ZM17.4999 11.5951C18.4406 11.5951 19.3601 11.8739 20.1419 12.3964L22.3643 9.07054C20.9243 8.10832 19.2313 7.59508 17.4999 7.59508V11.5951ZM23.0763 8.00486C21.4259 6.90214 19.4852 6.31323 17.4999 6.31323V10.3132C18.6939 10.3132 19.8613 10.6674 20.8542 11.3308L23.0763 8.00486ZM14.8572 12.3965C15.6396 11.8739 16.5592 11.5951 17.4999 11.5951V7.59508C15.7684 7.59508 14.0755 8.10835 12.6353 9.07039L14.8572 12.3965ZM17.4999 6.31323C15.5144 6.31323 13.5739 6.90216 11.9232 8.00473L14.145 11.3309C15.1384 10.6674 16.3059 10.3132 17.4999 10.3132V6.31323ZM13.1058 14.531C13.4659 13.6618 14.0755 12.9189 14.8574 12.3964L12.6351 9.07054C11.1951 10.0327 10.073 11.4005 9.41032 13.0002L13.1058 14.531ZM11.923 8.00486C10.2724 9.1077 8.98585 10.6754 8.22601 12.5093L11.9213 14.0404C12.3785 12.9372 13.1525 11.9941 14.1452 11.3308L11.923 8.00486ZM12.8352 17.2783C12.6516 16.3562 12.7458 15.4001 13.1058 14.531L9.41032 13.0002C8.74759 14.6001 8.57405 16.3607 8.91216 18.0593L12.8352 17.2783ZM8.22579 12.5098C7.46644 14.3439 7.26756 16.3619 7.65457 18.3089L11.5778 17.5291C11.345 16.3578 11.4646 15.1436 11.9216 14.0399L8.22579 12.5098ZM14.1367 19.714C13.4716 19.0489 13.0187 18.2014 12.8353 17.2789L8.91205 18.0587C9.24968 19.7575 10.0837 21.3179 11.3083 22.5425L14.1367 19.714ZM7.65465 18.3093C8.04206 20.2562 8.9978 22.0448 10.4019 23.4488L13.2303 20.6204C12.3858 19.7759 11.8108 18.7001 11.5777 17.5287L7.65465 18.3093ZM18.0606 23.6365L14.1365 19.7138L11.3085 22.5427L15.2327 26.4655L18.0606 23.6365ZM10.4021 23.449L14.3263 27.3721L17.1543 24.5433L13.2301 20.6202L10.4021 23.449ZM17.5002 23.4045C17.7114 23.4045 17.9124 23.4885 18.0598 23.6357L15.2335 26.4663C15.834 27.0658 16.6486 27.4045 17.5002 27.4045V23.4045ZM14.3266 27.3725C15.1688 28.2141 16.3102 28.6863 17.5002 28.6863V24.6863C17.3703 24.6863 17.2459 24.6349 17.154 24.543L14.3266 27.3725ZM16.941 23.636C17.0898 23.4874 17.2911 23.4045 17.5002 23.4045V27.4045C18.3497 27.4045 19.1653 27.0676 19.7672 26.4666L16.941 23.636ZM17.5002 28.6863C18.6898 28.6863 19.8319 28.2143 20.6743 27.3719L17.8459 24.5435C17.7548 24.6346 17.6306 24.6863 17.5002 24.6863V28.6863Z" fill="black" mask="url(#path-5-inside-1_4203_11523)"/>
  <path d="M21.6458 20.6489L18.2409 24.0534L19.0275 24.8404L22.4324 21.4355L21.6458 20.6489ZM23.2503 17.6466C23.0241 18.784 22.4657 19.8286 21.6458 20.6489L22.4324 21.4355C23.4078 20.4601 24.0722 19.2167 24.3413 17.8638L23.2503 17.6466ZM22.9167 14.2592C23.3604 15.3304 23.4764 16.5092 23.2503 17.6466L24.3413 17.8638C24.6104 16.5106 24.4724 15.108 23.9442 13.8333L22.9167 14.2592ZM20.7569 11.6279C21.7213 12.2721 22.4729 13.1878 22.9167 14.2592L23.9442 13.8333C23.4164 12.5587 22.5223 11.4694 21.375 10.703L20.7569 11.6279ZM17.4996 10.6399C18.6593 10.6399 19.7928 10.9838 20.7569 11.6279L21.375 10.703C20.228 9.93631 18.8792 9.52722 17.4996 9.52722V10.6399ZM14.2423 11.6279C15.2067 10.9838 16.3399 10.6399 17.4996 10.6399V9.52722C16.1199 9.52722 14.7715 9.93631 13.6242 10.703L14.2423 11.6279ZM12.0828 14.2592C12.5266 13.1878 13.2782 12.2721 14.2423 11.6279L13.6242 10.703C12.4772 11.4694 11.5831 12.5587 11.0549 13.8333L12.0828 14.2592ZM11.7492 17.6466C11.5227 16.5092 11.6391 15.3304 12.0828 14.2592L11.0549 13.8333C10.5271 15.108 10.3888 16.5106 10.6579 17.8638L11.7492 17.6466ZM13.3537 20.6489C12.5338 19.8286 11.9754 18.784 11.7492 17.6466L10.6579 17.8638C10.9273 19.2167 11.5914 20.4598 12.5671 21.4352L13.3537 20.6489ZM16.7593 24.0534L13.3537 20.6489L12.5671 21.4352L15.9727 24.84L16.7593 24.0534ZM17.4999 24.3599C17.2223 24.3599 16.9559 24.2501 16.7593 24.0534L15.9727 24.84C16.378 25.2447 16.9271 25.4725 17.4999 25.4725V24.3599ZM18.2409 24.0534C18.0442 24.2501 17.7779 24.3599 17.4999 24.3599V25.4725C18.0727 25.4725 18.6222 25.245 19.0275 24.8404L18.2409 24.0534Z" fill="black"/>
  <mask id="mask2_4203_11523" style="mask-type:luminance" maskUnits="userSpaceOnUse" x="25" y="4" width="5" height="5">
    <path d="M25.5239 4.70959H29.5239V8.70959H25.5239V4.70959Z" fill="white"/>
  </mask>
  <g mask="url(#mask2_4203_11523)">
    <mask id="mask3_4203_11523" style="mask-type:luminance" maskUnits="userSpaceOnUse" x="25" y="4" width="5" height="5">
      <path d="M27.5239 4.70959C26.4195 4.70959 25.5239 5.60514 25.5239 6.70959C25.5239 7.81437 26.4195 8.70959 27.5239 8.70959C28.6287 8.70959 29.5239 7.81437 29.5239 6.70959C29.5239 5.60514 28.6287 4.70959 27.5239 4.70959Z" fill="white"/>
    </mask>
    <g mask="url(#mask3_4203_11523)">
      <path d="M25.5239 4.70959H29.5239V8.70959H25.5239V4.70959Z" fill="black"/>
    </g>
  </g>
  <mask id="mask4_4203_11523" style="mask-type:luminance" maskUnits="userSpaceOnUse" x="17" y="15" width="9" height="3">
    <path d="M17.4995 15.5719H25.3163V17.6349H17.4995V15.5719Z" fill="white"/>
  </mask>
  <g mask="url(#mask4_4203_11523)">
    <mask id="mask5_4203_11523" style="mask-type:luminance" maskUnits="userSpaceOnUse" x="17" y="15" width="9" height="3">
      <path d="M18.5312 15.5719H24.2805C24.554 15.5719 24.8162 15.6803 25.0098 15.8739C25.2033 16.0675 25.3118 16.3297 25.3118 16.6032C25.3118 16.8767 25.2033 17.1393 25.0098 17.3325C24.8162 17.5261 24.554 17.6349 24.2805 17.6349H18.5312C18.2573 17.6349 17.9951 17.5261 17.8015 17.3325C17.6083 17.1393 17.4995 16.8767 17.4995 16.6032C17.4995 16.3297 17.6083 16.0675 17.8015 15.8739C17.9951 15.6803 18.2573 15.5719 18.5312 15.5719Z" fill="white"/>
    </mask>
    <g mask="url(#mask5_4203_11523)">
      <path d="M17.4995 15.5719H25.3084V17.6349H17.4995V15.5719Z" fill="black"/>
    </g>
  </g>
</svg>