<svg width="107" height="80" viewBox="0 0 107 80" fill="none" xmlns="http://www.w3.org/2000/svg">
<path d="M99.1259 27.946L96.1323 37.8816H94.5893C94.7319 37.4413 94.8241 37.109 94.8828 36.893C95.1847 35.9045 95.344 35.082 95.344 34.4174C95.344 33.487 94.9415 32.8889 94.1365 32.648C93.3315 32.3988 91.4028 32.2741 88.3505 32.2741H81.9439L81.3653 34.0436C79.0089 41.5202 76.3926 47.7508 73.5248 52.7518C70.6569 57.7529 67.0595 62.3136 62.7325 66.4341C58.3217 70.6957 53.3155 74.0187 47.7139 76.4112C42.1124 78.8037 36.5527 80 31.035 80C24.7962 80 19.1778 78.6791 14.1884 76.0457C9.71889 73.7113 6.23887 70.4133 3.74835 66.1516C1.24945 61.8899 0 57.1547 0 51.9294C0 45.0343 2.20541 39.5099 6.61622 35.3645C11.027 31.2191 16.8886 29.1423 24.2176 29.1423C32.427 29.1423 41.19 32.8889 50.5063 40.3904C53.609 42.891 57.9108 46.9283 63.4034 52.5109L64.6947 53.7902C66.0784 51.4559 66.7744 48.9969 66.7744 46.4133C66.7744 42.4008 65.0134 39.0779 61.4915 36.4361C57.9695 33.7944 53.3407 32.3323 47.5965 32.0249C48.2926 30.8453 48.8292 29.5244 49.2234 28.0706L78.7154 27.946C78.9335 27.2316 79.1012 26.6999 79.2186 26.3344C80.4429 22.1558 81.4407 19.1568 82.2122 17.3292C82.9921 15.5016 83.99 13.8152 85.2059 12.2783C87.4784 9.36241 90.5978 6.60436 94.5642 3.99585C98.6144 1.32918 102.053 0 104.878 0C105.432 0 106.136 0.0830737 107 0.249221C106.639 2.33437 105.818 5.5244 104.543 9.81101L104.25 10.8411H102.707C103.21 9.07996 103.453 7.85047 103.453 7.13603C103.453 5.37487 102.497 4.49429 100.585 4.49429C97.6165 4.49429 94.7319 5.59086 91.9311 7.79232C90.4636 8.97196 89.3064 10.4091 88.4763 12.0955C87.6461 13.7819 86.5224 16.9637 85.1053 21.6324L83.5204 26.9491L83.2269 27.9377H99.1176L99.1259 27.946ZM77.5331 32.2741L58.523 32.1495C61.4663 33.4704 63.8478 35.3977 65.6759 37.9398C67.5039 40.4818 68.4179 43.1402 68.4179 45.9148C68.4179 50.2264 66.7995 55.0114 63.5543 60.2534C55.6802 51.0239 48.0242 43.946 40.5862 39.028C33.1566 34.1101 26.3978 31.6511 20.3266 31.6511C15.0605 31.6511 10.7 33.3375 7.24514 36.7186C3.79028 40.0997 2.06285 44.3697 2.06285 49.5369C2.06285 57.3956 5.13197 63.8588 11.2786 68.9263C17.4252 73.9938 25.249 76.5275 34.7666 76.5275C45.3324 76.5275 54.2882 72.7394 61.6172 65.1547C68.9546 57.5701 74.2543 46.6044 77.5331 32.2658V32.2741Z" fill="#040404"/>
</svg>
