<svg width="40" height="40" viewBox="0 0 55 55" fill="none" xmlns="http://www.w3.org/2000/svg">
<path d="M20.6251 38.9583V41.25C20.6251 43.0734 21.3494 44.822 22.6387 46.1114C23.928 47.4007 25.6767 48.125 27.5001 48.125C29.3234 48.125 31.0721 47.4007 32.3614 46.1114C33.6508 44.822 34.3751 43.0734 34.3751 41.25V38.9583M22.9167 11.4583C22.9167 10.2428 23.3996 9.07697 24.2592 8.21743C25.1187 7.35789 26.2845 6.875 27.5001 6.875C28.7157 6.875 29.8814 7.35789 30.741 8.21743C31.6005 9.07697 32.0834 10.2428 32.0834 11.4583C34.7152 12.7028 36.9587 14.6399 38.5735 17.0621C40.1883 19.4844 41.1136 22.3004 41.2501 25.2083V32.0833C41.4225 33.5081 41.9271 34.8724 42.7232 36.0665C43.5193 37.2606 44.5846 38.2512 45.8334 38.9583H9.16675C10.4156 38.2512 11.4809 37.2606 12.277 36.0665C13.073 34.8724 13.5776 33.5081 13.7501 32.0833V25.2083C13.8866 22.3004 14.8118 19.4844 16.4266 17.0621C18.0415 14.6399 20.285 12.7028 22.9167 11.4583Z" stroke="black" stroke-width="2.5" stroke-linecap="round" stroke-linejoin="round"/>
</svg>
