<svg width="40" height="40" viewBox="0 0 55 55" fill="none" xmlns="http://www.w3.org/2000/svg">
<path d="M43.5418 19.9605L31.3204 10.4546C30.2479 9.62025 28.9278 9.16724 27.5689 9.16724C26.2101 9.16724 24.89 9.62025 23.8175 10.4546L11.5937 19.9605C10.8591 20.5317 10.2648 21.2633 9.85608 22.0994C9.44739 22.9354 9.23516 23.8538 9.2356 24.7844V41.2844C9.2356 42.5 9.71848 43.6658 10.578 44.5253C11.4376 45.3849 12.6034 45.8677 13.8189 45.8677H41.3189C42.5345 45.8677 43.7003 45.3849 44.5598 44.5253C45.4194 43.6658 45.9023 42.5 45.9023 41.2844V24.7844C45.9023 22.8984 45.0314 21.1177 43.5418 19.9605Z" stroke="#ACB2B9" stroke-width="2.5" stroke-linecap="round" stroke-linejoin="round"/>
<path d="M18.3333 36.6667L22.9166 33.2292L27.4999 36.6667L32.0833 33.2292L36.6666 36.6667" stroke="#ACB2B9" stroke-width="2.5" stroke-linecap="round" stroke-linejoin="round"/>
</svg>
