<svg width="40" height="40" viewBox="0 0 55 55" fill="none" xmlns="http://www.w3.org/2000/svg">
<path d="M41.5268 38.4454L42.4107 39.3293L42.4107 39.3293L41.5268 38.4454ZM31.0062 48.966L31.8897 49.8503L31.8901 49.8499L31.0062 48.966ZM46.9553 28.289L48.1813 28.5328L48.1813 28.5328L46.9553 28.289ZM38.5205 7.9263L39.2149 6.88695L39.2149 6.88695L38.5205 7.9263ZM16.4799 7.9263L17.1744 8.96564L17.1744 8.96564L16.4799 7.9263ZM8.04514 28.289L9.27113 28.0451L9.27113 28.0451L8.04514 28.289ZM13.4736 38.4454L12.5897 39.3293L12.5898 39.3294L13.4736 38.4454ZM23.9967 48.966L23.1129 49.85L23.1132 49.8503L23.9967 48.966ZM22.2401 29.6786L23.124 28.7947L23.124 28.7947L22.2401 29.6786ZM22.2401 19.1589L23.124 20.0428L23.124 20.0428L22.2401 19.1589ZM32.7598 19.1589L33.6437 18.275L33.6437 18.275L32.7598 19.1589ZM32.7598 29.6786L33.6437 30.5625L33.6437 30.5625L32.7598 29.6786ZM40.643 37.5615L30.1224 48.0821L31.8901 49.8499L42.4107 39.3293L40.643 37.5615ZM45.7293 28.0451C45.0122 31.6505 43.2422 34.9622 40.6429 37.5616L42.4107 39.3293C45.3596 36.3803 47.3677 32.6231 48.1813 28.5328L45.7293 28.0451ZM44.6715 17.3067C46.0782 20.7028 46.4464 24.4398 45.7293 28.0451L48.1813 28.5328C48.9948 24.4425 48.5772 20.2029 46.9812 16.3499L44.6715 17.3067ZM37.826 8.96564C40.8825 11.0079 43.2647 13.9106 44.6715 17.3067L46.9812 16.3499C45.3852 12.497 42.6825 9.20388 39.2149 6.88695L37.826 8.96564ZM27.5002 5.83337C31.1762 5.83337 34.7696 6.92341 37.826 8.96564L39.2149 6.88695C35.7474 4.57003 31.6706 3.33337 27.5002 3.33337V5.83337ZM17.1744 8.96564C20.2309 6.92341 23.8243 5.83337 27.5002 5.83337V3.33337C23.3298 3.33337 19.2531 4.57003 15.7855 6.88695L17.1744 8.96564ZM10.3289 17.3067C11.7357 13.9106 14.118 11.0079 17.1744 8.96564L15.7855 6.88695C12.3179 9.20388 9.61525 12.497 8.01926 16.3499L10.3289 17.3067ZM9.27113 28.0451C8.55406 24.4398 8.92218 20.7028 10.3289 17.3067L8.01926 16.3499C6.42327 20.2029 6.00563 24.4425 6.81916 28.5328L9.27113 28.0451ZM14.3575 37.5616C11.7583 34.9622 9.9882 31.6505 9.27113 28.0451L6.81916 28.5328C7.63268 32.6231 9.64083 36.3803 12.5897 39.3293L14.3575 37.5616ZM24.8804 48.082L14.3574 37.5614L12.5898 39.3294L23.1129 49.85L24.8804 48.082ZM27.5015 49.1667C26.5184 49.1667 25.5756 48.7765 24.8801 48.0817L23.1132 49.8503C24.2775 51.0134 25.8558 51.6667 27.5015 51.6667V49.1667ZM30.1228 48.0817C29.4273 48.7765 28.4845 49.1667 27.5015 49.1667V51.6667C29.1471 51.6667 30.7254 51.0134 31.8897 49.8503L30.1228 48.0817ZM18.8114 24.4187C18.8114 26.7231 19.7268 28.933 21.3562 30.5625L23.124 28.7947C21.9634 27.6341 21.3114 26.06 21.3114 24.4187H18.8114ZM21.3562 18.275C19.7268 19.9044 18.8114 22.1144 18.8114 24.4187H21.3114C21.3114 22.7774 21.9634 21.2033 23.124 20.0428L21.3562 18.275ZM27.5 15.7302C25.1956 15.7302 22.9856 16.6456 21.3562 18.275L23.124 20.0428C24.2846 18.8822 25.8586 18.2302 27.5 18.2302V15.7302ZM33.6437 18.275C32.0143 16.6456 29.8043 15.7302 27.5 15.7302V18.2302C29.1413 18.2302 30.7153 18.8822 31.8759 20.0428L33.6437 18.275ZM36.1885 24.4187C36.1885 22.1144 35.2731 19.9044 33.6437 18.275L31.8759 20.0428C33.0365 21.2033 33.6885 22.7774 33.6885 24.4187H36.1885ZM33.6437 30.5625C35.2731 28.933 36.1885 26.7231 36.1885 24.4187H33.6885C33.6885 26.06 33.0365 27.6341 31.8759 28.7947L33.6437 30.5625ZM27.5 33.1073C29.8043 33.1073 32.0143 32.1919 33.6437 30.5625L31.8759 28.7947C30.7153 29.9553 29.1413 30.6073 27.5 30.6073V33.1073ZM21.3562 30.5625C22.9856 32.1919 25.1956 33.1073 27.5 33.1073V30.6073C25.8586 30.6073 24.2846 29.9553 23.124 28.7947L21.3562 30.5625Z" fill="black"/>
</svg>
