<svg width="36" height="36" viewBox="0 0 36 36" fill="none" xmlns="http://www.w3.org/2000/svg">
<path d="M27.4362 25.3634L28.3201 26.2473L28.3201 26.2473L27.4362 25.3634ZM20.3587 32.4409L21.2421 33.3252L21.2426 33.3248L20.3587 32.4409ZM25.4137 4.83237L26.1082 3.79303L26.1082 3.79303L25.4137 4.83237ZM10.5864 4.83237L9.89199 3.79303L10.5864 4.83237ZM5.67161 10.821L4.51677 10.3426L5.67161 10.821ZM4.91212 18.5309L6.13811 18.2871L4.91212 18.5309ZM8.56398 25.3634L7.68008 26.2473L7.6802 26.2474L8.56398 25.3634ZM15.6431 32.4409L14.7594 33.3249L14.7597 33.3252L15.6431 32.4409ZM14.4615 12.3888L15.3453 13.2727L15.3453 13.2727L14.4615 12.3888ZM21.5384 19.4657L22.4222 20.3496L22.4222 20.3496L21.5384 19.4657ZM26.5523 24.4795L19.4748 31.557L21.2426 33.3248L28.3201 26.2473L26.5523 24.4795ZM29.862 18.2871C29.3954 20.6331 28.2436 22.7881 26.5523 24.4796L28.3201 26.2473C30.3611 24.2062 31.751 21.6057 32.314 18.7747L29.862 18.2871ZM29.1737 11.2994C30.0891 13.5093 30.3287 15.941 29.862 18.2871L32.314 18.7747C32.8771 15.9437 32.588 13.0094 31.4834 10.3426L29.1737 11.2994ZM24.7193 5.87171C26.7081 7.20062 28.2583 9.08946 29.1737 11.2994L31.4834 10.3426C30.3788 7.67592 28.5082 5.39664 26.1082 3.79303L24.7193 5.87171ZM18.0001 3.8335C20.3921 3.8335 22.7304 4.5428 24.7193 5.87171L26.1082 3.79303C23.7082 2.18942 20.8865 1.3335 18.0001 1.3335V3.8335ZM11.2809 5.87171C13.2698 4.5428 15.6081 3.8335 18.0001 3.8335V1.3335C15.1136 1.3335 12.292 2.18942 9.89199 3.79303L11.2809 5.87171ZM6.82645 11.2994C7.74186 9.08946 9.29202 7.20062 11.2809 5.87171L9.89199 3.79303C7.49199 5.39664 5.6214 7.67592 4.51677 10.3426L6.82645 11.2994ZM6.13811 18.2871C5.6715 15.941 5.91104 13.5093 6.82645 11.2994L4.51677 10.3426C3.41213 13.0094 3.12307 15.9437 3.68614 18.7747L6.13811 18.2871ZM9.44789 24.4796C7.75653 22.7881 6.60472 20.6331 6.13811 18.2871L3.68614 18.7747C4.2492 21.6057 5.6391 24.2062 7.68008 26.2473L9.44789 24.4796ZM16.5269 31.5569L9.44776 24.4794L7.6802 26.2474L14.7594 33.3249L16.5269 31.5569ZM18.0009 32.1668C17.448 32.1668 16.9177 31.9473 16.5266 31.5566L14.7597 33.3252C15.6196 34.1843 16.7854 34.6668 18.0009 34.6668V32.1668ZM19.4752 31.5566C19.0841 31.9473 18.5538 32.1668 18.0009 32.1668V34.6668C19.2164 34.6668 20.3822 34.1843 21.2421 33.3252L19.4752 31.5566ZM11.7458 15.9273C11.7458 17.586 12.4047 19.1767 13.5776 20.3496L15.3453 18.5818C14.6413 17.8778 14.2458 16.9229 14.2458 15.9273H11.7458ZM13.5776 11.5049C12.4047 12.6778 11.7458 14.2686 11.7458 15.9273H14.2458C14.2458 14.9316 14.6413 13.9767 15.3453 13.2727L13.5776 11.5049ZM17.9999 9.67316C16.3412 9.67316 14.7505 10.3321 13.5776 11.5049L15.3453 13.2727C16.0494 12.5687 17.0043 12.1732 17.9999 12.1732V9.67316ZM22.4222 11.5049C21.2494 10.3321 19.6586 9.67316 17.9999 9.67316V12.1732C18.9956 12.1732 19.9504 12.5687 20.6545 13.2727L22.4222 11.5049ZM24.254 15.9273C24.254 14.2686 23.5951 12.6778 22.4222 11.5049L20.6545 13.2727C21.3585 13.9767 21.754 14.9316 21.754 15.9273H24.254ZM22.4222 20.3496C23.5951 19.1767 24.254 17.586 24.254 15.9273H21.754C21.754 16.9229 21.3585 17.8778 20.6545 18.5818L22.4222 20.3496ZM17.9999 22.1814C19.6586 22.1814 21.2494 21.5225 22.4222 20.3496L20.6545 18.5818C19.9504 19.2859 18.9956 19.6814 17.9999 19.6814V22.1814ZM13.5776 20.3496C14.7505 21.5225 16.3412 22.1814 17.9999 22.1814V19.6814C17.0043 19.6814 16.0494 19.2859 15.3453 18.5818L13.5776 20.3496Z" fill="black"/>
</svg>