<svg xmlns="http://www.w3.org/2000/svg" width="34" height="34" viewBox="0 0 34 34" fill="none">
  <path d="M17 1.7002C8.54954 1.7002 1.69995 6.99223 1.69995 13.5191C1.69995 17.5782 4.34923 21.1567 8.38354 23.2851L6.6861 29.4858C6.53613 30.0338 7.16275 30.4705 7.64393 30.1529L15.0846 25.2421C15.7125 25.3027 16.3507 25.338 17 25.338C25.4498 25.338 32.2998 20.0463 32.2998 13.5191C32.2998 6.99223 25.4498 1.7002 17 1.7002Z" stroke="#ACB2B9" stroke-width="2.5"/>
  <path d="M28.5 10C30.9853 10 33 7.98528 33 5.5C33 3.01472 30.9853 1 28.5 1C26.0147 1 24 3.01472 24 5.5C24 7.98528 26.0147 10 28.5 10Z" fill="#FF5E3A" stroke="white"/>
</svg>