<svg xmlns="http://www.w3.org/2000/svg" width="40" height="40" viewBox="0 0 40 40" fill="none">
  <path d="M12.9166 14.9998C12.9166 11.0878 16.0879 7.9165 19.9999 7.9165V5.4165C14.7072 5.4165 10.4166 9.7071 10.4166 14.9998H12.9166ZM12.9166 19.5938V14.9998H10.4166V19.5938H12.9166ZM9.58325 26.6665C9.58325 25.6652 9.97407 24.7578 10.614 24.0842L8.80159 22.3622C7.73787 23.4818 7.08325 24.999 7.08325 26.6665H9.58325ZM11.6666 27.0832H9.99992V29.5832H11.6666V27.0832ZM28.3333 27.0832H11.6666V29.5832H28.3333V27.0832ZM29.9999 27.0832H28.3333V29.5832H29.9999V27.0832ZM29.3858 24.0842C30.0258 24.7578 30.4166 25.6652 30.4166 26.6665H32.9166C32.9166 24.999 32.2619 23.4818 31.1983 22.3622L29.3858 24.0842ZM27.0833 14.9998V19.5938H29.5833V14.9998H27.0833ZM19.9999 7.9165C23.9119 7.9165 27.0833 11.0878 27.0833 14.9998H29.5833C29.5833 9.7071 25.2926 5.4165 19.9999 5.4165V7.9165ZM31.1983 22.3622C30.1951 21.3063 29.5833 20.449 29.5833 19.5938H27.0833C27.0833 21.564 28.4429 23.0917 29.3858 24.0842L31.1983 22.3622ZM7.08325 26.6665C7.08325 28.2773 8.38909 29.5832 9.99992 29.5832V27.0832C9.7698 27.0832 9.58325 26.8967 9.58325 26.6665H7.08325ZM29.9999 29.5832C31.6108 29.5832 32.9166 28.2773 32.9166 26.6665H30.4166C30.4166 26.8967 30.2301 27.0832 29.9999 27.0832V29.5832ZM10.4166 19.5938C10.4166 20.449 9.80474 21.3063 8.80159 22.3622L10.614 24.0842C11.557 23.0917 12.9166 21.564 12.9166 19.5938H10.4166Z" fill="#ACB2B9"/>
  <path d="M22.996 33.1276C22.7187 33.6963 22.2854 34.1741 21.7467 34.5056C21.2079 34.837 20.586 35.0083 19.9535 34.9995C19.321 34.9906 18.704 34.802 18.1749 34.4556C17.6455 34.1093 17.2257 33.6195 16.9644 33.0435" stroke="#ACB2B9" stroke-width="2.5" stroke-linecap="round" stroke-linejoin="round"/>
  <path d="M20 5V5.5" stroke="#ACB2B9" stroke-width="3.5" stroke-linecap="round" stroke-linejoin="round"/>
</svg>