<svg width="40" height="40" viewBox="0 0 55 55" fill="none" xmlns="http://www.w3.org/2000/svg">
<path d="M14.1349 43.1956C14.7021 41.3078 15.8628 39.6531 17.4447 38.477C19.0265 37.3009 20.9454 36.6661 22.9166 36.6667H32.0833C34.057 36.666 35.9782 37.3024 37.5612 38.4812C39.1443 39.66 40.3045 41.3182 40.8695 43.2094M6.875 27.5C6.875 30.2085 7.40848 32.8905 8.44498 35.3928C9.48149 37.8952 11.0007 40.1689 12.9159 42.0841C14.8311 43.9993 17.1048 45.5185 19.6072 46.555C22.1095 47.5915 24.7915 48.125 27.5 48.125C30.2085 48.125 32.8905 47.5915 35.3928 46.555C37.8952 45.5185 40.1689 43.9993 42.0841 42.0841C43.9993 40.1689 45.5185 37.8952 46.555 35.3928C47.5915 32.8905 48.125 30.2085 48.125 27.5C48.125 24.7915 47.5915 22.1095 46.555 19.6072C45.5185 17.1048 43.9993 14.8311 42.0841 12.9159C40.1689 11.0007 37.8952 9.48149 35.3928 8.44499C32.8905 7.40848 30.2085 6.875 27.5 6.875C24.7915 6.875 22.1095 7.40848 19.6072 8.44499C17.1048 9.48149 14.8311 11.0007 12.9159 12.9159C11.0007 14.8311 9.48149 17.1048 8.44498 19.6072C7.40848 22.1095 6.875 24.7915 6.875 27.5ZM20.625 22.9167C20.625 24.74 21.3493 26.4887 22.6386 27.778C23.928 29.0673 25.6766 29.7917 27.5 29.7917C29.3234 29.7917 31.072 29.0673 32.3614 27.778C33.6507 26.4887 34.375 24.74 34.375 22.9167C34.375 21.0933 33.6507 19.3446 32.3614 18.0553C31.072 16.766 29.3234 16.0417 27.5 16.0417C25.6766 16.0417 23.928 16.766 22.6386 18.0553C21.3493 19.3446 20.625 21.0933 20.625 22.9167Z" stroke="#ACB2B9" stroke-width="2.5" stroke-linecap="round" stroke-linejoin="round"/>
</svg>
