<svg xmlns="http://www.w3.org/2000/svg" width="40" height="40" viewBox="0 0 40 40" fill="none">
<g clip-path="url(#clip0_4367_1355)">
<mask id="mask0_4367_1355" style="mask-type:luminance" maskUnits="userSpaceOnUse" x="4" y="4" width="32" height="32">
<path d="M4 4H35.9489V35.9492H4V4Z" fill="white"/>
</mask>
<g mask="url(#mask0_4367_1355)">
<mask id="mask1_4367_1355" style="mask-type:luminance" maskUnits="userSpaceOnUse" x="4" y="4" width="32" height="32">
<path d="M5.68421 4H34.2647C35.1949 4 35.9489 4.75408 35.9489 5.68421V34.265C35.9489 35.1952 35.1949 35.9492 34.2647 35.9492H5.68421C4.75376 35.9492 4 35.1952 4 34.265V5.68421C4 4.75408 4.75376 4 5.68421 4Z" fill="white"/>
</mask>
<g mask="url(#mask1_4367_1355)">
<path d="M9 5.275H30.9489C33.0062 5.275 34.6739 6.94274 34.6739 9V30.9492C34.6739 33.0065 33.0062 34.6742 30.9489 34.6742H9C6.94274 34.6742 5.275 33.0065 5.275 30.9492V9C5.275 6.94274 6.94274 5.275 9 5.275Z" stroke="black" stroke-width="2.55"/>
</g>
</g>
<path d="M25.4548 20.416L20.0002 25.8182L14.5457 20.416C14.1859 20.0659 13.9025 19.6451 13.7134 19.1801C13.5242 18.7151 13.4334 18.216 13.4466 17.7142C13.4598 17.2123 13.5768 16.7187 13.7902 16.2643C14.0035 15.8099 14.3087 15.4046 14.6864 15.0739C15.0641 14.7432 15.5062 14.4944 15.9848 14.3429C16.4634 14.1915 16.9682 14.1408 17.4674 14.1941C17.9666 14.2473 18.4493 14.4034 18.8852 14.6523C19.3211 14.9013 19.7008 15.2379 20.0002 15.6408C20.301 15.2408 20.6811 14.9072 21.1167 14.6608C21.5523 14.4145 22.034 14.2607 22.5318 14.2091C23.0296 14.1576 23.5326 14.2093 24.0095 14.361C24.4864 14.5128 24.9268 14.7614 25.3032 15.0912C25.6796 15.421 25.9837 15.825 26.1969 16.2778C26.4099 16.7306 26.5273 17.2225 26.5416 17.7227C26.5557 18.223 26.4666 18.7208 26.2796 19.1849C26.0926 19.6491 25.8118 20.0697 25.4548 20.4204" stroke="black" stroke-width="2.55" stroke-linecap="round" stroke-linejoin="round"/>
<mask id="mask2_4367_1355" style="mask-type:luminance" maskUnits="userSpaceOnUse" x="25" y="5" width="10" height="10">
<path d="M28 7.08863H26.725V8.36363V12.2327V13.5077H28H31.8691H33.1441V12.2327V8.36363V7.08863H31.8691H28Z" fill="white" stroke="black" stroke-width="2.55"/>
</mask>
<g mask="url(#mask2_4367_1355)">
<mask id="mask3_4367_1355" style="mask-type:luminance" maskUnits="userSpaceOnUse" x="25" y="5" width="10" height="10">
<path d="M29.9345 7.08863C28.1621 7.08863 26.725 8.5257 26.725 10.2982C26.725 12.071 28.1622 13.5077 29.9345 13.5077C31.7073 13.5077 33.1441 12.0709 33.1441 10.2982C33.1441 8.52581 31.7074 7.08863 29.9345 7.08863Z" fill="white" stroke="black" stroke-width="2.55"/>
</mask>
<g mask="url(#mask3_4367_1355)">
<path d="M28 7.08863H26.725V8.36363V12.2327V13.5077H28H31.8691H33.1441V12.2327V8.36363V7.08863H31.8691H28Z" fill="black" stroke="black" stroke-width="2.55"/>
</g>
</g>
</g>
<defs>
<clipPath id="clip0_4367_1355">
<rect width="32" height="32" fill="white" transform="translate(4 4)"/>
</clipPath>
</defs>
</svg>