<svg width="82" height="82" viewBox="0 0 82 82" fill="none" xmlns="http://www.w3.org/2000/svg">
<mask id="mask0_4214_1302" style="mask-type:luminance" maskUnits="userSpaceOnUse" x="8" y="15" width="66" height="52">
<path d="M8.12207 15.8667H73.8779V66.1334H8.12207V15.8667Z" fill="white"/>
</mask>
<g mask="url(#mask0_4214_1302)">
<path d="M56.3479 50.1705C56.2751 50.0978 56.2751 49.9523 56.2751 49.8067V35.9143C56.2751 27.9862 50.2378 21.5126 42.4548 20.7125V17.3666C42.4548 16.5666 41.8 15.9117 41 15.9117C40.2 15.9117 39.5451 16.5666 39.5451 17.3666V20.7125C31.835 21.4398 25.7248 27.9862 25.7248 35.9143V49.8795C25.7248 50.025 25.6521 50.0978 25.5793 50.1705L21.9424 53.8072C21.2878 54.462 20.9968 55.262 20.9968 56.2076V57.2986C20.9968 59.117 22.5244 60.6446 24.3428 60.6446H34.5264C35.0354 63.6995 37.7268 66.0996 41 66.0996C44.2732 66.0996 46.9646 63.7719 47.4739 60.6446H57.6572C59.4755 60.6446 61.0031 59.117 61.0031 57.2986V56.2076C61.0031 55.3348 60.6394 54.462 60.0576 53.8072L56.3479 50.1705ZM41 63.1902C39.3996 63.1902 38.0178 62.0991 37.5813 60.6443H44.4914C43.9824 62.0991 42.6003 63.1902 41 63.1902ZM58.0938 57.2986C58.0938 57.5169 57.8755 57.7349 57.6572 57.7349H24.3428C24.1248 57.7349 23.9065 57.5169 23.9065 57.2986V56.2076C23.9065 56.0621 23.9793 55.9893 24.052 55.9166L27.6887 52.2799C28.3435 51.6251 28.6345 50.825 28.6345 49.8795V35.9143C28.6345 29.1497 34.1626 23.5492 41 23.5492C47.8374 23.5492 53.3657 29.0769 53.3657 35.9143V49.8795C53.3657 50.7523 53.7292 51.6251 54.3113 52.2799L57.9482 55.9166C58.021 55.9893 58.0938 56.1348 58.0938 56.2076V57.2986ZM21.0696 48.6429C20.7785 48.934 20.4151 49.0795 20.0513 49.0795C19.6875 49.0795 19.324 48.934 19.033 48.6429C16.7053 46.3156 15.396 43.1879 15.396 39.9147C15.396 36.6416 16.7053 33.5139 19.033 31.1863C19.6147 30.6045 20.4878 30.6045 21.0696 31.1863C21.6516 31.7683 21.6516 32.6411 21.0696 33.2229C19.2512 35.0415 18.3054 37.3688 18.3054 39.9147C18.3054 42.4604 19.324 44.788 21.0696 46.6063C21.6516 47.1884 21.6516 48.0612 21.0696 48.6429ZM15.9053 51.7706C16.4871 52.3526 16.4871 53.2254 15.9053 53.8072C15.6143 54.0982 15.2505 54.2437 14.8867 54.2437C14.5232 54.2437 14.1594 54.0982 13.8684 53.8072C10.1587 50.0978 8.12207 45.1518 8.12207 39.9147C8.12207 34.6777 10.1587 29.7317 13.8684 26.022C14.4505 25.4402 15.3232 25.4402 15.9053 26.022C16.4871 26.6041 16.4871 27.4769 15.9053 28.0586C12.7773 31.1863 11.0318 35.405 11.0318 39.9147C11.0318 44.4242 12.7773 48.5702 15.9053 51.7706ZM62.967 48.6429C62.6763 48.934 62.3125 49.0795 61.9487 49.0795C61.5852 49.0795 61.2214 48.934 60.9304 48.6429C60.3486 48.0612 60.3486 47.1884 60.9304 46.6063C64.6401 42.8969 64.6401 36.9326 60.9304 33.2229C60.3486 32.6411 60.3486 31.7683 60.9304 31.1863C61.5124 30.6045 62.3852 30.6045 62.967 31.1863C67.7678 35.9871 67.7678 43.8424 62.967 48.6429ZM73.8779 39.9147C73.8779 45.1518 71.8413 50.0978 68.1316 53.8072C67.8405 54.0982 67.4771 54.2437 67.1133 54.2437C66.7495 54.2437 66.3857 54.0982 66.095 53.8072C65.5129 53.2254 65.5129 52.3526 66.095 51.7706C69.2226 48.6429 70.9685 44.4242 70.9685 39.9147C70.9685 35.405 69.2226 31.259 66.095 28.0586C65.5129 27.4769 65.5129 26.6041 66.095 26.022C66.6767 25.4402 67.5495 25.4402 68.1316 26.022C71.8413 29.7317 73.8779 34.6777 73.8779 39.9147Z" fill="black"/>
</g>
</svg>
