<svg width="62" height="62" viewBox="0 0 82 82" fill="none" xmlns="http://www.w3.org/2000/svg">
<g clip-path="url(#clip0_4216_356)">
<mask id="mask0_4216_356" style="mask-type:luminance" maskUnits="userSpaceOnUse" x="8" y="8" width="66" height="66">
<path d="M8 18C8 12.4772 12.4772 8 18 8H63.8947C69.4175 8 73.8947 12.4772 73.8947 18V63.8953C73.8947 69.4181 69.4175 73.8953 63.8947 73.8953H18C12.4771 73.8953 8 69.4182 8 63.8953V18Z" fill="white"/>
</mask>
<g mask="url(#mask0_4216_356)">
<mask id="mask1_4216_356" style="mask-type:luminance" maskUnits="userSpaceOnUse" x="8" y="8" width="66" height="66">
<path d="M11.4737 8H70.421C72.3394 8 73.8947 9.55528 73.8947 11.4737V70.4216C73.8947 72.3401 72.3394 73.8953 70.421 73.8953H11.4737C9.55462 73.8953 8 72.3401 8 70.4216V11.4737C8 9.55528 9.55462 8 11.4737 8Z" fill="white"/>
</mask>
<g mask="url(#mask1_4216_356)">
<path d="M18 10H63.8947C68.3129 10 71.8947 13.5817 71.8947 18V63.8953C71.8947 68.3136 68.3129 71.8953 63.8947 71.8953H18C13.5817 71.8953 10 68.3136 10 63.8953V18C10 13.5817 13.5817 10 18 10Z" stroke="black" stroke-width="4"/>
</g>
</g>
<path d="M52.2496 41.8581L40.9996 53.0001L29.7496 41.8581C29.0076 41.136 28.4231 40.2681 28.0329 39.309C27.6428 38.35 27.4554 37.3205 27.4827 36.2855C27.51 35.2504 27.7513 34.2323 28.1913 33.2951C28.6314 32.3579 29.2608 31.522 30.0398 30.8399C30.8189 30.158 31.7307 29.6446 32.7178 29.3323C33.705 29.02 34.7461 28.9155 35.7757 29.0253C36.8052 29.1351 37.8009 29.4569 38.6999 29.9705C39.599 30.484 40.382 31.1781 40.9996 32.0091C41.6199 31.1841 42.4038 30.4961 43.3023 29.988C44.2007 29.4799 45.1943 29.1628 46.221 29.0564C47.2476 28.95 48.2852 29.0567 49.2688 29.3697C50.2523 29.6827 51.1606 30.1954 51.9369 30.8756C52.7133 31.5559 53.3406 32.389 53.7803 33.3229C54.2197 34.2568 54.4616 35.2714 54.4911 36.3032C54.5204 37.3349 54.3365 38.3616 53.9508 39.3189C53.5652 40.2763 52.9859 41.1438 52.2496 41.8671" stroke="black" stroke-width="4" stroke-linecap="round" stroke-linejoin="round"/>
<mask id="mask2_4216_356" style="mask-type:luminance" maskUnits="userSpaceOnUse" x="55" y="15" width="13" height="12">
<path d="M57.5 16H56.5V17V24.9799V25.9799H57.5H65.4799H66.4799V24.9799V17V16H65.4799H57.5Z" fill="white" stroke="black" stroke-width="2"/>
</mask>
<g mask="url(#mask2_4216_356)">
<mask id="mask3_4216_356" style="mask-type:luminance" maskUnits="userSpaceOnUse" x="55" y="15" width="13" height="12">
<path d="M61.4899 16C58.7343 16 56.5 18.2343 56.5 20.9899C56.5 23.7463 58.7344 25.9799 61.4899 25.9799C64.2462 25.9799 66.4799 23.7463 66.4799 20.9899C66.4799 18.2344 64.2463 16 61.4899 16Z" fill="white" stroke="black" stroke-width="2"/>
</mask>
<g mask="url(#mask3_4216_356)">
<path d="M57.5 16H56.5V17V24.9799V25.9799H57.5H65.4799H66.4799V24.9799V17V16H65.4799H57.5Z" fill="black" stroke="black" stroke-width="2"/>
</g>
</g>
</g>
<defs>
<clipPath id="clip0_4216_356">
<rect width="66" height="66" fill="white" transform="translate(8 8)"/>
</clipPath>
</defs>
</svg>
