<svg xmlns="http://www.w3.org/2000/svg" width="62" height="62" viewBox="0 0 82 82" fill="none">
<rect x="8.5" y="8.5" width="65" height="65" rx="8.5" stroke="black" stroke-width="3"/>
<path d="M9 66C9 66 18.7827 39.2924 29.3894 44.0302C33.8334 46.0153 37.885 53.2807 37.885 53.2807C37.885 53.2807 47.0131 27.7924 58.8407 30.1546C66.3632 31.657 73 44.0302 73 44.0302" stroke="black" stroke-width="3" stroke-linecap="round"/>
<path d="M30.6438 34.0435L31.7045 35.1042L31.7045 35.1041L30.6438 34.0435ZM27.1713 37.516L28.2314 38.5772L28.232 38.5767L27.1713 37.516ZM24.8577 37.516L23.7971 38.5768L23.7975 38.5772L24.8577 37.516ZM21.3843 34.0435L20.3236 35.1041L20.3238 35.1043L21.3843 34.0435ZM29.5832 32.9828L26.1107 36.4553L28.232 38.5767L31.7045 35.1042L29.5832 32.9828ZM26.1112 36.4548C26.0855 36.4804 26.0508 36.4948 26.0145 36.4948V39.4948C26.8459 39.4948 27.6433 39.1648 28.2314 38.5772L26.1112 36.4548ZM26.0145 36.4948C25.9782 36.4948 25.9434 36.4804 25.9178 36.4548L23.7975 38.5772C24.3857 39.1648 25.1831 39.4948 26.0145 39.4948V36.4948ZM25.9182 36.4552L22.4449 32.9827L20.3238 35.1043L23.7971 38.5768L25.9182 36.4552ZM22.445 32.9829C21.7392 32.277 21.2585 31.3776 21.0638 30.3986L18.1214 30.9838C18.4319 32.5448 19.1983 33.9787 20.3236 35.1041L22.445 32.9829ZM21.0638 30.3986C20.869 29.4195 20.969 28.4047 21.351 27.4824L18.5794 26.3343C17.9703 27.8047 17.8109 29.4228 18.1214 30.9838L21.0638 30.3986ZM21.351 27.4824C21.7331 26.5602 22.38 25.7719 23.21 25.2173L21.5433 22.7229C20.2199 23.6071 19.1885 24.8639 18.5794 26.3343L21.351 27.4824ZM23.21 25.2173C24.04 24.6627 25.0158 24.3667 26.0141 24.3667V21.3667C24.4225 21.3667 22.8667 21.8387 21.5433 22.7229L23.21 25.2173ZM26.0141 24.3667C27.0123 24.3667 27.9882 24.6627 28.8182 25.2173L30.4849 22.7229C29.1615 21.8387 27.6057 21.3667 26.0141 21.3667V24.3667ZM28.8182 25.2173C29.6482 25.7719 30.2951 26.5602 30.6771 27.4824L33.4488 26.3343C32.8397 24.8639 31.8082 23.6071 30.4849 22.7229L28.8182 25.2173ZM30.6771 27.4824C31.0592 28.4047 31.1591 29.4195 30.9644 30.3986L33.9068 30.9838C34.2172 29.4228 34.0579 27.8047 33.4488 26.3343L30.6771 27.4824ZM30.9644 30.3986C30.7697 31.3776 30.289 32.277 29.5831 32.9829L31.7045 35.1041C32.8299 33.9787 33.5963 32.5448 33.9068 30.9838L30.9644 30.3986Z" fill="black"/>
</svg>