<svg width="30" height="30" viewBox="0 0 30 30" fill="none" xmlns="http://www.w3.org/2000/svg">
<path fill-rule="evenodd" clip-rule="evenodd" d="M18.2624 6.82963C17.5172 7.80611 16.2656 8.53847 15.2672 8.53847C15.1547 8.53847 15.0422 8.5232 14.9719 8.50795C14.9578 8.44692 14.9297 8.26383 14.9297 8.08073C14.9297 6.82963 15.5062 5.60903 16.139 4.83089C16.9406 3.80865 18.2765 3.04577 19.3875 3C19.4157 3.13732 19.4296 3.30515 19.4296 3.47298C19.4296 4.70884 18.9375 5.94469 18.2624 6.82963ZM13.372 26.5452C12.8709 26.7787 12.3959 27 11.7516 27C10.3734 27 9.41719 25.6268 8.32032 23.9485C7.04063 21.9651 6 18.8983 6 15.9994C6 11.3306 8.79844 8.85887 11.5547 8.85887C12.3592 8.85887 13.0942 9.17891 13.7478 9.46349C14.2711 9.69129 14.7421 9.89637 15.1547 9.89637C15.5126 9.89637 15.9587 9.70513 16.4786 9.48223C17.2047 9.17091 18.0749 8.79783 19.05 8.79783C19.6688 8.79783 21.9328 8.85887 23.4234 11.178C23.4149 11.1852 23.3967 11.1983 23.3702 11.2173C23.0034 11.48 21.0469 12.8813 21.0469 15.7552C21.0469 19.3103 23.9016 20.5765 24 20.6071C23.9975 20.614 23.9917 20.6335 23.9824 20.6647C23.8886 20.9797 23.4412 22.482 22.4813 24.0095C21.5391 25.4743 20.5407 26.9695 19.05 26.9695C18.3153 26.9695 17.8472 26.7445 17.3638 26.5123C16.848 26.2644 16.3148 26.0083 15.4219 26.0083C14.5241 26.0083 13.9317 26.2843 13.372 26.5452Z" fill="black"/>
</svg>
