<svg width="30" height="30" viewBox="0 0 30 30" fill="none" xmlns="http://www.w3.org/2000/svg">
<path fill-rule="evenodd" clip-rule="evenodd" d="M25.8 15.2562C25.8 14.4585 25.7284 13.6915 25.5955 12.9551H15V17.3067H21.0545C20.7937 18.713 20.0011 19.9045 18.8096 20.7022V23.525H22.4455C24.5727 21.5665 25.8 18.6823 25.8 15.2562Z" fill="#4285F4"/>
<path fill-rule="evenodd" clip-rule="evenodd" d="M14.9998 26.2492C18.0373 26.2492 20.5838 25.2418 22.4451 23.5236L18.8094 20.7008C17.802 21.3758 16.5134 21.7747 14.9998 21.7747C12.0696 21.7747 9.58948 19.7957 8.70481 17.1367H4.94629V20.0515C6.79743 23.7281 10.602 26.2492 14.9998 26.2492Z" fill="#34A853"/>
<path fill-rule="evenodd" clip-rule="evenodd" d="M8.70511 17.137C8.48011 16.462 8.35227 15.741 8.35227 14.9995C8.35227 14.258 8.48011 13.537 8.70511 12.862V9.94727H4.94659C4.18466 11.466 3.75 13.1843 3.75 14.9995C3.75 16.8149 4.18466 18.533 4.94659 20.0518L8.70511 17.137Z" fill="#FBBC05"/>
<path fill-rule="evenodd" clip-rule="evenodd" d="M14.9998 8.22444C16.6514 8.22444 18.1344 8.79205 19.3003 9.90681L22.527 6.68011C20.5786 4.86477 18.0321 3.75 14.9998 3.75C10.602 3.75 6.79743 6.27102 4.94629 9.94772L8.70481 12.8625C9.58948 10.2034 12.0696 8.22444 14.9998 8.22444Z" fill="#EA4335"/>
</svg>
