<svg width="25" height="25" viewBox="0 0 25 25" fill="none" xmlns="http://www.w3.org/2000/svg">
<path fill-rule="evenodd" clip-rule="evenodd" d="M14.157 22.8981L19.1293 17.9258C20.4404 16.6147 21.3332 14.9442 21.6949 13.1257C22.0566 11.3071 21.8709 9.42213 21.1613 7.7091C20.4517 5.99607 19.2501 4.53193 17.7084 3.50181C16.1667 2.4717 14.3542 1.92188 12.5 1.92188C10.6458 1.92188 8.83328 2.4717 7.29158 3.50181C5.74988 4.53193 4.54826 5.99607 3.83868 7.7091C3.12909 9.42213 2.94341 11.3071 3.30511 13.1257C3.6668 14.9442 4.55964 16.6147 5.8707 17.9258L10.8441 22.8981C11.2836 23.3371 11.8794 23.5837 12.5006 23.5837C13.1218 23.5837 13.7176 23.3371 14.157 22.8981ZM8.98437 11.2966C8.98437 12.229 9.35476 13.1232 10.0141 13.7825C10.6734 14.4418 11.5676 14.8122 12.5 14.8122C13.4324 14.8122 14.3266 14.4418 14.9859 13.7825C15.6452 13.1232 16.0156 12.229 16.0156 11.2966C16.0156 10.3642 15.6452 9.46997 14.9859 8.81066C14.3266 8.15135 13.4324 7.78096 12.5 7.78096C11.5676 7.78096 10.6734 8.15135 10.0141 8.81066C9.35476 9.46997 8.98437 10.3642 8.98437 11.2966Z" fill="black"/>
</svg>
