<svg width="20" height="20" viewBox="0 0 20 20" fill="none" xmlns="http://www.w3.org/2000/svg">
<path d="M9.84844 7.89844C8.61533 7.89844 7.61353 8.90021 7.61353 10.1333C7.61353 11.3664 8.61533 12.367 9.84844 12.367C11.0816 12.367 12.0833 11.3664 12.0833 10.1333C12.0833 8.90017 11.0816 7.89844 9.84844 7.89844Z" fill="#3D4248"/>
<path d="M18.5568 9.45241C16.5984 6.90545 14.1896 4.54839 9.854 4.54622H9.85344H9.85288C9.85288 4.54514 9.8496 4.54514 9.84851 4.54622C9.84851 4.54622 9.84579 4.54622 9.84471 4.54622C9.84415 4.54622 9.84415 4.54622 9.84415 4.54622H9.84359C9.84303 4.54622 9.84303 4.54622 9.84303 4.54622C5.5075 4.54842 3.09861 6.90549 1.14033 9.45241C0.83213 9.85398 0.83213 10.4127 1.14033 10.8143C3.09861 13.3612 5.50753 15.7183 9.84314 15.7205C9.84314 15.7205 9.84314 15.7205 9.84369 15.7205H9.84425C9.84425 15.7205 9.84425 15.7205 9.84481 15.7205H9.84537C9.84593 15.7205 9.84865 15.7205 9.84865 15.7205C9.84921 15.7205 9.84974 15.7205 9.85089 15.7205H9.8519H9.85246H9.85302H9.85358H9.85414C9.85794 15.7205 9.86178 15.7205 9.86615 15.7205C9.87107 15.7194 9.87596 15.7194 9.88088 15.7205C14.199 15.7087 16.6024 13.3557 18.5569 10.8143C18.865 10.4127 18.865 9.85398 18.5568 9.45241ZM9.85183 13.4856H9.8512H9.85078H9.85015H9.84907H9.84855C9.84747 13.4856 9.84628 13.4856 9.84628 13.4856H9.84579C9.84579 13.4856 9.84579 13.4856 9.84523 13.4856C7.99872 13.4834 6.49617 11.9797 6.49617 10.1333C6.49617 8.28697 7.99872 6.78323 9.84523 6.78107C9.84624 6.78107 9.84796 6.78107 9.85015 6.78107H9.8518C11.6982 6.78327 13.2008 8.28697 13.2008 10.1333C13.2008 11.9797 11.6983 13.4834 9.85183 13.4856Z" fill="#3D4248"/>
</svg>
