<svg width="20" height="20" viewBox="0 0 20 20" fill="none" xmlns="http://www.w3.org/2000/svg">
<path d="M17.4237 2.45034C17.2043 2.23075 16.917 2.12109 16.6298 2.12109C16.3423 2.12109 16.0551 2.23075 15.8359 2.45034L2.36057 15.9253C1.9218 16.364 1.9218 17.0745 2.36057 17.5132C2.57988 17.7325 2.86719 17.8421 3.15447 17.8421C3.44189 17.8421 3.72906 17.7325 3.94837 17.5132L17.4237 4.03815C17.8624 3.59953 17.8624 2.88868 17.4237 2.45034Z" fill="#3D4248"/>
<path d="M3.48132 13.2169L6.54089 10.1573C6.53875 10.0981 6.52342 10.0422 6.52342 9.98185C6.52342 8.12649 8.03336 6.61517 9.88887 6.61296C9.88989 6.61187 9.89217 6.61187 9.89441 6.61296C9.89441 6.61296 9.89441 6.61296 9.89543 6.61296C9.95466 6.61296 10.0095 6.62721 10.0675 6.63051L12.0832 4.61503C11.4065 4.47028 10.6948 4.36719 9.89761 4.36719C9.89761 4.36719 9.89761 4.36719 9.89652 4.36719C9.89543 4.36719 9.89441 4.36719 9.89213 4.36719C9.89213 4.36719 9.88989 4.36719 9.88775 4.36719C9.88666 4.36719 9.88666 4.36719 9.88666 4.36719C5.52982 4.36943 3.10849 6.73799 1.14111 9.29732C0.831868 9.70114 0.831868 10.2626 1.14111 10.6661C1.83975 11.5751 2.60186 12.4537 3.48132 13.2169Z" fill="#3D4248"/>
<path d="M18.6432 9.29718C17.9446 8.38843 17.1824 7.50978 16.303 6.74658L13.2434 9.80623C13.2456 9.86546 13.2609 9.92136 13.2609 9.98168C13.2609 11.837 11.751 13.3481 9.89547 13.3506C9.89445 13.3506 9.89445 13.3506 9.89445 13.3506C9.89445 13.3506 9.8933 13.3506 9.89217 13.3506C9.89108 13.3506 9.88993 13.3506 9.88993 13.3506C9.88993 13.3506 9.88993 13.3506 9.88891 13.3506C9.82968 13.3506 9.77487 13.336 9.71669 13.333L7.70117 15.3485C8.37781 15.4932 9.08953 15.5963 9.88673 15.5963C9.88673 15.5963 9.88673 15.5963 9.88782 15.5963H9.88891C9.88993 15.5963 9.89221 15.5963 9.89221 15.5963C9.89221 15.5963 9.89329 15.5963 9.89449 15.5963C9.89449 15.5963 9.89449 15.5963 9.89551 15.5963H9.89659C9.89768 15.5963 9.89768 15.5963 9.89768 15.5963C9.90098 15.5963 9.90537 15.5963 9.90975 15.5963C9.91414 15.5953 9.91852 15.5953 9.92512 15.5963C14.2634 15.5843 16.6792 13.2201 18.6433 10.666C18.9524 10.2624 18.9524 9.70099 18.6432 9.29718Z" fill="#3D4248"/>
</svg>
