<svg width="24" height="24" viewBox="0 0 24 24" fill="none" xmlns="http://www.w3.org/2000/svg">
<path d="M10.3335 12.833C10.6914 13.3114 11.148 13.7073 11.6723 13.9938C12.1966 14.2802 12.7764 14.4506 13.3724 14.4933C13.9683 14.5359 14.5665 14.45 15.1263 14.2411C15.6861 14.0323 16.1944 13.7055 16.6168 13.283L19.1168 10.783C19.8758 9.99714 20.2958 8.94463 20.2863 7.85214C20.2768 6.75965 19.8386 5.7146 19.0661 4.94207C18.2936 4.16953 17.2485 3.73133 16.156 3.72184C15.0635 3.71234 14.011 4.13232 13.2252 4.89131L11.7918 6.31631" stroke="black" stroke-width="2" stroke-linecap="round" stroke-linejoin="round"/>
<path d="M13.6669 11.167C13.309 10.6886 12.8524 10.2927 12.3281 10.0062C11.8037 9.71977 11.2239 9.54942 10.628 9.50674C10.032 9.46406 9.43384 9.55004 8.87404 9.75887C8.31424 9.96769 7.8059 10.2945 7.3835 10.717L4.8835 13.217C4.1245 14.0029 3.70453 15.0554 3.71402 16.1479C3.72352 17.2403 4.16172 18.2854 4.93425 19.0579C5.70679 19.8305 6.75184 20.2687 7.84433 20.2782C8.93681 20.2877 9.98932 19.8677 10.7752 19.1087L12.2002 17.6837" stroke="black" stroke-width="2" stroke-linecap="round" stroke-linejoin="round"/>
</svg>
