<svg width="50" height="50" viewBox="0 0 50 50" fill="none" xmlns="http://www.w3.org/2000/svg">
<g clip-path="url(#clip0_2136_7127)">
<path d="M50 25C50 11.1929 38.8071 0 25 0C11.1929 0 0 11.1929 0 25C0 37.4777 9.14286 47.8214 21.0937 49.6964V32.2268H14.7455V25H21.0937V19.492C21.0937 13.2268 24.8259 9.76607 30.5366 9.76607C33.2723 9.76607 36.133 10.2536 36.133 10.2536V16.4063H32.9812C29.875 16.4063 28.9062 18.3339 28.9062 20.3107V25H35.8402L34.7312 32.2268H28.9062V49.6964C40.858 47.8214 50 37.4777 50 25Z" fill="#1877F2"/>
<path d="M34.7322 32.2268L35.8394 25H28.9063V20.3108C28.9063 18.3331 29.8751 16.4063 32.9804 16.4063H36.1322V10.2545C36.1322 10.2545 33.2724 9.76611 30.5367 9.76611C24.826 9.76611 21.0938 13.2268 21.0938 19.492V25H14.7456V32.2268H21.0938V49.6965C23.6821 50.1029 26.318 50.1029 28.9063 49.6965V32.2268H34.7313H34.7322Z" fill="white"/>
</g>
<defs>
<clipPath id="clip0_2136_7127">
<rect width="50" height="50" fill="white"/>
</clipPath>
</defs>
</svg>
