<svg width="50" height="50" viewBox="0 0 50 50" fill="none" xmlns="http://www.w3.org/2000/svg">
<g clip-path="url(#clip0_4110_8811)">
<path d="M49.2766 30.7241C52.4409 17.3169 44.1375 3.88299 30.7303 0.718601C17.3231 -2.44579 3.88914 5.85766 0.724751 19.2649C-2.43964 32.6721 5.86381 46.106 19.271 49.2704C32.6782 52.4348 46.1122 44.1313 49.2766 30.7241Z" fill="url(#paint0_linear_4110_8811)"/>
<path d="M19 24.9825C19 23.7947 19.3519 22.6335 20.0112 21.6459C20.6705 20.6582 21.6075 19.8885 22.7039 19.4339C23.8003 18.9793 25.0067 18.8604 26.1705 19.0921C27.3344 19.3239 28.4035 19.8959 29.2426 20.7358C30.0818 21.5757 30.6532 22.6458 30.8847 23.8109C31.1162 24.9759 30.9974 26.1835 30.5433 27.2809C30.0892 28.3783 29.3201 29.3163 28.3334 29.9762C27.3467 30.6361 26.1867 30.9884 25 30.9884C23.4087 30.9884 21.8826 30.3556 20.7574 29.2293C19.6321 28.103 19 26.5754 19 24.9825ZM15.7558 24.9825C15.7558 26.8242 16.3014 28.6244 17.3235 30.1556C18.3457 31.6869 19.7985 32.8804 21.4983 33.5851C23.1981 34.2899 25.0685 34.4743 26.8729 34.115C28.6774 33.7557 30.3349 32.8689 31.6359 31.5667C32.9368 30.2644 33.8228 28.6053 34.1817 26.7991C34.5407 24.9929 34.3564 23.1207 33.6524 21.4192C32.9483 19.7178 31.756 18.2636 30.2262 17.2404C28.6965 16.2173 26.898 15.6712 25.0581 15.6712C22.6011 15.6866 20.2499 16.6744 18.518 18.4189C16.786 20.1635 15.8139 22.5231 15.814 24.9825H15.7558ZM32.4535 15.3569C32.4512 15.7861 32.5764 16.2063 32.8131 16.564C33.0499 16.9218 33.3876 17.2011 33.7832 17.3664C34.1789 17.5317 34.6147 17.5756 35.0353 17.4924C35.456 17.4092 35.8424 17.2028 36.1456 16.8994C36.4487 16.5959 36.655 16.2091 36.738 15.788C36.8211 15.367 36.7773 14.9308 36.6122 14.5347C36.447 14.1387 36.168 13.8007 35.8106 13.5637C35.4531 13.3267 35.0334 13.2014 34.6047 13.2037C34.0341 13.2037 33.487 13.4305 33.0836 13.8344C32.6801 14.2382 32.4535 14.7859 32.4535 15.3569ZM17.7326 39.6479C16.5896 39.6323 15.4574 39.4237 14.3837 39.031C13.6051 38.7346 12.8993 38.2742 12.314 37.6809C11.716 37.0993 11.2552 36.3915 10.9651 35.6091C10.5728 34.5344 10.3645 33.4011 10.3488 32.257C10.2558 30.3598 10.2442 29.7895 10.2442 24.9825C10.2442 20.1756 10.2442 19.6052 10.3488 17.6964C10.3626 16.5559 10.5711 15.4262 10.9651 14.356C11.266 13.5791 11.7255 12.8735 12.3141 12.2843C12.9027 11.6951 13.6076 11.2353 14.3837 10.934C15.4546 10.5255 16.5869 10.3012 17.7326 10.2706C19.6279 10.2706 20.1977 10.2706 25 10.2706C29.8023 10.2706 30.3721 10.2706 32.2791 10.3754C33.4185 10.3892 34.5471 10.5978 35.6163 10.9922C36.3924 11.2935 37.0973 11.7533 37.6859 12.3425C38.2745 12.9317 38.734 13.6373 39.0349 14.4142C39.4289 15.4844 39.6374 16.6141 39.6512 17.7546C39.7442 19.6634 39.7558 20.2221 39.7558 25.0407C39.7558 29.8594 39.7558 30.418 39.6512 32.3152C39.6355 33.4593 39.4272 34.5926 39.0349 35.6673C38.7448 36.4497 38.284 37.1575 37.686 37.7391C37.1007 38.3324 36.3949 38.7928 35.6163 39.0892C34.5471 39.4837 33.4185 39.6923 32.2791 39.7061C30.3721 39.7876 29.8023 39.8109 25 39.8109C20.1977 39.8109 19.6279 39.8109 17.7326 39.7061V39.6479ZM17.5814 7.0582C16.0849 7.10662 14.6071 7.40561 13.2093 7.94277C12.0191 8.40701 10.9371 9.11164 10.0309 10.0128C9.12467 10.9139 8.41355 11.9922 7.94186 13.1804C7.4211 14.5823 7.13813 16.0615 7.10465 17.5567C7.02325 19.4772 7 20.0824 7 24.9825C7 29.8826 7 30.4879 7.10465 32.4083C7.13943 33.9035 7.42236 35.3824 7.94186 36.7847C8.40953 37.9794 9.11885 39.0645 10.0253 39.9718C10.9317 40.8791 12.0157 41.5891 13.2093 42.0572C14.6098 42.5785 16.0876 42.8617 17.5814 42.8952C19.5 42.9767 20.1163 43 25 43C29.8837 43 30.5 43 32.4186 42.8952C33.9124 42.8617 35.3902 42.5785 36.7907 42.0572C37.9843 41.5891 39.0683 40.8791 39.9747 39.9718C40.8812 39.0645 41.5905 37.9794 42.0581 36.7847C42.5802 35.3751 42.8631 33.8881 42.8953 32.3851C42.9767 30.4646 43 29.8477 43 24.9593C43 20.0708 43 19.4539 42.8953 17.5335C42.8619 16.0382 42.5789 14.559 42.0581 13.1571C41.5838 11.9732 40.8715 10.8994 39.9654 10.0024C39.0593 9.10546 37.9787 8.40441 36.7907 7.94277C35.3902 7.42151 33.9124 7.13827 32.4186 7.10475C30.5 7.02328 29.8953 7 25 7C20.1047 7 19.5 7 17.5814 7.10475V7.0582Z" fill="white"/>
</g>
<defs>
<linearGradient id="paint0_linear_4110_8811" x1="8.96848" y1="44.1044" x2="41.0314" y2="5.89644" gradientUnits="userSpaceOnUse">
<stop stop-color="#FBE18A"/>
<stop offset="0.21" stop-color="#FCBB45"/>
<stop offset="0.38" stop-color="#F75274"/>
<stop offset="0.52" stop-color="#D53692"/>
<stop offset="0.74" stop-color="#8F39CE"/>
<stop offset="1" stop-color="#5B4FE9"/>
</linearGradient>
<clipPath id="clip0_4110_8811">
<rect width="50" height="50" fill="white"/>
</clipPath>
</defs>
</svg>
