<svg width="50" height="50" viewBox="0 0 50 50" fill="none" xmlns="http://www.w3.org/2000/svg">
<g clip-path="url(#clip0_2136_7118)">
<path d="M0 25C0 11.1929 11.1929 0 25 0C38.8071 0 50 11.1929 50 25C50 38.8071 38.8071 50 25 50C11.1929 50 0 38.8071 0 25Z" fill="#FFE812"/>
<path d="M24.9999 11.4583C15.7951 11.4583 8.33325 17.3418 8.33325 24.5993C8.33325 29.2914 11.4528 33.4086 16.1454 35.7335C15.8901 36.6139 14.5049 41.3975 14.4497 41.7734C14.4497 41.7734 14.4166 42.0556 14.5994 42.1634C14.7823 42.2711 14.9973 42.1874 14.9973 42.1874C15.5217 42.1142 21.0779 38.2113 22.0397 37.5336C23.0004 37.6696 23.9897 37.7403 24.9999 37.7403C34.2047 37.7403 41.6666 31.857 41.6666 24.5993C41.6666 17.3418 34.2047 11.4583 24.9999 11.4583Z" fill="#381F1F"/>
<path fill-rule="evenodd" clip-rule="evenodd" d="M15.7853 29.1867C15.255 29.1867 14.8237 28.7749 14.8237 28.2684V22.5561H13.3234C12.8031 22.5561 12.3799 22.1336 12.3799 21.6146C12.3799 21.0955 12.8032 20.6731 13.3234 20.6731H18.2472C18.7675 20.6731 19.1907 21.0955 19.1907 21.6146C19.1907 22.1336 18.7674 22.5561 18.2472 22.5561H16.7469V28.2684C16.7469 28.7749 16.3156 29.1867 15.7853 29.1867ZM24.2167 29.1742C23.8157 29.1742 23.509 29.0114 23.4165 28.7496L22.9404 27.5031L20.0083 27.5029L19.532 28.7502C19.4398 29.0115 19.1332 29.1742 18.7323 29.1742C18.5213 29.1744 18.3128 29.1291 18.121 29.0415C17.8559 28.9192 17.6011 28.583 17.8931 27.6761L20.1931 21.6223C20.3552 21.1618 20.8473 20.6875 21.4736 20.6732C22.1017 20.6874 22.5937 21.1618 22.7561 21.6232L25.0552 27.6743C25.3478 28.5833 25.093 28.9198 24.8279 29.0416C24.636 29.1291 24.4276 29.1743 24.2167 29.1742ZM21.4744 23.0715L22.4348 25.7999H20.5139L21.4744 23.0715ZM26.6026 29.0465C26.0944 29.0465 25.6811 28.651 25.6811 28.1651V21.6347C25.6811 21.1043 26.1214 20.6731 26.6627 20.6731C27.2038 20.6731 27.6443 21.1043 27.6443 21.6347V27.2836H29.6875C30.1957 27.2836 30.609 27.6791 30.609 28.1651C30.609 28.651 30.1957 29.0465 29.6875 29.0465H26.6026ZM30.983 28.2127C30.983 28.743 31.4143 29.1742 31.9446 29.1742C32.1996 29.1738 32.444 29.0724 32.6244 28.8921C32.8047 28.7117 32.9061 28.4673 32.9064 28.2122V26.1142L33.2401 25.7806L35.4951 28.7684C35.5844 28.8877 35.7003 28.9843 35.8337 29.0508C35.9671 29.1172 36.1142 29.1513 36.2631 29.1507C36.4721 29.1511 36.6753 29.083 36.8416 28.9565C36.9426 28.8808 37.0276 28.7858 37.0917 28.6769C37.1556 28.5681 37.1975 28.4476 37.2146 28.3225C37.2326 28.1974 37.2255 28.0701 37.1937 27.9478C37.1621 27.8255 37.1064 27.7107 37.03 27.6101L34.6631 24.4746L36.8544 22.2836C37.005 22.1329 37.0805 21.925 37.0666 21.6982C37.0527 21.4734 36.9523 21.2569 36.7838 21.0886C36.6032 20.9082 36.3622 20.8047 36.1222 20.8047C35.9163 20.8047 35.7268 20.8806 35.5888 21.0186L32.9061 23.7013V21.6347C32.9061 21.1043 32.4749 20.6731 31.9446 20.6731C31.4143 20.6731 30.983 21.1043 30.983 21.6347V28.2127Z" fill="#FFE812"/>
</g>
<defs>
<clipPath id="clip0_2136_7118">
<rect width="50" height="50" fill="white"/>
</clipPath>
</defs>
</svg>
