<svg width="50" height="50" viewBox="0 0 50 50" fill="none" xmlns="http://www.w3.org/2000/svg">
<g clip-path="url(#clip0_2136_7114)">
<path d="M50 25C50 11.1929 38.8071 0 25 0C11.1929 0 0 11.1929 0 25C0 38.8071 11.1929 50 25 50C38.8071 50 50 38.8071 50 25Z" fill="url(#paint0_linear_2136_7114)"/>
<path d="M24.778 11.6072C20.8113 11.6072 17.0071 12.9197 14.2022 15.256C11.3973 17.5923 9.82153 20.7609 9.82153 24.0649C9.8251 26.214 10.4962 28.3257 11.7694 30.1949C13.0426 32.0641 14.8747 33.6272 17.0876 34.7322C16.4982 36.0516 15.6142 37.289 14.4723 38.3929C16.6868 38.0041 18.7656 37.1875 20.5468 36.0066C21.9202 36.3465 23.3452 36.5203 24.778 36.5226C28.7447 36.5225 32.5489 35.21 35.3538 32.8738C38.1586 30.5375 39.7344 27.3689 39.7344 24.0649C39.7344 20.7609 38.1586 17.5923 35.3538 15.256C32.5489 12.9197 28.7447 11.6072 24.778 11.6072Z" fill="white"/>
</g>
<defs>
<linearGradient id="paint0_linear_2136_7114" x1="25.3968" y1="46.681" x2="25.3968" y2="6.20523" gradientUnits="userSpaceOnUse">
<stop stop-color="#0CBD2A"/>
<stop offset="1" stop-color="#5BF675"/>
</linearGradient>
<clipPath id="clip0_2136_7114">
<rect width="50" height="50" fill="white"/>
</clipPath>
</defs>
</svg>
