<svg width="50" height="50" viewBox="0 0 50 50" fill="none" xmlns="http://www.w3.org/2000/svg">
<rect x="0.5" y="0.5" width="49" height="49" rx="24.5" fill="white"/>
<rect x="0.5" y="0.5" width="49" height="49" rx="24.5" stroke="#ACB2B9"/>
<path d="M20.44 18.4399C20.2926 18.5772 20.1744 18.7428 20.0924 18.9268C20.0105 19.1108 19.9664 19.3094 19.9628 19.5109C19.9593 19.7123 19.9963 19.9123 20.0718 20.0991C20.1472 20.2859 20.2595 20.4555 20.4019 20.598C20.5444 20.7404 20.714 20.8527 20.9008 20.9281C21.0876 21.0036 21.2876 21.0406 21.489 21.0371C21.6905 21.0335 21.8891 20.9894 22.0731 20.9075C22.2571 20.8255 22.4227 20.7073 22.56 20.5599L23.5 19.6199V26.4999C23.5 26.8977 23.658 27.2793 23.9393 27.5606C24.2206 27.8419 24.6022 27.9999 25 27.9999C25.3978 27.9999 25.7794 27.8419 26.0607 27.5606C26.342 27.2793 26.5 26.8977 26.5 26.4999V19.6199L27.44 20.5599C27.7243 20.8249 28.1004 20.9691 28.489 20.9623C28.8776 20.9554 29.2484 20.798 29.5232 20.5231C29.7981 20.2483 29.9555 19.8775 29.9624 19.4889C29.9692 19.1003 29.825 18.7243 29.56 18.4399L26.06 14.9399C25.7787 14.659 25.3975 14.5012 25 14.5012C24.6025 14.5012 24.2213 14.659 23.94 14.9399L20.44 18.4399ZM18 26.4999C18 26.1021 17.842 25.7205 17.5607 25.4392C17.2794 25.1579 16.8978 24.9999 16.5 24.9999C16.1022 24.9999 15.7206 25.1579 15.4393 25.4392C15.158 25.7205 15 26.1021 15 26.4999V31.4999C15 32.4282 15.3687 33.3184 16.0251 33.9748C16.6815 34.6312 17.5717 34.9999 18.5 34.9999H31.5C32.4283 34.9999 33.3185 34.6312 33.9749 33.9748C34.6313 33.3184 35 32.4282 35 31.4999V26.4999C35 26.1021 34.842 25.7205 34.5607 25.4392C34.2794 25.1579 33.8978 24.9999 33.5 24.9999C33.1022 24.9999 32.7206 25.1579 32.4393 25.4392C32.158 25.7205 32 26.1021 32 26.4999V31.4999C32 31.6325 31.9473 31.7597 31.8536 31.8535C31.7598 31.9472 31.6326 31.9999 31.5 31.9999H18.5C18.3674 31.9999 18.2402 31.9472 18.1464 31.8535C18.0527 31.7597 18 31.6325 18 31.4999V26.4999Z" fill="#ACB2B9"/>
</svg>
