<svg width="50" height="50" viewBox="0 0 50 50" fill="none" xmlns="http://www.w3.org/2000/svg">
<g clip-path="url(#clip0_2130_7309)">
<path d="M50 25C50 11.1929 38.8071 0 25 0C11.1929 0 0 11.1929 0 25C0 38.8071 11.1929 50 25 50C38.8071 50 50 38.8071 50 25Z" fill="#111111"/>
<path d="M27.0585 23.0858L36.1652 12.5H34.0071L26.0998 21.6915L19.7843 12.5H12.5L22.0504 26.3992L12.5 37.5H14.6581L23.0085 27.7935L29.6782 37.5H36.9624L27.0585 23.0858ZM24.1027 26.5216L23.135 25.1376L15.4357 14.1246H18.7504L24.9638 23.0124L25.9315 24.3964L34.0082 35.9493H30.6935L24.1027 26.5216Z" fill="white"/>
</g>
<defs>
<clipPath id="clip0_2130_7309">
<rect width="50" height="50" fill="white"/>
</clipPath>
</defs>
</svg>
