<svg width="24" height="24" viewBox="0 0 24 24" fill="none" xmlns="http://www.w3.org/2000/svg">
<path fill-rule="evenodd" clip-rule="evenodd" d="M9.23324 18.7953C9.49096 19.0682 9.90777 19.0682 10.1649 18.7953L15.6139 13.0108C15.7359 12.8832 15.833 12.7298 15.8994 12.5597C15.9658 12.3896 16 12.2064 16 12.0214C16 11.8363 15.9658 11.6531 15.8994 11.483C15.833 11.3129 15.7359 11.1595 15.6139 11.032L10.1254 5.20475C10.0008 5.07452 9.83588 5.00132 9.66403 5.00002C9.49218 4.99872 9.32633 5.06941 9.20015 5.19775C9.13764 5.26112 9.08762 5.33794 9.0532 5.42344C9.01878 5.50893 9.00067 5.6013 9.00002 5.6948C8.99936 5.78831 9.01616 5.88097 9.04938 5.96704C9.0826 6.05311 9.13153 6.13077 9.19315 6.1952L14.2165 11.5268C14.2775 11.5906 14.3262 11.6673 14.3594 11.7524C14.3926 11.8375 14.4097 11.9291 14.4097 12.0217C14.4097 12.1143 14.3926 12.2059 14.3594 12.291C14.3262 12.3761 14.2775 12.4528 14.2165 12.5166L9.23324 17.8062C9.17222 17.8699 9.12362 17.9466 9.09042 18.0316C9.05721 18.1166 9.04009 18.2082 9.04009 18.3007C9.04009 18.3933 9.05721 18.4848 9.09042 18.5699C9.12362 18.6549 9.17222 18.7316 9.23324 18.7953Z" fill="black"/>
</svg>
