<svg width="20" height="20" viewBox="0 0 20 20" fill="none" xmlns="http://www.w3.org/2000/svg">
<g clip-path="url(#clip0_2184_7206)">
<path d="M8.33331 10.833C8.69119 11.3114 9.14778 11.7073 9.6721 11.9938C10.1964 12.2802 10.7762 12.4506 11.3722 12.4933C11.9681 12.5359 12.5663 12.45 13.1261 12.2411C13.6859 12.0323 14.1942 11.7055 14.6166 11.283L17.1166 8.78298C17.8756 7.99714 18.2956 6.94463 18.2861 5.85214C18.2766 4.75965 17.8384 3.7146 17.0659 2.94207C16.2934 2.16953 15.2483 1.73133 14.1558 1.72184C13.0633 1.71234 12.0108 2.13232 11.225 2.89131L9.79165 4.31631" stroke="#535B63" stroke-width="1.5" stroke-linecap="round" stroke-linejoin="round"/>
<path d="M11.6667 9.16702C11.3088 8.68858 10.8522 8.2927 10.3279 8.00623C9.80353 7.71977 9.22373 7.54942 8.62777 7.50674C8.03182 7.46406 7.43366 7.55004 6.87386 7.75887C6.31406 7.96769 5.80572 8.29446 5.38332 8.71702L2.88332 11.217C2.12432 12.0029 1.70435 13.0554 1.71384 14.1479C1.72334 15.2403 2.16154 16.2854 2.93407 17.0579C3.70661 17.8305 4.75166 18.2687 5.84415 18.2782C6.93663 18.2877 7.98914 17.8677 8.77498 17.1087L10.2 15.6837" stroke="#535B63" stroke-width="1.5" stroke-linecap="round" stroke-linejoin="round"/>
</g>
<defs>
<clipPath id="clip0_2184_7206">
<rect width="20" height="20" fill="white"/>
</clipPath>
</defs>
</svg>
