<svg xmlns="http://www.w3.org/2000/svg" width="26" height="26" viewBox="0 0 26 26" fill="none">
  <path d="M8.39591 9.75016C8.39591 7.20735 10.4573 5.146 13.0001 5.146V3.521C9.5598 3.521 6.77091 6.30989 6.77091 9.75016H8.39591ZM8.39591 12.7363V9.75016H6.77091V12.7363H8.39591ZM6.22925 17.3335C6.22925 16.6826 6.48328 16.0929 6.89926 15.655L5.72116 14.5357C5.02975 15.2635 4.60425 16.2496 4.60425 17.3335H6.22925ZM7.58341 17.6043H6.50008V19.2293H7.58341V17.6043ZM18.4167 17.6043H7.58341V19.2293H18.4167V17.6043ZM19.5001 17.6043H18.4167V19.2293H19.5001V17.6043ZM19.1009 15.655C19.5169 16.0929 19.7709 16.6826 19.7709 17.3335H21.3959C21.3959 16.2496 20.9704 15.2635 20.279 14.5357L19.1009 15.655ZM17.6042 9.75016V12.7363H19.2292V9.75016H17.6042ZM13.0001 5.146C15.5429 5.146 17.6042 7.20735 17.6042 9.75016H19.2292C19.2292 6.30989 16.4403 3.521 13.0001 3.521V5.146ZM20.279 14.5357C19.6269 13.8494 19.2292 13.2921 19.2292 12.7363H17.6042C17.6042 14.0169 18.488 15.0099 19.1009 15.655L20.279 14.5357ZM4.60425 17.3335C4.60425 18.3805 5.45304 19.2293 6.50008 19.2293V17.6043C6.35051 17.6043 6.22925 17.4831 6.22925 17.3335H4.60425ZM19.5001 19.2293C20.5471 19.2293 21.3959 18.3805 21.3959 17.3335H19.7709C19.7709 17.4831 19.6497 17.6043 19.5001 17.6043V19.2293ZM6.77091 12.7363C6.77091 13.2921 6.37321 13.8494 5.72116 14.5357L6.89926 15.655C7.51217 15.0099 8.39591 14.0169 8.39591 12.7363H6.77091Z" fill="black"/>
  <path d="M14.9474 21.5332C14.7672 21.9029 14.4855 22.2134 14.1354 22.4289C13.7851 22.6443 13.3809 22.7557 12.9698 22.7499C12.5587 22.7442 12.1576 22.6215 11.8137 22.3964C11.4696 22.1713 11.1967 21.8529 11.0269 21.4785" stroke="black" stroke-width="1.5" stroke-linecap="round" stroke-linejoin="round"/>
  <path d="M13 3.25V3.79167" stroke="black" stroke-width="2" stroke-linecap="round" stroke-linejoin="round"/>
  <path d="M17.875 10.2915C19.67 10.2915 21.125 8.83642 21.125 7.0415C21.125 5.24658 19.67 3.7915 17.875 3.7915C16.08 3.7915 14.625 5.24658 14.625 7.0415C14.625 8.83642 16.08 10.2915 17.875 10.2915Z" fill="#FF5E3A" stroke="white"/>
</svg>