<svg
xmlns="http://www.w3.org/2000/svg"
width="18"
height="18"
viewBox="0 0 18 18"
fill="none"
>
<path
    d="M1 14V16C1 16.5523 1.44772 17 2 17H16C16.5523 17 17 16.5523 17 16V11.5M1 14V2C1 1.44772 1.44772 1 2 1H16C16.5523 1 17 1.44772 17 2V11.5M1 14L4.35826 11.4813C4.73322 11.2001 5.25319 11.217 5.60905 11.522L7.7969 13.3973C8.19364 13.7374 8.78531 13.7147 9.1548 13.3452L13.2929 9.20711C13.6834 8.81658 14.3166 8.81658 14.7071 9.20711L17 11.5"
    stroke="#9199A1"
    strokeWidth="1.5"
/>
<circle
    cx="5"
    cy="5"
    r="2"
    stroke="#9199A1"
    strokeWidth="1.5"
/>
</svg>