<svg width="10" height="10" viewBox="0 0 10 10" fill="none" xmlns="http://www.w3.org/2000/svg">
<g clip-path="url(#clip0_2184_7209)">
<path d="M4.16669 5.41698C4.34563 5.6562 4.57392 5.85414 4.83608 5.99737C5.09825 6.1406 5.38815 6.22578 5.68612 6.24712C5.9841 6.26846 6.28318 6.22546 6.56308 6.12105C6.84298 6.01664 7.09715 5.85326 7.30835 5.64198L8.55835 4.39198C8.93785 3.99906 9.14784 3.4728 9.14309 2.92656C9.13835 2.38032 8.91924 1.85779 8.53298 1.47152C8.14671 1.08526 7.62418 0.866154 7.07794 0.861407C6.5317 0.85666 6.00544 1.06665 5.61252 1.44614L4.89585 2.15864" stroke="#535B63" stroke-linecap="round" stroke-linejoin="round"/>
<path d="M5.83336 4.58351C5.65442 4.34429 5.42612 4.14635 5.16396 4.00312C4.9018 3.85988 4.61189 3.77471 4.31392 3.75337C4.01594 3.73203 3.71686 3.77502 3.43696 3.87943C3.15706 3.98384 2.90289 4.14723 2.69169 4.35851L1.44169 5.60851C1.06219 6.00143 0.852205 6.52768 0.856951 7.07393C0.861698 7.62017 1.0808 8.1427 1.46707 8.52896C1.85333 8.91523 2.37586 9.13433 2.9221 9.13908C3.46835 9.14383 3.9946 8.93384 4.38752 8.55434L5.10002 7.84184" stroke="#535B63" stroke-linecap="round" stroke-linejoin="round"/>
</g>
<defs>
<clipPath id="clip0_2184_7209">
<rect width="10" height="10" fill="white"/>
</clipPath>
</defs>
</svg>
