<svg xmlns="http://www.w3.org/2000/svg" width="24" height="24" viewBox="0 0 24 25" fill="none">
<path d="M4.5 12.168C4.5 12.4332 4.60536 12.6875 4.79289 12.8751C4.98043 13.0626 5.23478 13.168 5.5 13.168C5.76522 13.168 6.01957 13.0626 6.20711 12.8751C6.39464 12.6875 6.5 12.4332 6.5 12.168C6.5 11.9028 6.39464 11.6484 6.20711 11.4609C6.01957 11.2733 5.76522 11.168 5.5 11.168C5.23478 11.168 4.98043 11.2733 4.79289 11.4609C4.60536 11.6484 4.5 11.9028 4.5 12.168Z" fill="#26292C"/>
<path d="M10.9999 12.168C10.9999 12.4332 11.1053 12.6875 11.2928 12.8751C11.4804 13.0626 11.7347 13.168 11.9999 13.168C12.2651 13.168 12.5195 13.0626 12.707 12.8751C12.8946 12.6875 12.9999 12.4332 12.9999 12.168C12.9999 11.9028 12.8946 11.6484 12.707 11.4609C12.5195 11.2733 12.2651 11.168 11.9999 11.168C11.7347 11.168 11.4804 11.2733 11.2928 11.4609C11.1053 11.6484 10.9999 11.9028 10.9999 12.168Z" fill="#26292C"/>
<path d="M17.5 12.168C17.5 12.4332 17.6054 12.6875 17.7929 12.8751C17.9804 13.0626 18.2348 13.168 18.5 13.168C18.7652 13.168 19.0196 13.0626 19.2071 12.8751C19.3946 12.6875 19.5 12.4332 19.5 12.168C19.5 11.9028 19.3946 11.6484 19.2071 11.4609C19.0196 11.2733 18.7652 11.168 18.5 11.168C18.2348 11.168 17.9804 11.2733 17.7929 11.4609C17.6054 11.6484 17.5 11.9028 17.5 12.168Z" fill="#26292C"/>
<path d="M4.5 12.168C4.5 12.4332 4.60536 12.6875 4.79289 12.8751C4.98043 13.0626 5.23478 13.168 5.5 13.168C5.76522 13.168 6.01957 13.0626 6.20711 12.8751C6.39464 12.6875 6.5 12.4332 6.5 12.168C6.5 11.9028 6.39464 11.6484 6.20711 11.4609C6.01957 11.2733 5.76522 11.168 5.5 11.168C5.23478 11.168 4.98043 11.2733 4.79289 11.4609C4.60536 11.6484 4.5 11.9028 4.5 12.168Z" stroke="#26292C" stroke-linecap="round" stroke-linejoin="round"/>
<path d="M10.9999 12.168C10.9999 12.4332 11.1053 12.6875 11.2928 12.8751C11.4804 13.0626 11.7347 13.168 11.9999 13.168C12.2651 13.168 12.5195 13.0626 12.707 12.8751C12.8946 12.6875 12.9999 12.4332 12.9999 12.168C12.9999 11.9028 12.8946 11.6484 12.707 11.4609C12.5195 11.2733 12.2651 11.168 11.9999 11.168C11.7347 11.168 11.4804 11.2733 11.2928 11.4609C11.1053 11.6484 10.9999 11.9028 10.9999 12.168Z" stroke="#26292C" stroke-linecap="round" stroke-linejoin="round"/>
<path d="M17.5 12.168C17.5 12.4332 17.6054 12.6875 17.7929 12.8751C17.9804 13.0626 18.2348 13.168 18.5 13.168C18.7652 13.168 19.0196 13.0626 19.2071 12.8751C19.3946 12.6875 19.5 12.4332 19.5 12.168C19.5 11.9028 19.3946 11.6484 19.2071 11.4609C19.0196 11.2733 18.7652 11.168 18.5 11.168C18.2348 11.168 17.9804 11.2733 17.7929 11.4609C17.6054 11.6484 17.5 11.9028 17.5 12.168Z" stroke="#26292C" stroke-linecap="round" stroke-linejoin="round"/>
</svg>