<svg width="111" height="53" viewBox="0 0 111 53" fill="none" xmlns="http://www.w3.org/2000/svg">
<path d="M51.8644 29.683C54.3098 29.683 56.4117 30.8514 57.6164 32.4841L47.7222 40.4843C47.7427 40.5047 47.7529 40.5251 47.7529 40.5455L47.8452 40.6986C47.8452 40.6986 47.876 40.7292 47.876 40.7598C49.5472 43.1629 51.9259 44.3926 53.9355 44.3926C56.2527 44.3926 57.6164 42.7599 57.8317 40.5455L58.4828 40.7904C57.8932 43.4997 55.33 45.6528 51.8644 45.6528C47.5991 45.6528 44.7539 42.4537 44.7539 37.6526C44.7539 32.8514 47.5991 29.683 51.8644 29.683ZM55.33 33.78C54.279 32.5504 51.6491 31.0708 49.5165 31.0708C48.7424 31.0708 47.999 31.2545 47.4453 31.7494C45.3742 33.5657 45.405 36.7036 47.4453 40.0914L55.33 33.78Z" fill="#26292C" stroke="#26292C" stroke-miterlimit="10"/>
<path d="M66.2751 29.683C68.7204 29.683 70.8223 30.8514 72.027 32.4841L62.1328 40.4843C62.1533 40.5047 62.1636 40.5251 62.1636 40.5455L62.2559 40.6986C62.2559 40.6986 62.2866 40.7292 62.2866 40.7598C63.9579 43.1629 66.3366 44.3926 68.3462 44.3926C70.6634 44.3926 72.027 42.7599 72.2423 40.5455L72.8934 40.7904C72.3039 43.4997 69.7406 45.6528 66.2751 45.6528C62.0098 45.6528 59.1646 42.4537 59.1646 37.6526C59.1646 32.8514 62.0098 29.683 66.2751 29.683ZM69.7406 33.78C68.6897 32.5504 66.0597 31.0708 63.9271 31.0708C63.153 31.0708 62.4096 31.2545 61.856 31.7494C59.7849 33.5657 59.8156 36.7036 61.856 40.0914L69.7406 33.78Z" fill="#26292C" stroke="#26292C" stroke-miterlimit="10"/>
<path d="M77.3434 45.1987H78.702V45.6273H73.5088V45.1987H74.8673V24.2696H73.5088V23.841H77.3434V45.1987Z" fill="#26292C" stroke="#26292C" stroke-miterlimit="10"/>
<path d="M86.4379 29.683C90.6416 29.683 93.8611 32.9433 93.8611 37.6526C93.8611 42.3619 90.6468 45.6528 86.4379 45.6528C82.229 45.6528 79.0146 42.3925 79.0146 37.6526C79.0146 32.9127 82.229 29.683 86.4379 29.683ZM82.2597 40.8874C83.9618 43.2242 86.3405 44.3671 88.3808 44.3671C89.4318 44.3671 90.3597 44.0915 91.0723 43.5048C93.1741 41.8109 93.5484 38.5812 91.0415 35.0403C89.2472 32.5147 86.4328 30.9789 84.1771 30.9789C83.3107 30.9789 82.5058 31.2238 81.9214 31.7188C79.6965 33.5964 79.8503 37.5659 82.2597 40.8874Z" fill="#26292C" stroke="#26292C" stroke-miterlimit="10"/>
<path d="M102.084 29.683C103.724 29.683 105.175 30.1116 106.288 30.8821C107.369 30.4841 108.267 28.8208 108.482 27.8973C108.974 28.0503 110.03 28.3565 109.999 28.484C109.569 30.178 108.267 30.8208 106.754 31.2239C108.143 32.3923 108.948 34.1781 108.948 36.3312C108.948 40.3313 106.226 43.0099 102.084 43.0099C100.443 43.0099 99.0541 42.5814 97.9417 41.8109C95.809 44.3365 99.4284 44.2141 102.145 44.2141C107.216 44.2141 108.979 43.9385 108.979 47.1988C108.979 49.4438 108.487 52 102.115 52C98.4338 52 96.2397 51.352 96.2397 49.3213C96.2397 48.1529 96.8292 47.0764 98.034 46.459C97.3829 46.306 96.8907 46.0304 96.6447 45.6274C95.6552 43.9334 97.2035 42.1783 97.6956 41.6273C96.1782 40.4589 95.3169 38.6119 95.3169 36.3312C95.3169 32.3617 98.0391 29.683 102.089 29.683H102.084ZM98.5876 38.5812C100.29 40.7344 102.668 41.8722 104.493 41.8722C105.206 41.8722 105.852 41.6885 106.349 41.3466C108.143 40.0252 107.897 37.1935 105.544 34.2087C103.812 32.0249 101.433 30.8565 99.6078 30.8565C98.8952 30.8565 98.28 31.0096 97.7828 31.3821C95.9885 32.7035 96.2038 35.5659 98.5876 38.5812ZM102.115 49.505C104.032 49.505 108.641 49.5662 108.641 47.2294C108.641 46.6733 107.713 46.5202 106.416 46.5202C104.837 46.5202 102.673 46.7345 100.756 46.7345C99.8282 46.7345 98.9619 46.6733 98.2493 46.5202C95.8398 49.2601 99.0541 49.505 102.115 49.505Z" fill="#26292C" stroke="#26292C" stroke-miterlimit="10"/>
<mask id="path-6-inside-1_2344_8290" fill="white">
<path d="M60.6008 17.1637L58.7706 23.266H57.8273C57.9145 22.9955 57.9709 22.7914 58.0068 22.6588C58.1913 22.0516 58.2887 21.5465 58.2887 21.1383C58.2887 20.5669 58.0427 20.1995 57.5505 20.0516C57.0584 19.8985 55.8793 19.822 54.0132 19.822H50.0965L49.7428 20.9087C48.3022 25.5007 46.7028 29.3273 44.9495 32.3989C43.1962 35.4704 40.9969 38.2715 38.3516 40.8022C35.6551 43.4196 32.5945 45.4604 29.17 46.9299C25.7455 48.3993 22.3466 49.134 18.9733 49.134C15.1592 49.134 11.7244 48.3228 8.6741 46.7054C5.94166 45.2717 3.81414 43.2461 2.29156 40.6287C0.763854 38.0113 0 35.103 0 31.8937C0 27.6589 1.34828 24.266 4.04484 21.72C6.7414 19.174 10.3248 17.8985 14.8054 17.8985C19.8243 17.8985 25.1816 20.1995 30.8771 24.8068C32.774 26.3426 35.4039 28.8222 38.7617 32.2509L39.5512 33.0366C40.3971 31.6029 40.8226 30.0927 40.8226 28.5059C40.8226 26.0415 39.746 24.0007 37.5929 22.3782C35.4398 20.7557 32.6099 19.8577 29.0982 19.6689C29.5237 18.9444 29.8518 18.1332 30.0928 17.2403L48.1228 17.1637C48.2561 16.725 48.3586 16.3984 48.4304 16.1739C49.1789 13.6075 49.7889 11.7656 50.2606 10.6432C50.7373 9.52067 51.3474 8.48493 52.0907 7.54103C53.48 5.75016 55.3871 4.05624 57.812 2.45415C60.2881 0.816349 62.39 0 64.1176 0C64.456 0 64.8866 0.0510218 65.4146 0.153065C65.1942 1.43371 64.6918 3.39295 63.9125 6.02568L63.7331 6.65835H62.7898C63.0974 5.57669 63.2461 4.82156 63.2461 4.38277C63.2461 3.30111 62.6617 2.76028 61.4928 2.76028C59.678 2.76028 57.9145 3.43377 56.2022 4.78585C55.3051 5.51036 54.5976 6.39304 54.0901 7.42878C53.5826 8.46452 52.8956 10.4187 52.0292 13.2861L51.0603 16.5515L50.8809 17.1586H60.5957L60.6008 17.1637ZM47.4 19.822L35.7781 19.7454C37.5775 20.5567 39.0335 21.7404 40.151 23.3017C41.2686 24.8629 41.8274 26.4956 41.8274 28.1998C41.8274 30.8478 40.838 33.7867 38.854 37.0061C34.0402 31.3376 29.3597 26.9905 24.8124 23.9701C20.2703 20.9496 16.1383 19.4393 12.4267 19.4393C9.20726 19.4393 6.54146 20.4751 4.42933 22.5516C2.31719 24.6282 1.26113 27.2508 1.26113 30.4243C1.26113 35.251 3.13744 39.2205 6.89519 42.3328C10.6529 45.4451 15.436 47.0013 21.2546 47.0013C27.7141 47.0013 33.1892 44.6747 37.6698 40.0164C42.1555 35.3581 45.3955 28.6232 47.4 19.8169V19.822Z"/>
</mask>
<path d="M60.6008 17.1637L58.7706 23.266H57.8273C57.9145 22.9955 57.9709 22.7914 58.0068 22.6588C58.1913 22.0516 58.2887 21.5465 58.2887 21.1383C58.2887 20.5669 58.0427 20.1995 57.5505 20.0516C57.0584 19.8985 55.8793 19.822 54.0132 19.822H50.0965L49.7428 20.9087C48.3022 25.5007 46.7028 29.3273 44.9495 32.3989C43.1962 35.4704 40.9969 38.2715 38.3516 40.8022C35.6551 43.4196 32.5945 45.4604 29.17 46.9299C25.7455 48.3993 22.3466 49.134 18.9733 49.134C15.1592 49.134 11.7244 48.3228 8.6741 46.7054C5.94166 45.2717 3.81414 43.2461 2.29156 40.6287C0.763854 38.0113 0 35.103 0 31.8937C0 27.6589 1.34828 24.266 4.04484 21.72C6.7414 19.174 10.3248 17.8985 14.8054 17.8985C19.8243 17.8985 25.1816 20.1995 30.8771 24.8068C32.774 26.3426 35.4039 28.8222 38.7617 32.2509L39.5512 33.0366C40.3971 31.6029 40.8226 30.0927 40.8226 28.5059C40.8226 26.0415 39.746 24.0007 37.5929 22.3782C35.4398 20.7557 32.6099 19.8577 29.0982 19.6689C29.5237 18.9444 29.8518 18.1332 30.0928 17.2403L48.1228 17.1637C48.2561 16.725 48.3586 16.3984 48.4304 16.1739C49.1789 13.6075 49.7889 11.7656 50.2606 10.6432C50.7373 9.52067 51.3474 8.48493 52.0907 7.54103C53.48 5.75016 55.3871 4.05624 57.812 2.45415C60.2881 0.816349 62.39 0 64.1176 0C64.456 0 64.8866 0.0510218 65.4146 0.153065C65.1942 1.43371 64.6918 3.39295 63.9125 6.02568L63.7331 6.65835H62.7898C63.0974 5.57669 63.2461 4.82156 63.2461 4.38277C63.2461 3.30111 62.6617 2.76028 61.4928 2.76028C59.678 2.76028 57.9145 3.43377 56.2022 4.78585C55.3051 5.51036 54.5976 6.39304 54.0901 7.42878C53.5826 8.46452 52.8956 10.4187 52.0292 13.2861L51.0603 16.5515L50.8809 17.1586H60.5957L60.6008 17.1637ZM47.4 19.822L35.7781 19.7454C37.5775 20.5567 39.0335 21.7404 40.151 23.3017C41.2686 24.8629 41.8274 26.4956 41.8274 28.1998C41.8274 30.8478 40.838 33.7867 38.854 37.0061C34.0402 31.3376 29.3597 26.9905 24.8124 23.9701C20.2703 20.9496 16.1383 19.4393 12.4267 19.4393C9.20726 19.4393 6.54146 20.4751 4.42933 22.5516C2.31719 24.6282 1.26113 27.2508 1.26113 30.4243C1.26113 35.251 3.13744 39.2205 6.89519 42.3328C10.6529 45.4451 15.436 47.0013 21.2546 47.0013C27.7141 47.0013 33.1892 44.6747 37.6698 40.0164C42.1555 35.3581 45.3955 28.6232 47.4 19.8169V19.822Z" fill="#26292C"/>
<path d="M60.6008 17.1637L74.9685 21.4729L77.5497 12.8668L71.1801 6.5299L60.6008 17.1637ZM58.7706 23.266V38.266H69.9319L73.1383 27.5751L58.7706 23.266ZM57.8273 23.266L43.5505 18.6647L37.2333 38.266H57.8273V23.266ZM58.0068 22.6588L43.6551 18.2964L43.5877 18.5181L43.5272 18.7418L58.0068 22.6588ZM57.5505 20.0516L53.0958 34.3748L53.1637 34.3959L53.2317 34.4164L57.5505 20.0516ZM50.0965 19.822V4.82198H39.2043L35.8331 15.1794L50.0965 19.822ZM49.7428 20.9087L35.4793 16.2662L35.4545 16.3424L35.4305 16.4188L49.7428 20.9087ZM38.3516 40.8022L27.9824 29.9634L27.9431 30.0009L27.9041 30.0388L38.3516 40.8022ZM8.6741 46.7054L15.701 33.4531L15.6723 33.4379L15.6435 33.4228L8.6741 46.7054ZM2.29156 40.6287L15.2574 33.0863L15.2519 33.0768L15.2463 33.0674L2.29156 40.6287ZM30.8771 24.8068L40.316 13.1488L40.3109 13.1447L30.8771 24.8068ZM38.7617 32.2509L28.0451 42.7463L28.1123 42.8149L28.1804 42.8827L38.7617 32.2509ZM39.5512 33.0366L28.9699 43.6685L42.6575 57.291L52.4703 40.6588L39.5512 33.0366ZM29.0982 19.6689L16.1639 12.0726L3.68287 33.3243L28.293 34.6473L29.0982 19.6689ZM30.0928 17.2403L30.0291 2.24041L18.5909 2.28896L15.6108 13.3323L30.0928 17.2403ZM48.1228 17.1637L48.1865 32.1636L59.2574 32.1166L62.4752 21.5236L48.1228 17.1637ZM48.4304 16.1739L62.718 20.7417L62.7766 20.5584L62.8305 20.3736L48.4304 16.1739ZM50.2606 10.6432L36.4543 4.77902L36.443 4.80578L36.4317 4.83257L50.2606 10.6432ZM52.0907 7.54103L63.8751 16.8215L63.909 16.7785L63.9426 16.7353L52.0907 7.54103ZM57.812 2.45415L66.0806 14.9693L66.0871 14.965L57.812 2.45415ZM65.4146 0.153065L80.1972 2.69763L82.6903 -11.7859L68.2607 -14.5744L65.4146 0.153065ZM63.9125 6.02568L49.5293 1.76854L49.505 1.8506L49.4817 1.93294L63.9125 6.02568ZM63.7331 6.65835V21.6583H75.0705L78.164 10.7511L63.7331 6.65835ZM62.7898 6.65835L48.3619 2.55547L42.9296 21.6583H62.7898V6.65835ZM56.2022 4.78585L46.9063 -6.98642L46.8419 -6.93553L46.778 -6.88395L56.2022 4.78585ZM52.0292 13.2861L37.6703 8.94759L37.6595 8.98333L37.6489 9.01913L52.0292 13.2861ZM51.0603 16.5515L36.68 12.2845L36.6777 12.2924L36.6753 12.3003L51.0603 16.5515ZM50.8809 17.1586L36.4959 12.9075L30.8067 32.1586H50.8809V17.1586ZM60.5957 17.1586L71.175 6.5248L66.7863 2.15864H60.5957V17.1586ZM47.4 19.822L47.3012 34.8217L62.4 34.9211V19.822H47.4ZM35.7781 19.7454L35.8769 4.74577L29.6131 33.42L35.7781 19.7454ZM38.854 37.0061L27.4205 46.7157L40.7891 62.4579L51.624 44.8755L38.854 37.0061ZM24.8124 23.9701L16.5064 36.4604L16.5129 36.4647L24.8124 23.9701ZM37.6698 40.0164L26.8649 29.6118L26.859 29.618L37.6698 40.0164ZM47.4 19.8169H62.4L32.7741 16.4878L47.4 19.8169ZM46.2331 12.8546L44.4029 18.9568L73.1383 27.5751L74.9685 21.4729L46.2331 12.8546ZM58.7706 8.26595H57.8273V38.266H58.7706V8.26595ZM72.1042 27.8672C72.2922 27.2837 72.4178 26.8292 72.4863 26.5757L43.5272 18.7418C43.5238 18.7544 43.5238 18.7543 43.5253 18.7491C43.5268 18.7435 43.5293 18.7346 43.5325 18.7237C43.5392 18.7007 43.5454 18.6804 43.5505 18.6647L72.1042 27.8672ZM72.3584 27.0212C72.7238 25.819 73.2887 23.6886 73.2887 21.1383H43.2887C43.2887 20.1868 43.3983 19.4629 43.4733 19.0626C43.5511 18.6475 43.6304 18.3777 43.6551 18.2964L72.3584 27.0212ZM73.2887 21.1383C73.2887 18.7623 72.7744 15.3496 70.5259 12.0278C68.1673 8.54339 64.8687 6.58851 61.8693 5.68675L53.2317 34.4164C50.7245 33.6626 47.795 31.9654 45.6824 28.8445C43.68 25.8863 43.2887 22.9429 43.2887 21.1383H73.2887ZM62.0053 5.72834C59.9068 5.07569 57.9196 4.95313 57.2686 4.91088C56.2266 4.84324 55.1083 4.82198 54.0132 4.82198V34.822C54.3808 34.822 54.6762 34.8258 54.9071 34.8316C55.1426 34.8375 55.2756 34.8446 55.3255 34.8479C55.392 34.8522 55.2662 34.8466 55.011 34.8115C54.8772 34.7932 54.6544 34.7594 54.3674 34.7015C54.094 34.6464 53.6476 34.5464 53.0958 34.3748L62.0053 5.72834ZM54.0132 4.82198H50.0965V34.822H54.0132V4.82198ZM35.8331 15.1794L35.4793 16.2662L64.0063 25.5513L64.36 24.4646L35.8331 15.1794ZM35.4305 16.4188C34.2085 20.3142 32.9958 23.0824 31.9224 24.9628L57.9765 39.8349C60.4097 35.5723 62.396 30.6872 64.055 25.3987L35.4305 16.4188ZM31.9224 24.9628C30.9113 26.7341 29.6193 28.3974 27.9824 29.9634L48.7208 51.641C52.3746 48.1455 55.4811 44.2066 57.9765 39.8349L31.9224 24.9628ZM27.9041 30.0388C26.5143 31.3879 24.988 32.4018 23.2552 33.1453L35.0848 60.7145C40.2011 58.5191 44.7959 55.4513 48.7991 51.5655L27.9041 30.0388ZM23.2552 33.1453C21.5029 33.8972 20.1094 34.134 18.9733 34.134V64.134C24.5837 64.134 29.988 62.9014 35.0848 60.7145L23.2552 33.1453ZM18.9733 34.134C17.3535 34.134 16.3718 33.8088 15.701 33.4531L1.64719 59.9576C7.07698 62.8367 12.9649 64.134 18.9733 64.134V34.134ZM15.6435 33.4228C15.4463 33.3193 15.3793 33.254 15.3723 33.2472C15.3637 33.2391 15.3535 33.2285 15.3392 33.2103C15.3246 33.1917 15.2964 33.1533 15.2574 33.0863L-10.6743 48.171C-7.70436 53.2765 -3.47643 57.2694 1.70472 59.988L15.6435 33.4228ZM15.2463 33.0674C15.1356 32.8776 15 32.6041 15 31.8937H-15C-15 37.602 -13.6079 43.1449 -10.6632 48.19L15.2463 33.0674ZM15 31.8937C15 31.3736 15.08 31.3881 14.9502 31.7147C14.8879 31.8715 14.7956 32.0519 14.6725 32.2326C14.5499 32.4126 14.4298 32.5444 14.3426 32.6267L-6.25289 10.8133C-12.3898 16.6075 -15 24.1766 -15 31.8937H15ZM14.3426 32.6267C14.2593 32.7053 14.1514 32.7897 14.0292 32.864C13.9079 32.9378 13.8158 32.9754 13.7786 32.9886C13.7033 33.0154 13.9821 32.8985 14.8054 32.8985V2.89846C7.32682 2.89846 -0.221323 5.11848 -6.25289 10.8133L14.3426 32.6267ZM14.8054 32.8985C15.1248 32.8985 17.2318 33.062 21.4434 36.4689L40.3109 13.1447C33.1313 7.33703 24.5238 2.89846 14.8054 2.89846V32.8985ZM21.4383 36.4648C22.6476 37.4439 24.7935 39.4261 28.0451 42.7463L49.4784 21.7555C46.0142 18.2183 42.9003 15.2412 40.316 13.1489L21.4383 36.4648ZM28.1804 42.8827L28.9699 43.6685L50.1326 22.4048L49.3431 21.6191L28.1804 42.8827ZM52.4703 40.6588C54.6003 37.0485 55.8226 32.9235 55.8226 28.5059H25.8226C25.8226 27.9398 25.9011 27.3487 26.063 26.7722C26.2236 26.2005 26.4378 25.7439 26.6321 25.4145L52.4703 40.6588ZM55.8226 28.5059C55.8226 20.8378 52.1211 14.5439 46.6201 10.3986L28.5657 34.3578C28.1744 34.0629 27.3974 33.3569 26.7461 32.1215C26.0716 30.8419 25.8226 29.543 25.8226 28.5059H55.8226ZM46.6201 10.3986C41.4416 6.49636 35.471 4.98984 29.9034 4.69054L28.293 34.6473C29.0075 34.6857 29.3047 34.7791 29.3024 34.7783C29.2962 34.7764 29.2142 34.7496 29.0773 34.6803C28.9385 34.6101 28.7614 34.5052 28.5657 34.3578L46.6201 10.3986ZM42.0325 27.2652C43.2319 25.223 44.0378 23.1381 44.5747 21.1483L15.6108 13.3323C15.6659 13.1282 15.8155 12.6658 16.1639 12.0726L42.0325 27.2652ZM30.1564 32.2401L48.1865 32.1636L48.0591 2.16388L30.0291 2.24041L30.1564 32.2401ZM62.4752 21.5236C62.5883 21.1514 62.6692 20.8943 62.718 20.7417L34.1428 11.6062C34.048 11.9026 33.9239 12.2985 33.7704 12.8039L62.4752 21.5236ZM62.8305 20.3736C63.1714 19.2045 63.4571 18.2826 63.6895 17.5804C63.8048 17.232 63.899 16.9622 63.9724 16.7609C64.0086 16.6616 64.0372 16.5862 64.0582 16.5322C64.0794 16.4777 64.0898 16.4529 64.0894 16.4537L36.4317 4.83257C35.6055 6.79882 34.7979 9.3423 34.0303 11.9742L62.8305 20.3736ZM64.0668 16.5073C64.0536 16.5384 64.0308 16.5861 63.9962 16.6448C63.9615 16.7036 63.9206 16.7638 63.8751 16.8215L40.3063 -1.73949C38.7216 0.272827 37.4385 2.46191 36.4543 4.77902L64.0668 16.5073ZM63.9426 16.7353C64.085 16.5516 64.65 15.9145 66.0806 14.9693L49.5433 -10.061C46.1242 -7.80202 42.875 -5.0513 40.2389 -1.65321L63.9426 16.7353ZM66.0871 14.965C66.6945 14.5633 66.8815 14.5154 66.6835 14.5925C66.4998 14.6639 65.5835 15 64.1176 15V-15C58.0186 -15 52.9165 -12.2922 49.5368 -10.0567L66.0871 14.965ZM64.1176 15C63.5597 15 63.1467 14.9597 62.9353 14.9347C62.7123 14.9083 62.5819 14.8832 62.5685 14.8806L68.2607 -14.5744C67.2819 -14.7636 65.8045 -15 64.1176 -15V15ZM50.632 -2.3915C50.5707 -2.03512 50.2863 -0.788858 49.5293 1.76854L78.2958 10.2828C79.0973 7.57476 79.8177 4.90255 80.1972 2.69763L50.632 -2.3915ZM49.4817 1.93294L49.3023 2.56561L78.164 10.7511L78.3434 10.1184L49.4817 1.93294ZM63.7331 -8.34165H62.7898V21.6583H63.7331V-8.34165ZM77.2178 10.7612C77.5143 9.71847 78.2461 7.14175 78.2461 4.38277H48.2461C48.2461 3.69186 48.3013 3.17017 48.3347 2.90404C48.371 2.6152 48.4084 2.41899 48.4235 2.34338C48.451 2.20536 48.4474 2.25458 48.3619 2.55547L77.2178 10.7612ZM78.2461 4.38277C78.2461 1.21847 77.337 -3.82594 72.9958 -7.84335C68.8742 -11.6576 64.1132 -12.2397 61.4928 -12.2397V17.7603C60.0413 17.7603 56.157 17.4485 52.6197 14.1752C48.8629 10.6986 48.2461 6.46542 48.2461 4.38277H78.2461ZM61.4928 -12.2397C55.6731 -12.2397 50.7238 -10.0009 46.9063 -6.98642L65.4981 16.5581C65.3419 16.6815 64.9032 16.9948 64.1694 17.2756C63.4068 17.5673 62.488 17.7603 61.4928 17.7603V-12.2397ZM46.778 -6.88395C44.1955 -4.79839 42.0999 -2.19117 40.6203 0.828412L67.5599 14.0291C67.0953 14.9772 66.4147 15.8191 65.6264 16.4556L46.778 -6.88395ZM40.6203 0.828412C39.507 3.10048 38.514 6.15553 37.6703 8.94759L66.3881 17.6246C66.7826 16.319 67.1001 15.3423 67.3443 14.6481C67.6205 13.863 67.6912 13.7611 67.5599 14.0291L40.6203 0.828412ZM37.6489 9.01913L36.68 12.2845L65.4406 20.8184L66.4095 17.553L37.6489 9.01913ZM36.6753 12.3003L36.4959 12.9075L65.2659 21.4098L65.4453 20.8026L36.6753 12.3003ZM50.8809 32.1586H60.5957V2.15864H50.8809V32.1586ZM50.0164 27.7925L50.0215 27.7976L71.1801 6.5299L71.175 6.5248L50.0164 27.7925ZM47.4987 4.8223L35.8769 4.74577L35.6793 34.7451L47.3012 34.8217L47.4987 4.8223ZM29.6131 33.42C29.391 33.3199 29.0856 33.1477 28.7566 32.8801C28.4255 32.6109 28.1552 32.3138 27.9539 32.0326L52.3482 14.5707C49.6453 10.7947 46.0814 7.93662 41.9431 6.07092L29.6131 33.42ZM27.9539 32.0326C27.7573 31.758 27.4598 31.2651 27.2165 30.5543C26.9677 29.8273 26.8274 29.0214 26.8274 28.1998H56.8274C56.8274 22.9744 55.0478 18.342 52.3482 14.5707L27.9539 32.0326ZM26.8274 28.1998C26.8274 27.6452 26.9316 27.4163 26.8719 27.5933C26.8077 27.7834 26.6036 28.2936 26.084 29.1367L51.624 44.8755C54.4822 40.2374 56.8274 34.5616 56.8274 28.1998H26.8274ZM50.2875 27.2966C44.8714 20.9189 39.1674 15.4976 33.112 11.4754L16.5129 36.4647C19.552 38.4835 23.209 41.7563 27.4205 46.7157L50.2875 27.2966ZM33.1185 11.4797C27.204 7.54658 20.175 4.43932 12.4267 4.43932V34.4393C12.1016 34.4393 13.3366 34.3525 16.5064 36.4604L33.1185 11.4797ZM12.4267 4.43932C5.65846 4.43932 -0.906066 6.76179 -6.08689 11.8554L14.9455 33.2479C14.6007 33.5869 14.082 33.9508 13.4509 34.1963C13.1598 34.3095 12.9074 34.3728 12.7174 34.4063C12.6245 34.4226 12.5518 34.431 12.502 34.4351C12.4523 34.4393 12.4264 34.4393 12.4267 34.4393V4.43932ZM-6.08689 11.8554C-11.2845 16.9655 -13.7389 23.5435 -13.7389 30.4243H16.2611C16.2611 30.5236 16.239 31.0048 15.9683 31.6774C15.6891 32.371 15.289 32.9102 14.9455 33.2479L-6.08689 11.8554ZM-13.7389 30.4243C-13.7389 39.7689 -9.83222 47.9553 -2.67283 53.885L16.4632 30.7806C16.26 30.6123 16.1789 30.513 16.1674 30.4985C16.159 30.4879 16.1905 30.527 16.2286 30.6077C16.2459 30.6442 16.2596 30.6789 16.2695 30.7084C16.2794 30.7378 16.2829 30.7541 16.2828 30.7533C16.2825 30.7522 16.2773 30.7279 16.2721 30.6762C16.2668 30.6242 16.2611 30.5414 16.2611 30.4243H-13.7389ZM-2.67283 53.885C4.26815 59.6338 12.6407 62.0013 21.2546 62.0013V32.0013C18.2313 32.0013 17.0377 31.2565 16.4632 30.7806L-2.67283 53.885ZM21.2546 62.0013C31.7883 62.0013 41.1685 58.0169 48.4806 50.4148L26.859 29.618C25.2099 31.3325 23.6398 32.0013 21.2546 32.0013V62.0013ZM48.4746 50.421C55.4664 43.1603 59.6469 33.5977 62.0259 23.146L32.7741 16.4878C31.1441 23.6488 28.8447 27.556 26.8649 29.6118L48.4746 50.421ZM32.4 19.8169V19.822H62.4V19.8169H32.4Z" fill="#26292C" mask="url(#path-6-inside-1_2344_8290)"/>
</svg>
