<svg width="52" height="40" viewBox="0 0 52 40" fill="none" xmlns="http://www.w3.org/2000/svg">
<mask id="path-1-inside-1_2386_7885" fill="white">
<path d="M48.1734 13.973L46.7185 18.9408H45.9687C46.0379 18.7207 46.0828 18.5545 46.1113 18.4465C46.258 17.9522 46.3354 17.541 46.3354 17.2087C46.3354 16.7435 46.1398 16.4444 45.7486 16.324C45.3574 16.1994 44.4201 16.1371 42.9367 16.1371H39.8232L39.542 17.0218C38.3969 20.7601 37.1254 23.8754 35.7317 26.3759C34.3379 28.8764 32.5897 31.1568 30.4868 33.217C28.3433 35.3479 25.9103 37.0093 23.1881 38.2056C20.4658 39.4019 17.7639 40 15.0824 40C12.0505 40 9.32006 39.3396 6.8953 38.0228C4.7232 36.8557 3.03197 35.2066 1.82163 33.0758C0.60721 30.945 0 28.5774 0 25.9647C0 22.5171 1.07179 19.7549 3.21536 17.6822C5.35893 15.6096 8.20752 14.5711 11.7693 14.5711C15.7589 14.5711 20.0176 16.4444 24.5451 20.1952C26.053 21.4455 28.1436 23.4642 30.8129 26.2554L31.4404 26.8951C32.1129 25.7279 32.4511 24.4984 32.4511 23.2066C32.4511 21.2004 31.5953 19.5389 29.8837 18.2181C28.1721 16.8972 25.9226 16.1661 23.131 16.0125C23.4693 15.4226 23.7301 14.7622 23.9216 14.0353L38.2542 13.973C38.3602 13.6158 38.4417 13.3499 38.4987 13.1672C39.0937 11.0779 39.5787 9.5784 39.9536 8.66459C40.3326 7.75078 40.8176 6.90758 41.4085 6.13915C42.5129 4.6812 44.0288 3.30218 45.9564 1.99792C47.9248 0.66459 49.5956 0 50.969 0C51.2379 0 51.5802 0.0415369 52 0.124611C51.8248 1.16719 51.4254 2.7622 50.806 4.9055L50.6633 5.42056H49.9135C50.158 4.53998 50.2762 3.92523 50.2762 3.56802C50.2762 2.68744 49.8116 2.24714 48.8824 2.24714C47.4398 2.24714 46.0379 2.79543 44.6768 3.89616C43.9636 4.48598 43.4013 5.20457 42.9978 6.04777C42.5944 6.89097 42.0483 8.48183 41.3596 10.8162L40.5893 13.4746L40.4467 13.9688H48.1693L48.1734 13.973ZM37.6796 16.1371L28.4411 16.0748C29.8715 16.7352 31.0288 17.6989 31.9172 18.9699C32.8056 20.2409 33.2498 21.5701 33.2498 22.9574C33.2498 25.1132 32.4633 27.5057 30.8862 30.1267C27.0596 25.5119 23.3389 21.973 19.7241 19.514C16.1135 17.055 12.8288 15.8255 9.87837 15.8255C7.31912 15.8255 5.2 16.6687 3.521 18.3593C1.84201 20.0498 1.00251 22.1848 1.00251 24.7684C1.00251 28.6978 2.49404 31.9294 5.48119 34.4631C8.46834 36.9969 12.2705 38.2638 16.8959 38.2638C22.0307 38.2638 26.3831 36.3697 29.9448 32.5774C33.5107 28.785 36.0862 23.3022 37.6796 16.1329V16.1371Z"/>
</mask>
<path d="M48.1734 13.973L46.7185 18.9408H45.9687C46.0379 18.7207 46.0828 18.5545 46.1113 18.4465C46.258 17.9522 46.3354 17.541 46.3354 17.2087C46.3354 16.7435 46.1398 16.4444 45.7486 16.324C45.3574 16.1994 44.4201 16.1371 42.9367 16.1371H39.8232L39.542 17.0218C38.3969 20.7601 37.1254 23.8754 35.7317 26.3759C34.3379 28.8764 32.5897 31.1568 30.4868 33.217C28.3433 35.3479 25.9103 37.0093 23.1881 38.2056C20.4658 39.4019 17.7639 40 15.0824 40C12.0505 40 9.32006 39.3396 6.8953 38.0228C4.7232 36.8557 3.03197 35.2066 1.82163 33.0758C0.60721 30.945 0 28.5774 0 25.9647C0 22.5171 1.07179 19.7549 3.21536 17.6822C5.35893 15.6096 8.20752 14.5711 11.7693 14.5711C15.7589 14.5711 20.0176 16.4444 24.5451 20.1952C26.053 21.4455 28.1436 23.4642 30.8129 26.2554L31.4404 26.8951C32.1129 25.7279 32.4511 24.4984 32.4511 23.2066C32.4511 21.2004 31.5953 19.5389 29.8837 18.2181C28.1721 16.8972 25.9226 16.1661 23.131 16.0125C23.4693 15.4226 23.7301 14.7622 23.9216 14.0353L38.2542 13.973C38.3602 13.6158 38.4417 13.3499 38.4987 13.1672C39.0937 11.0779 39.5787 9.5784 39.9536 8.66459C40.3326 7.75078 40.8176 6.90758 41.4085 6.13915C42.5129 4.6812 44.0288 3.30218 45.9564 1.99792C47.9248 0.66459 49.5956 0 50.969 0C51.2379 0 51.5802 0.0415369 52 0.124611C51.8248 1.16719 51.4254 2.7622 50.806 4.9055L50.6633 5.42056H49.9135C50.158 4.53998 50.2762 3.92523 50.2762 3.56802C50.2762 2.68744 49.8116 2.24714 48.8824 2.24714C47.4398 2.24714 46.0379 2.79543 44.6768 3.89616C43.9636 4.48598 43.4013 5.20457 42.9978 6.04777C42.5944 6.89097 42.0483 8.48183 41.3596 10.8162L40.5893 13.4746L40.4467 13.9688H48.1693L48.1734 13.973ZM37.6796 16.1371L28.4411 16.0748C29.8715 16.7352 31.0288 17.6989 31.9172 18.9699C32.8056 20.2409 33.2498 21.5701 33.2498 22.9574C33.2498 25.1132 32.4633 27.5057 30.8862 30.1267C27.0596 25.5119 23.3389 21.973 19.7241 19.514C16.1135 17.055 12.8288 15.8255 9.87837 15.8255C7.31912 15.8255 5.2 16.6687 3.521 18.3593C1.84201 20.0498 1.00251 22.1848 1.00251 24.7684C1.00251 28.6978 2.49404 31.9294 5.48119 34.4631C8.46834 36.9969 12.2705 38.2638 16.8959 38.2638C22.0307 38.2638 26.3831 36.3697 29.9448 32.5774C33.5107 28.785 36.0862 23.3022 37.6796 16.1329V16.1371Z" fill="#26292C"/>
<path d="M48.1734 13.973L62.5687 18.1888L65.0415 9.74514L58.8786 3.46595L48.1734 13.973ZM46.7185 18.9408V33.9408H57.9556L61.1139 23.1566L46.7185 18.9408ZM45.9687 18.9408L31.6604 14.4381L25.523 33.9408H45.9687V18.9408ZM46.1113 18.4465L31.7313 14.1784L31.6667 14.3962L31.6087 14.6157L46.1113 18.4465ZM45.7486 16.324L41.1962 30.6165L41.2653 30.6385L41.3346 30.6598L45.7486 16.324ZM39.8232 16.1371V1.13707H28.8512L25.5278 11.5937L39.8232 16.1371ZM39.542 17.0218L25.2466 12.4784L25.2228 12.5533L25.1998 12.6284L39.542 17.0218ZM30.4868 33.217L19.9893 22.5025L19.9504 22.5405L19.9119 22.5789L30.4868 33.217ZM6.8953 38.0228L14.0534 24.841L14.0245 24.8253L13.9954 24.8097L6.8953 38.0228ZM1.82163 33.0758L14.8644 25.6673L14.8591 25.6579L14.8537 25.6485L1.82163 33.0758ZM24.5451 20.1952L34.1195 8.64832L34.1144 8.64408L24.5451 20.1952ZM30.8129 26.2554L19.972 36.6225L20.0384 36.6919L20.1056 36.7605L30.8129 26.2554ZM31.4404 26.8951L20.7332 37.4001L34.573 51.5064L44.4379 34.3829L31.4404 26.8951ZM23.131 16.0125L10.1188 8.55039L-1.98258 29.6526L22.3065 30.9898L23.131 16.0125ZM23.9216 14.0353L23.8564 -0.964552L12.3489 -0.914527L9.41673 10.2133L23.9216 14.0353ZM38.2542 13.973L38.3194 28.9729L49.4654 28.9244L52.635 18.2385L38.2542 13.973ZM38.4987 13.1672L52.8173 17.637L52.8735 17.4569L52.9252 17.2755L38.4987 13.1672ZM39.9536 8.66459L26.098 2.91808L26.0871 2.94448L26.0762 2.97092L39.9536 8.66459ZM41.4085 6.13915L53.2993 15.2829L53.3324 15.2398L53.3653 15.1964L41.4085 6.13915ZM45.9564 1.99792L54.3624 14.4213L54.3689 14.4169L45.9564 1.99792ZM52 0.124611L66.7925 2.61092L69.2081 -11.7606L54.9122 -14.59L52 0.124611ZM50.806 4.9055L36.3957 0.740798L36.3724 0.821371L36.35 0.902199L50.806 4.9055ZM50.6633 5.42056V20.4206H62.0739L65.1192 9.42387L50.6633 5.42056ZM49.9135 5.42056L35.4603 1.4073L30.1808 20.4206H49.9135V5.42056ZM44.6768 3.89616L35.2447 -7.76729L35.1806 -7.7154L35.117 -7.66281L44.6768 3.89616ZM41.3596 10.8162L26.9726 6.5716L26.9623 6.6067L26.9521 6.64186L41.3596 10.8162ZM40.5893 13.4746L26.1819 9.30021L26.1796 9.30798L26.1774 9.31574L40.5893 13.4746ZM40.4467 13.9688L26.0348 9.81003L20.5062 28.9688H40.4467V13.9688ZM48.1693 13.9688L58.8745 3.4618L54.4647 -1.03115H48.1693V13.9688ZM37.6796 16.1371L37.5785 31.1367L52.6796 31.2386V16.1371H37.6796ZM28.4411 16.0748L28.5422 1.07511L22.1532 29.6933L28.4411 16.0748ZM30.8862 30.1267L19.3396 39.7014L32.8367 55.9783L43.7388 37.8605L30.8862 30.1267ZM19.7241 19.514L11.2807 31.912L11.2872 31.9164L19.7241 19.514ZM29.9448 32.5774L19.0169 22.3021L19.0111 22.3083L29.9448 32.5774ZM37.6796 16.1329H52.6796L23.0369 12.8785L37.6796 16.1329ZM33.778 9.75721L32.3231 14.725L61.1139 23.1566L62.5687 18.1888L33.778 9.75721ZM46.7185 3.94081H45.9687V33.9408H46.7185V3.94081ZM60.2769 23.4436C60.443 22.9158 60.5541 22.5038 60.6139 22.2773L31.6087 14.6157C31.6064 14.6244 31.6139 14.5958 31.6253 14.5558C31.6365 14.5162 31.6484 14.4763 31.6604 14.4381L60.2769 23.4436ZM60.4913 22.7146C60.8121 21.6336 61.3354 19.6328 61.3354 17.2087H31.3354C31.3354 16.2465 31.4438 15.5021 31.5231 15.0684C31.605 14.6202 31.6924 14.3095 31.7313 14.1784L60.4913 22.7146ZM61.3354 17.2087C61.3354 14.9486 60.8614 11.6326 58.7023 8.36606C56.4187 4.91112 53.1791 2.91693 50.1626 1.98813L41.3346 30.6598C38.7093 29.8515 35.7631 28.0671 33.6751 24.9081C31.7117 21.9375 31.3354 19.0037 31.3354 17.2087H61.3354ZM50.301 2.03148C48.2167 1.36759 46.281 1.25232 45.7471 1.21683C44.8151 1.15488 43.8444 1.13707 42.9367 1.13707V31.1371C43.2062 31.1371 43.4116 31.1399 43.5609 31.1438C43.7148 31.1477 43.7737 31.1519 43.7573 31.1508C43.7464 31.15 43.7008 31.1469 43.6261 31.1396C43.5535 31.1326 43.4287 31.1192 43.2629 31.0959C43.1022 31.0733 42.8532 31.0344 42.5413 30.9699C42.243 30.9083 41.7717 30.7998 41.1962 30.6165L50.301 2.03148ZM42.9367 1.13707H39.8232V31.1371H42.9367V1.13707ZM25.5278 11.5937L25.2466 12.4784L53.8374 21.5652L54.1186 20.6805L25.5278 11.5937ZM25.1998 12.6284C24.2638 15.6841 23.3647 17.754 22.6294 19.073L48.8339 33.6788C50.8861 29.9968 52.5299 25.8362 53.8842 21.4152L25.1998 12.6284ZM22.6294 19.073C21.9556 20.2819 21.0942 21.42 19.9893 22.5025L40.9844 43.9316C44.0851 40.8936 46.7202 37.4709 48.8339 33.6788L22.6294 19.073ZM19.9119 22.5789C19.0605 23.4252 18.1618 24.0299 17.1535 24.473L29.2227 51.9382C33.6589 49.9888 37.626 47.2705 41.0618 43.8552L19.9119 22.5789ZM17.1535 24.473C16.1251 24.9249 15.4705 25 15.0824 25V55C20.0574 55 24.8065 53.8788 29.2227 51.9382L17.1535 24.473ZM15.0824 25C14.304 25 14.0739 24.8521 14.0534 24.841L-0.262835 51.2047C4.56623 53.827 9.79692 55 15.0824 55V25ZM13.9954 24.8097C14.0888 24.8599 14.269 24.9754 14.4695 25.1709C14.6706 25.3669 14.7996 25.5532 14.8644 25.6673L-11.2212 40.4843C-8.60674 45.087 -4.8484 48.7408 -0.204848 51.236L13.9954 24.8097ZM14.8537 25.6485C14.8766 25.6887 14.9031 25.7416 14.9284 25.8042C14.9538 25.8668 14.9728 25.9263 14.986 25.9776C15.0144 26.0885 15 26.0996 15 25.9647H-15C-15 31.0105 -13.7969 35.9649 -11.2104 40.5031L14.8537 25.6485ZM15 25.9647C15 25.7976 15.0239 26.1264 14.7873 26.7358C14.5336 27.3895 14.119 28.0046 13.6422 28.4656L-7.21145 6.89884C-12.7419 12.2464 -15 19.1457 -15 25.9647H15ZM13.6422 28.4656C13.1759 28.9165 12.6113 29.2554 12.0901 29.4451C11.6145 29.6181 11.442 29.5711 11.7693 29.5711V-0.428868C5.11068 -0.428868 -1.74756 1.61563 -7.21145 6.89884L13.6422 28.4656ZM11.7693 29.5711C10.9446 29.5711 11.908 29.2049 14.9759 31.7464L34.1144 8.64408C28.1271 3.68399 20.5732 -0.428868 11.7693 -0.428868V29.5711ZM14.9707 31.7421C15.7955 32.426 17.4066 33.9398 19.972 36.6225L41.6537 15.8884C38.8806 12.9885 36.3104 10.4649 34.1195 8.64832L14.9707 31.7421ZM20.1056 36.7605L20.7332 37.4001L42.1477 16.3901L41.5201 15.7504L20.1056 36.7605ZM44.4379 34.3829C46.3557 31.0539 47.4511 27.257 47.4511 23.2066H17.4511C17.4511 21.7399 17.87 20.4019 18.443 19.4073L44.4379 34.3829ZM47.4511 23.2066C47.4511 16.1446 44.1052 10.2458 39.0479 6.343L20.7195 30.0931C20.1066 29.6202 19.1979 28.7297 18.4725 27.3206C17.7288 25.8758 17.4511 24.4139 17.4511 23.2066H47.4511ZM39.0479 6.343C34.3024 2.6808 28.8679 1.30559 23.9556 1.03514L22.3065 30.9898C22.9772 31.0267 22.0418 31.1136 20.7195 30.0931L39.0479 6.343ZM36.1432 23.4745C37.2318 21.5763 37.9519 19.6587 38.4265 17.8573L9.41673 10.2133C9.50833 9.86566 9.70677 9.26892 10.1188 8.55039L36.1432 23.4745ZM23.9868 29.0352L38.3194 28.9729L38.189 -1.02686L23.8564 -0.964552L23.9868 29.0352ZM52.635 18.2385C52.7215 17.9468 52.7823 17.7491 52.8173 17.637L24.1802 8.69734C24.1011 8.95076 23.9989 9.28477 23.8735 9.70746L52.635 18.2385ZM52.9252 17.2755C53.1908 16.3428 53.409 15.6227 53.5818 15.088C53.7662 14.5172 53.8481 14.3165 53.831 14.3583L26.0762 2.97092C25.3601 4.71631 24.6854 6.90618 24.0723 9.05888L52.9252 17.2755ZM53.8092 14.4111C53.6995 14.6757 53.5321 14.9801 53.2993 15.2829L29.5177 -3.00464C28.103 -1.16493 26.9657 0.825891 26.098 2.91808L53.8092 14.4111ZM53.3653 15.1964C53.2462 15.3536 53.435 15.0488 54.3624 14.4213L37.5504 -10.4254C34.6227 -8.44443 31.7795 -5.99121 29.4516 -2.91812L53.3653 15.1964ZM54.3689 14.4169C54.7228 14.1772 54.6673 14.2625 54.2372 14.4339C53.8219 14.5993 52.6691 15 50.969 15V-15C45.121 -15 40.3998 -12.3556 37.544 -10.421L54.3689 14.4169ZM50.969 15C50.3588 15 49.892 14.9547 49.6264 14.9226C49.349 14.889 49.1612 14.8537 49.0878 14.8392L54.9122 -14.59C54.0326 -14.7641 52.619 -15 50.969 -15V15ZM37.2075 -2.3617C37.2104 -2.3788 37.1679 -2.13779 37.0171 -1.53455C36.8749 -0.965482 36.6719 -0.215003 36.3957 0.740798L65.2162 9.07021C65.8572 6.8522 66.4652 4.5584 66.7925 2.61092L37.2075 -2.3617ZM36.35 0.902199L36.2074 1.41726L65.1192 9.42387L65.2619 8.90881L36.35 0.902199ZM50.6633 -9.57944H49.9135V20.4206H50.6633V-9.57944ZM64.3666 9.43382C64.6015 8.58789 65.2762 6.19162 65.2762 3.56802H35.2762C35.2762 2.87559 35.3303 2.34499 35.3652 2.06036C35.4028 1.75356 35.443 1.53384 35.4635 1.42851C35.5021 1.23074 35.5171 1.2027 35.4603 1.4073L64.3666 9.43382ZM65.2762 3.56802C65.2762 0.603825 64.4547 -4.32127 60.246 -8.30999C56.1882 -12.1557 51.4643 -12.7529 48.8824 -12.7529V17.2471C47.2298 17.2471 43.2028 16.8701 39.6095 13.4647C35.8654 9.91629 35.2762 5.65163 35.2762 3.56802H65.2762ZM48.8824 -12.7529C43.3306 -12.7529 38.6976 -10.5596 35.2447 -7.76729L54.1089 15.5596C53.3783 16.1504 51.549 17.2471 48.8824 17.2471V-12.7529ZM35.117 -7.66281C32.7264 -5.68572 30.8093 -3.23189 29.4669 -0.42641L56.5287 12.5219C55.9932 13.641 55.2008 14.6577 54.2366 15.4551L35.117 -7.66281ZM29.4669 -0.42641C28.4792 1.6379 27.6388 4.31359 26.9726 6.5716L55.7465 15.0608C56.0537 14.0194 56.2944 13.2629 56.4721 12.7456C56.5597 12.4906 56.6162 12.3398 56.6424 12.2727C56.6748 12.1897 56.6371 12.2955 56.5287 12.5219L29.4669 -0.42641ZM26.9521 6.64186L26.1819 9.30021L54.9968 17.6489L55.767 14.9905L26.9521 6.64186ZM26.1774 9.31574L26.0348 9.81003L54.8587 18.1277L55.0013 17.6334L26.1774 9.31574ZM40.4467 28.9688H48.1693V-1.03115H40.4467V28.9688ZM37.464 24.4759L37.4681 24.48L58.8786 3.46595L58.8745 3.4618L37.464 24.4759ZM37.7808 1.13741L28.5422 1.07511L28.3399 31.0744L37.5785 31.1367L37.7808 1.13741ZM22.1532 29.6933C21.7328 29.4992 21.2571 29.2143 20.7833 28.8197C20.3084 28.4242 19.9205 27.9892 19.6228 27.5633L44.2117 10.3765C41.7749 6.89021 38.5288 4.21076 34.7289 2.45627L22.1532 29.6933ZM19.6228 27.5633C18.9662 26.624 18.2498 25.001 18.2498 22.9574H48.2498C48.2498 18.1392 46.645 13.8578 44.2117 10.3765L19.6228 27.5633ZM18.2498 22.9574C18.2498 22.2019 18.3881 21.7486 18.4127 21.674C18.4333 21.6115 18.3624 21.8466 18.0336 22.3929L43.7388 37.8605C46.1705 33.8193 48.2498 28.738 48.2498 22.9574H18.2498ZM42.4328 20.552C38.0176 15.2274 33.2829 10.5959 28.161 7.11166L11.2872 31.9164C13.3948 33.3501 16.1015 35.7965 19.3396 39.7014L42.4328 20.552ZM28.1676 7.11609C23.194 3.72895 16.9639 0.825544 9.87837 0.825544V30.8255C9.25473 30.8255 9.02528 30.6946 9.2924 30.7947C9.57674 30.9012 10.2359 31.2004 11.2807 31.9119L28.1676 7.11609ZM9.87837 0.825544C3.66048 0.825544 -2.39776 3.03247 -7.1219 7.78912L14.1639 28.9295C13.6192 29.4779 12.8545 30.0215 11.9211 30.3933C11.0099 30.7564 10.2668 30.8255 9.87837 30.8255V0.825544ZM-7.1219 7.78912C-11.8384 12.5381 -13.9975 18.5887 -13.9975 24.7684H16.0025C16.0025 25.1201 15.9406 25.8304 15.5926 26.7157C15.2355 27.6245 14.7081 28.3816 14.1639 28.9295L-7.1219 7.78912ZM-13.9975 24.7684C-13.9975 33.0819 -10.5855 40.5044 -4.22169 45.9023L15.1841 23.024C15.1698 23.0119 15.2471 23.0756 15.3664 23.2292C15.4884 23.3863 15.6224 23.5963 15.7394 23.8496C15.9952 24.4035 16.0025 24.7904 16.0025 24.7684H-13.9975ZM-4.22169 45.9023C1.94711 51.1348 9.38774 53.2638 16.8959 53.2638V23.2638C15.9518 23.2638 15.4734 23.1352 15.3136 23.082C15.2707 23.0677 15.2425 23.0562 15.2264 23.0491C15.2104 23.0421 15.2025 23.0378 15.2006 23.0367C15.1988 23.0357 15.1985 23.0354 15.1982 23.0352C15.1979 23.035 15.1934 23.0319 15.1841 23.024L-4.22169 45.9023ZM16.8959 53.2638C26.2258 53.2638 34.5186 49.6181 40.8786 42.8464L19.0111 22.3083C18.4906 22.8625 18.1565 23.0312 18.0196 23.0909C17.8865 23.1489 17.5746 23.2638 16.8959 23.2638V53.2638ZM40.8727 42.8526C46.8972 36.4455 50.3742 28.1523 52.3223 19.3874L23.0369 12.8785C21.7982 18.452 20.1242 21.1245 19.0169 22.3021L40.8727 42.8526ZM22.6796 16.1329V16.1371H52.6796V16.1329H22.6796Z" fill="#26292C" mask="url(#path-1-inside-1_2386_7885)"/>
</svg>
