<svg width="27" height="27" viewBox="0 0 27 27" fill="none" xmlns="http://www.w3.org/2000/svg">
<g clip-path="url(#clip0_2380_7861)">
<circle cx="13.5" cy="13.5" r="13.5" fill="black" fill-opacity="0.4"/>
<path d="M13.5 6C13.2348 6 12.9804 6.10536 12.7929 6.29289C12.6054 6.48043 12.5 6.73478 12.5 7C12.5 7.26522 12.6054 7.51957 12.7929 7.70711C12.9804 7.89464 13.2348 8 13.5 8C13.7652 8 14.0196 7.89464 14.2071 7.70711C14.3946 7.51957 14.5 7.26522 14.5 7C14.5 6.73478 14.3946 6.48043 14.2071 6.29289C14.0196 6.10536 13.7652 6 13.5 6Z" fill="white"/>
<path d="M13.5 12.4999C13.2348 12.4999 12.9804 12.6053 12.7929 12.7928C12.6054 12.9804 12.5 13.2347 12.5 13.4999C12.5 13.7651 12.6054 14.0195 12.7929 14.207C12.9804 14.3946 13.2348 14.4999 13.5 14.4999C13.7652 14.4999 14.0196 14.3946 14.2071 14.207C14.3946 14.0195 14.5 13.7651 14.5 13.4999C14.5 13.2347 14.3946 12.9804 14.2071 12.7928C14.0196 12.6053 13.7652 12.4999 13.5 12.4999Z" fill="white"/>
<path d="M13.5 19C13.2348 19 12.9804 19.1054 12.7929 19.2929C12.6054 19.4804 12.5 19.7348 12.5 20C12.5 20.2652 12.6054 20.5196 12.7929 20.7071C12.9804 20.8946 13.2348 21 13.5 21C13.7652 21 14.0196 20.8946 14.2071 20.7071C14.3946 20.5196 14.5 20.2652 14.5 20C14.5 19.7348 14.3946 19.4804 14.2071 19.2929C14.0196 19.1054 13.7652 19 13.5 19Z" fill="white"/>
<path d="M13.5 6C13.2348 6 12.9804 6.10536 12.7929 6.29289C12.6054 6.48043 12.5 6.73478 12.5 7C12.5 7.26522 12.6054 7.51957 12.7929 7.70711C12.9804 7.89464 13.2348 8 13.5 8C13.7652 8 14.0196 7.89464 14.2071 7.70711C14.3946 7.51957 14.5 7.26522 14.5 7C14.5 6.73478 14.3946 6.48043 14.2071 6.29289C14.0196 6.10536 13.7652 6 13.5 6Z" stroke="white" stroke-linecap="round" stroke-linejoin="round"/>
<path d="M13.5 12.4999C13.2348 12.4999 12.9804 12.6053 12.7929 12.7928C12.6054 12.9804 12.5 13.2347 12.5 13.4999C12.5 13.7651 12.6054 14.0195 12.7929 14.207C12.9804 14.3946 13.2348 14.4999 13.5 14.4999C13.7652 14.4999 14.0196 14.3946 14.2071 14.207C14.3946 14.0195 14.5 13.7651 14.5 13.4999C14.5 13.2347 14.3946 12.9804 14.2071 12.7928C14.0196 12.6053 13.7652 12.4999 13.5 12.4999Z" stroke="white" stroke-linecap="round" stroke-linejoin="round"/>
<path d="M13.5 19C13.2348 19 12.9804 19.1054 12.7929 19.2929C12.6054 19.4804 12.5 19.7348 12.5 20C12.5 20.2652 12.6054 20.5196 12.7929 20.7071C12.9804 20.8946 13.2348 21 13.5 21C13.7652 21 14.0196 20.8946 14.2071 20.7071C14.3946 20.5196 14.5 20.2652 14.5 20C14.5 19.7348 14.3946 19.4804 14.2071 19.2929C14.0196 19.1054 13.7652 19 13.5 19Z" stroke="white" stroke-linecap="round" stroke-linejoin="round"/>
</g>
<defs>
<clipPath id="clip0_2380_7861">
<rect width="27" height="27" fill="white"/>
</clipPath>
</defs>
</svg>
