<svg width="31" height="31" viewBox="0 0 31 31" fill="none" xmlns="http://www.w3.org/2000/svg">
<g clip-path="url(#clip0_2396_7909)">
<mask id="mask0_2396_7909" style="mask-type:luminance" maskUnits="userSpaceOnUse" x="0" y="0" width="31" height="31">
<path d="M31 0H0V31H31V0Z" fill="white"/>
</mask>
<g mask="url(#mask0_2396_7909)">
<path d="M15.5 31C24.0604 31 31 24.0604 31 15.5C31 6.93959 24.0604 0 15.5 0C6.93959 0 0 6.93959 0 15.5C0 24.0604 6.93959 31 15.5 31Z" fill="black" fill-opacity="0.4"/>
<path d="M15.5 6.88867C15.1955 6.88867 14.9034 7.00964 14.6881 7.22495C14.4728 7.44028 14.3518 7.73231 14.3518 8.03682C14.3518 8.34133 14.4728 8.63336 14.6881 8.84869C14.9034 9.064 15.1955 9.18497 15.5 9.18497C15.8044 9.18497 16.0965 9.064 16.3118 8.84869C16.5271 8.63336 16.6481 8.34133 16.6481 8.03682C16.6481 7.73231 16.5271 7.44028 16.3118 7.22495C16.0965 7.00964 15.8044 6.88867 15.5 6.88867Z" fill="white"/>
<path d="M15.5 14.3516C15.1955 14.3516 14.9034 14.4726 14.6881 14.6879C14.4728 14.9032 14.3518 15.1952 14.3518 15.4997C14.3518 15.8042 14.4728 16.0963 14.6881 16.3116C14.9034 16.527 15.1955 16.6479 15.5 16.6479C15.8044 16.6479 16.0965 16.527 16.3118 16.3116C16.5271 16.0963 16.6481 15.8042 16.6481 15.4997C16.6481 15.1952 16.5271 14.9032 16.3118 14.6879C16.0965 14.4726 15.8044 14.3516 15.5 14.3516Z" fill="white"/>
<path d="M15.5 21.8149C15.1955 21.8149 14.9034 21.936 14.6881 22.1512C14.4728 22.3665 14.3518 22.6586 14.3518 22.9631C14.3518 23.2676 14.4728 23.5597 14.6881 23.7749C14.9034 23.9902 15.1955 24.1112 15.5 24.1112C15.8044 24.1112 16.0965 23.9902 16.3118 23.7749C16.5271 23.5597 16.6481 23.2676 16.6481 22.9631C16.6481 22.6586 16.5271 22.3665 16.3118 22.1512C16.0965 21.936 15.8044 21.8149 15.5 21.8149Z" fill="white"/>
<path d="M15.5 6.88867C15.1955 6.88867 14.9034 7.00964 14.6881 7.22495C14.4728 7.44028 14.3518 7.73231 14.3518 8.03682C14.3518 8.34133 14.4728 8.63336 14.6881 8.84869C14.9034 9.064 15.1955 9.18497 15.5 9.18497C15.8044 9.18497 16.0965 9.064 16.3118 8.84869C16.5271 8.63336 16.6481 8.34133 16.6481 8.03682C16.6481 7.73231 16.5271 7.44028 16.3118 7.22495C16.0965 7.00964 15.8044 6.88867 15.5 6.88867Z" stroke="white" stroke-width="2" stroke-linecap="round" stroke-linejoin="round"/>
<path d="M15.5 14.3516C15.1955 14.3516 14.9034 14.4726 14.6881 14.6879C14.4728 14.9032 14.3518 15.1952 14.3518 15.4997C14.3518 15.8042 14.4728 16.0963 14.6881 16.3116C14.9034 16.527 15.1955 16.6479 15.5 16.6479C15.8044 16.6479 16.0965 16.527 16.3118 16.3116C16.5271 16.0963 16.6481 15.8042 16.6481 15.4997C16.6481 15.1952 16.5271 14.9032 16.3118 14.6879C16.0965 14.4726 15.8044 14.3516 15.5 14.3516Z" stroke="white" stroke-width="2" stroke-linecap="round" stroke-linejoin="round"/>
<path d="M15.5 21.8149C15.1955 21.8149 14.9034 21.936 14.6881 22.1512C14.4728 22.3665 14.3518 22.6586 14.3518 22.9631C14.3518 23.2676 14.4728 23.5597 14.6881 23.7749C14.9034 23.9902 15.1955 24.1112 15.5 24.1112C15.8044 24.1112 16.0965 23.9902 16.3118 23.7749C16.5271 23.5597 16.6481 23.2676 16.6481 22.9631C16.6481 22.6586 16.5271 22.3665 16.3118 22.1512C16.0965 21.936 15.8044 21.8149 15.5 21.8149Z" stroke="white" stroke-width="2" stroke-linecap="round" stroke-linejoin="round"/>
</g>
</g>
<defs>
<clipPath id="clip0_2396_7909">
<rect width="31" height="31" fill="white"/>
</clipPath>
</defs>
</svg>
