<svg style="vertical-align: bottom" width="25" height="25" viewBox="0 0 25 25" fill="none" xmlns="http://www.w3.org/2000/svg">
<path d="M18.2459 10.82L8.91925 4.81999C8.61721 4.62451 8.26804 4.51413 7.90853 4.50047C7.54901 4.4868 7.19247 4.57037 6.87647 4.74236C6.56047 4.91435 6.29672 5.1684 6.113 5.47773C5.92928 5.78706 5.83241 6.14022 5.83258 6.49999V18.5C5.83241 18.8598 5.92928 19.2129 6.113 19.5223C6.29672 19.8316 6.56047 20.0856 6.87647 20.2576C7.19247 20.4296 7.54901 20.5132 7.90853 20.4995C8.26804 20.4859 8.61721 20.3755 8.91925 20.18L18.2526 14.18C18.5333 13.9987 18.7641 13.7499 18.9239 13.4565C19.0837 13.163 19.1674 12.8342 19.1674 12.5C19.1674 12.1658 19.0837 11.837 18.9239 11.5435C18.7641 11.2501 18.5333 11.0013 18.2526 10.82" fill="white"/>
</svg>
