<svg style="vertical-align: bottom" width="25" height="25" viewBox="0 0 25 25" fill="none" xmlns="http://www.w3.org/2000/svg">
<path d="M19.3231 8.5C20.5101 9.68737 21.1769 11.2976 21.1769 12.9765C21.1769 14.6554 20.5101 16.2656 19.3231 17.453" stroke="white" stroke-width="2" stroke-linecap="round" stroke-linejoin="round"/>
<path d="M13.8231 6.20258C13.8231 5.34362 12.8115 4.88437 12.1649 5.44974L8.5502 8.60999C8.36795 8.76933 8.13408 8.85714 7.892 8.85714H4.82306C4.27077 8.85714 3.82306 9.30486 3.82306 9.85714V15.1429C3.82306 15.6951 4.27077 16.1429 4.82306 16.1429H7.892C8.13408 16.1429 8.36795 16.2307 8.5502 16.39L12.1649 19.5503C12.8115 20.1156 13.8231 19.6564 13.8231 18.7974V6.20258Z" stroke="white" stroke-width="2" stroke-linecap="round" stroke-linejoin="round"/>
</svg>
