<svg width="24" height="24" viewBox="0 0 24 24" fill="none" xmlns="http://www.w3.org/2000/svg">
<path d="M12.0127 8.00049H21.0001" stroke="#535B63" stroke-width="1.5" stroke-linecap="round"/>
<path d="M5 8.00098H6.68513" stroke="#535B63" stroke-width="1.5" stroke-linecap="round"/>
<path d="M9.53883 10.5C10.9065 10.5 12.0152 9.38071 12.0152 8C12.0152 6.61929 10.9065 5.5 9.53883 5.5C8.17119 5.5 7.0625 6.61929 7.0625 8C7.0625 9.38071 8.17119 10.5 9.53883 10.5Z" stroke="#535B63" stroke-width="1.5" stroke-linecap="round"/>
<path d="M13.9873 15.9995L4.99992 15.9995" stroke="#1F9EFF" stroke-width="1.5" stroke-linecap="round"/>
<path d="M21 15.999H19.3149" stroke="#1F9EFF" stroke-width="1.5" stroke-linecap="round"/>
<path d="M16.4612 13.5C15.0935 13.5 13.9848 14.6193 13.9848 16C13.9848 17.3807 15.0935 18.5 16.4612 18.5C17.8288 18.5 18.9375 17.3807 18.9375 16C18.9375 14.6193 17.8288 13.5 16.4612 13.5Z" stroke="#1F9EFF" stroke-width="1.5" stroke-linecap="round"/>
</svg>
