<svg xmlns="http://www.w3.org/2000/svg" width="26" height="26" viewBox="0 0 26 26" fill="none">
  <mask id="path-1-inside-1_4407_9477" fill="white">
    <path d="M18.6464 16.8445L14.0096 21.5421L15.0806 22.6278L19.7177 17.9299L18.6464 16.8445ZM20.8321 12.7897C20.5241 14.3589 19.763 15.7132 18.6464 16.8445L19.7177 17.9299C21.0462 16.5838 21.9509 14.8689 22.3175 13.002L20.8321 12.7897ZM20.3777 8.11575C20.982 9.5939 21.1402 11.2204 20.8321 12.7897L22.3175 13.002C22.684 11.135 22.4959 9.19988 21.7768 7.44126L20.3777 8.11575ZM17.4368 4.4853C18.7499 5.37418 19.7733 6.63758 20.3777 8.11575L21.7768 7.44126C21.0577 5.68263 19.8401 4.17952 18.2778 3.12198L17.4368 4.4853ZM13.0006 3.12198C14.5798 3.12198 16.1236 3.59642 17.4368 4.4853L18.2778 3.12198C16.7156 2.06446 14.8789 1.5 13 1.5L13.0006 3.12198ZM8.56442 4.4853C9.87753 3.59642 11.4213 3.12198 13.0006 3.12198L13 1.5C11.121 1.5 9.28439 2.06446 7.72213 3.12198L8.56442 4.4853ZM5.62348 8.11575C6.22786 6.63758 7.25132 5.37418 8.56442 4.4853L7.72213 3.12198C6.15988 4.17952 4.94223 5.68263 4.22319 7.44126L5.62348 8.11575ZM5.16843 12.7026C4.86036 11.1333 5.01911 9.5939 5.62348 8.11575L4.22319 7.44126C3.50415 9.19988 3.31599 11.135 3.68251 13.002L5.16843 12.7026ZM7.35362 16.8445C6.23694 15.7132 5.47649 14.2718 5.16843 12.7026L3.68251 13.002C4.04903 14.8689 4.95377 16.5838 6.28231 17.9299L7.35362 16.8445ZM11.9915 21.5421L7.35362 16.8445L6.28231 17.9299L10.9203 22.6276L11.9915 21.5421ZM13.0006 21.9651C12.622 21.9651 12.2593 21.8131 11.9915 21.5421L10.9203 22.6276C11.4721 23.1861 12.2204 23.5 13.0006 23.5V21.9651ZM14.0096 21.5421C13.7417 21.8131 13.379 21.9651 13.0006 21.9651V23.5C13.7806 23.5 14.5287 23.1863 15.0806 22.6278L14.0096 21.5421ZM8.96394 11.1241C8.96394 12.2086 9.38915 13.2486 10.146 14.0154L11.2173 12.9301C10.7446 12.4511 10.479 11.8015 10.479 11.1241H8.96394ZM10.146 8.23291C9.38915 8.99972 8.96394 10.0397 8.96394 11.1241H10.479C10.479 10.4468 10.7446 9.7972 11.2173 9.31824L10.146 8.23291ZM12.9999 7.03531C11.9295 7.03531 10.9029 7.4661 10.146 8.23291L11.2173 9.31824C11.6901 8.83927 12.3312 8.5702 12.9999 8.5702V7.03531ZM15.8537 8.23291C15.0969 7.4661 14.0703 7.03531 12.9999 7.03531V8.5702C13.6685 8.5702 14.3097 8.83927 14.7825 9.31824L15.8537 8.23291ZM17.0358 11.1241C17.0358 10.0397 16.6106 8.99972 15.8537 8.23291L14.7825 9.31824C15.2552 9.7972 15.5208 10.4468 15.5208 11.1241H17.0358ZM15.8537 14.0154C16.6106 13.2486 17.0358 12.2086 17.0358 11.1241H15.5208C15.5208 11.8015 15.2552 12.4511 14.7825 12.9301L15.8537 14.0154ZM12.9999 15.213C14.0703 15.213 15.0969 14.7822 15.8537 14.0154L14.7825 12.9301C14.3097 13.4091 13.6685 13.6781 12.9999 13.6781V15.213ZM10.146 14.0154C10.9029 14.7822 11.9295 15.213 12.9999 15.213V13.6781C12.3312 13.6781 11.6901 13.4091 11.2173 12.9301L10.146 14.0154Z"/>
  </mask>
  <path d="M18.6464 16.8445L14.0096 21.5421L15.0806 22.6278L19.7177 17.9299L18.6464 16.8445ZM20.8321 12.7897C20.5241 14.3589 19.763 15.7132 18.6464 16.8445L19.7177 17.9299C21.0462 16.5838 21.9509 14.8689 22.3175 13.002L20.8321 12.7897ZM20.3777 8.11575C20.982 9.5939 21.1402 11.2204 20.8321 12.7897L22.3175 13.002C22.684 11.135 22.4959 9.19988 21.7768 7.44126L20.3777 8.11575ZM17.4368 4.4853C18.7499 5.37418 19.7733 6.63758 20.3777 8.11575L21.7768 7.44126C21.0577 5.68263 19.8401 4.17952 18.2778 3.12198L17.4368 4.4853ZM13.0006 3.12198C14.5798 3.12198 16.1236 3.59642 17.4368 4.4853L18.2778 3.12198C16.7156 2.06446 14.8789 1.5 13 1.5L13.0006 3.12198ZM8.56442 4.4853C9.87753 3.59642 11.4213 3.12198 13.0006 3.12198L13 1.5C11.121 1.5 9.28439 2.06446 7.72213 3.12198L8.56442 4.4853ZM5.62348 8.11575C6.22786 6.63758 7.25132 5.37418 8.56442 4.4853L7.72213 3.12198C6.15988 4.17952 4.94223 5.68263 4.22319 7.44126L5.62348 8.11575ZM5.16843 12.7026C4.86036 11.1333 5.01911 9.5939 5.62348 8.11575L4.22319 7.44126C3.50415 9.19988 3.31599 11.135 3.68251 13.002L5.16843 12.7026ZM7.35362 16.8445C6.23694 15.7132 5.47649 14.2718 5.16843 12.7026L3.68251 13.002C4.04903 14.8689 4.95377 16.5838 6.28231 17.9299L7.35362 16.8445ZM11.9915 21.5421L7.35362 16.8445L6.28231 17.9299L10.9203 22.6276L11.9915 21.5421ZM13.0006 21.9651C12.622 21.9651 12.2593 21.8131 11.9915 21.5421L10.9203 22.6276C11.4721 23.1861 12.2204 23.5 13.0006 23.5V21.9651ZM14.0096 21.5421C13.7417 21.8131 13.379 21.9651 13.0006 21.9651V23.5C13.7806 23.5 14.5287 23.1863 15.0806 22.6278L14.0096 21.5421ZM8.96394 11.1241C8.96394 12.2086 9.38915 13.2486 10.146 14.0154L11.2173 12.9301C10.7446 12.4511 10.479 11.8015 10.479 11.1241H8.96394ZM10.146 8.23291C9.38915 8.99972 8.96394 10.0397 8.96394 11.1241H10.479C10.479 10.4468 10.7446 9.7972 11.2173 9.31824L10.146 8.23291ZM12.9999 7.03531C11.9295 7.03531 10.9029 7.4661 10.146 8.23291L11.2173 9.31824C11.6901 8.83927 12.3312 8.5702 12.9999 8.5702V7.03531ZM15.8537 8.23291C15.0969 7.4661 14.0703 7.03531 12.9999 7.03531V8.5702C13.6685 8.5702 14.3097 8.83927 14.7825 9.31824L15.8537 8.23291ZM17.0358 11.1241C17.0358 10.0397 16.6106 8.99972 15.8537 8.23291L14.7825 9.31824C15.2552 9.7972 15.5208 10.4468 15.5208 11.1241H17.0358ZM15.8537 14.0154C16.6106 13.2486 17.0358 12.2086 17.0358 11.1241H15.5208C15.5208 11.8015 15.2552 12.4511 14.7825 12.9301L15.8537 14.0154ZM12.9999 15.213C14.0703 15.213 15.0969 14.7822 15.8537 14.0154L14.7825 12.9301C14.3097 13.4091 13.6685 13.6781 12.9999 13.6781V15.213ZM10.146 14.0154C10.9029 14.7822 11.9295 15.213 12.9999 15.213V13.6781C12.3312 13.6781 11.6901 13.4091 11.2173 12.9301L10.146 14.0154Z" fill="black"/>
  <path d="M10.4501 25.0535L11.5211 26.1392L18.6401 19.1164L17.5691 18.0307L10.4501 25.0535ZM23.2763 14.4176L22.205 13.3322L15.0878 20.3568L16.1591 21.4422L23.2763 14.4176ZM23.0249 8.0523L21.5395 7.84L20.1247 17.7394L21.6101 17.9517L23.0249 8.0523ZM19.6055 2.93732L18.2064 3.61181L22.549 12.6197L23.9481 11.9452L19.6055 2.93732ZM14.0223 0.496889L13.1813 1.86021L21.6923 7.11039L22.5333 5.74707L14.0223 0.496889ZM8 1.50185L8.0006 3.12383L18.0006 3.12013L18 1.49815L8 1.50185ZM3.46847 5.74998L4.31076 7.1133L12.8181 1.8573L11.9758 0.493975L3.46847 5.74998ZM2.05339 11.9459L3.45368 12.6204L7.79328 3.61109L6.39299 2.9366L2.05339 11.9459ZM4.67012 17.9035L6.15604 17.6041L4.18082 7.80111L2.6949 8.10051L4.67012 17.9035ZM9.84086 21.4423L10.9122 20.3569L3.79506 13.3321L2.72375 14.4175L9.84086 21.4423ZM14.4792 26.1396L15.5504 25.0541L8.4326 18.0301L7.3614 19.1156L14.4792 26.1396ZM18.0006 23.5V21.9651H8.0006V23.5H18.0006ZM13.7044 17.5279L14.7757 16.4426L7.65889 9.41759L6.58759 10.5029L13.7044 17.5279ZM10.479 6.1241H8.96394V16.1241H10.479V6.1241ZM14.7758 5.80578L13.7045 4.72045L6.58754 11.7454L7.65884 12.8307L14.7758 5.80578ZM17.9999 8.5702V7.03531H7.9999V8.5702H17.9999ZM18.3411 12.8305L19.4123 11.7452L12.2951 4.72062L11.2239 5.80595L18.3411 12.8305ZM15.5208 16.1241H17.0358V6.1241H15.5208V16.1241ZM11.2239 16.4424L12.2951 17.5277L19.4123 10.5031L18.3411 9.41776L11.2239 16.4424ZM7.9999 13.6781V15.213H17.9999V13.6781H7.9999ZM18.6464 16.8445L25.7634 23.8694L25.7636 23.8692L18.6464 16.8445ZM14.0096 21.5421L21.1212 28.5724L21.1266 28.567L14.0096 21.5421ZM15.0806 22.6278L22.1936 29.6567L22.1976 29.6527L15.0806 22.6278ZM19.7177 17.9299L26.8347 24.9548L26.8351 24.9543L19.7177 17.9299ZM20.8321 12.7897L11.0194 10.8632L11.0193 10.8637L20.8321 12.7897ZM22.3175 13.002L32.1301 14.9289L32.1302 14.9283L22.3175 13.002ZM20.3777 8.11575L29.634 4.33156L29.6338 4.33106L20.3777 8.11575ZM21.7768 7.44126L12.5207 11.2261L12.5207 11.2261L21.7768 7.44126ZM17.4368 4.4853L23.0425 -3.79576L23.0422 -3.79596L17.4368 4.4853ZM18.2778 3.12198L12.672 11.403L12.6722 11.4031L18.2778 3.12198ZM8.56442 4.4853L2.95873 -3.79578L2.9587 -3.79576L8.56442 4.4853ZM7.72213 3.12198L2.1165 -5.15914L2.1164 -5.15907L7.72213 3.12198ZM5.62348 8.11575L-3.63271 4.33117L-3.63271 4.33118L5.62348 8.11575ZM4.22319 7.44126L13.4794 11.2258L13.4794 11.2258L4.22319 7.44126ZM5.16843 12.7026L-4.64428 14.6289L-4.64427 14.629L5.16843 12.7026ZM3.68251 13.002L-6.13019 14.9284L-6.13017 14.9285L3.68251 13.002ZM7.35362 16.8445L0.236714 23.8694L0.237461 23.8702L7.35362 16.8445ZM6.28231 17.9299L-0.83503 24.9544L-0.83384 24.9556L6.28231 17.9299ZM11.9915 21.5421L4.87534 28.5678L4.87856 28.571L11.9915 21.5421ZM10.9203 22.6276L3.80415 29.6533L3.80669 29.6559L10.9203 22.6276ZM10.146 14.0154L3.02891 21.0401L3.02914 21.0404L10.146 14.0154ZM11.2173 12.9301L4.09958 19.9542L4.10032 19.955L11.2173 12.9301ZM10.146 8.23291L3.02909 1.20798L3.02886 1.20822L10.146 8.23291ZM11.2173 9.31824L4.10054 2.29316L4.09987 2.29384L11.2173 9.31824ZM15.8537 8.23291L8.73633 15.2574L8.73679 15.2578L15.8537 8.23291ZM14.7825 9.31824L21.8999 2.29384L21.8993 2.29316L14.7825 9.31824ZM15.8537 14.0154L8.73684 6.99042L8.73637 6.99089L15.8537 14.0154ZM14.7825 12.9301L21.8995 19.955L21.9002 19.9542L14.7825 12.9301ZM11.5294 9.81964L6.89262 14.5172L21.1266 28.567L25.7634 23.8694L11.5294 9.81964ZM22.1976 29.6527L26.8347 24.9548L12.6007 10.905L7.96363 15.6029L22.1976 29.6527ZM11.0193 10.8637C11.0633 10.6396 11.1465 10.4076 11.261 10.1973C11.3728 9.99224 11.4807 9.86898 11.5292 9.81982L25.7636 23.8692C28.1352 21.4663 29.9257 18.3795 30.6449 14.7157L11.0193 10.8637ZM26.8351 24.9543C29.5519 22.2016 31.3875 18.7103 32.1301 14.9289L12.5049 11.0751C12.5143 11.0275 12.5405 10.966 12.6003 10.9055L26.8351 24.9543ZM11.1214 11.8999C10.9854 11.5673 10.9517 11.2084 11.0194 10.8632L30.6448 14.7162C31.3287 11.2324 30.9786 7.62046 29.634 4.33156L11.1214 11.8999ZM32.1302 14.9283C32.8724 11.1473 32.4927 7.22655 31.0329 3.65644L12.5207 11.2261C12.4991 11.1732 12.4956 11.1227 12.5048 11.0757L32.1302 14.9283ZM11.8311 12.7664C11.498 12.5409 11.2581 12.2343 11.1216 11.9004L29.6338 4.33106C28.2885 1.04088 26.0018 -1.7925 23.0425 -3.79576L11.8311 12.7664ZM31.0329 3.65646C29.5729 0.0858161 27.0919 -2.98726 23.8834 -5.15916L12.6722 11.4031C12.5883 11.3463 12.5425 11.2794 12.5207 11.2261L31.0329 3.65646ZM13.0006 13.122C12.5727 13.122 12.1656 12.9928 11.8314 12.7666L23.0422 -3.79596C20.0816 -5.79995 16.5869 -6.87802 13.0006 -6.87802V13.122ZM23.8836 -5.15904C20.6737 -7.33196 16.8859 -8.5 13 -8.5V11.5C12.8719 11.5 12.7575 11.4609 12.672 11.403L23.8836 -5.15904ZM14.1701 12.7664C13.8356 12.9928 13.4283 13.122 13.0006 13.122V-6.87802C9.41428 -6.87802 5.91948 -5.79999 2.95873 -3.79578L14.1701 12.7664ZM13 -8.5C9.11393 -8.5 5.32632 -7.33192 2.1165 -5.15914L13.3278 11.4031C13.2425 11.4608 13.1281 11.5 13 11.5V-8.5ZM14.8797 11.9003C14.7431 12.2345 14.5031 12.541 14.1701 12.7664L2.9587 -3.79576C-0.000437347 -1.79262 -2.28733 1.04071 -3.63271 4.33117L14.8797 11.9003ZM2.1164 -5.15907C-1.09186 -2.98729 -3.57297 0.0857475 -5.03302 3.65673L13.4794 11.2258C13.4574 11.2795 13.4116 11.3463 13.3279 11.403L2.1164 -5.15907ZM14.9811 10.7763C15.011 10.9285 15.0276 11.1363 15.004 11.3719C14.9805 11.6062 14.9253 11.7886 14.8797 11.9003L-3.63271 4.33118C-4.9621 7.58257 -5.33595 11.1056 -4.64428 14.6289L14.9811 10.7763ZM-5.03301 3.65671C-6.49255 7.22645 -6.87251 11.1471 -6.13019 14.9284L13.4952 11.0756C13.5045 11.1229 13.5009 11.1733 13.4794 11.2258L-5.03301 3.65671ZM14.4705 9.81957C14.7425 10.0951 14.9132 10.4304 14.9811 10.7762L-4.64427 14.629C-3.96026 18.1132 -2.26862 21.3313 0.236714 23.8694L14.4705 9.81957ZM-6.13017 14.9285C-5.38769 18.7104 -3.55179 22.2017 -0.83503 24.9544L13.3996 10.9054C13.4593 10.9659 13.4857 11.0274 13.4952 11.0755L-6.13017 14.9285ZM19.1077 14.5164L14.4698 9.81881L0.237461 23.8702L4.87534 28.5678L19.1077 14.5164ZM-0.83384 24.9556L3.80415 29.6533L18.0364 15.6019L13.3985 10.9042L-0.83384 24.9556ZM13.0006 11.9651C15.3127 11.9651 17.5062 12.8958 19.1044 14.5132L4.87856 28.571C7.0124 30.7304 9.93134 31.9651 13.0006 31.9651V11.9651ZM3.80669 29.6559C6.22299 32.1015 9.52716 33.5 13.0006 33.5V13.5C14.9136 13.5 16.7212 14.2707 18.0339 15.5993L3.80669 29.6559ZM6.89797 14.5118C8.49479 12.8965 10.6873 11.9651 13.0006 11.9651V31.9651C16.0707 31.9651 18.9886 30.7297 21.1212 28.5724L6.89797 14.5118ZM13.0006 33.5C16.4733 33.5 19.7771 32.1021 22.1936 29.6567L7.96763 15.5989C9.2803 14.2705 11.0878 13.5 13.0006 13.5V33.5ZM-1.03606 11.1241C-1.03606 14.8189 0.411419 18.3882 3.02891 21.0401L17.2631 6.99066C18.3669 8.10896 18.9639 9.59827 18.9639 11.1241H-1.03606ZM18.335 5.906C19.7223 7.31175 20.479 9.19106 20.479 11.1241H0.478999C0.478999 14.4119 1.76692 17.5905 4.09958 19.9542L18.335 5.906ZM3.02886 1.20822C0.411552 3.85997 -1.03606 7.42917 -1.03606 11.1241H18.9639C18.9639 12.6502 18.3667 14.1395 17.2631 15.2576L3.02886 1.20822ZM20.479 11.1241C20.479 13.0574 19.7222 14.9368 18.3347 16.3426L4.09987 2.29384C1.76702 4.65758 0.478999 7.83623 0.478999 11.1241H20.479ZM12.9999 -2.96469C9.23508 -2.96469 5.65107 -1.44832 3.02909 1.20798L17.2629 15.2578C16.1547 16.3805 14.6239 17.0353 12.9999 17.0353V-2.96469ZM18.3341 16.3433C16.9421 17.7535 15.0259 18.5702 12.9999 18.5702V-1.4298C9.63648 -1.4298 6.43814 -0.0749467 4.10054 2.29316L18.3341 16.3433ZM22.9711 1.20845C20.3489 -1.44838 16.7646 -2.96469 12.9999 -2.96469V17.0353C11.376 17.0353 9.84488 16.3806 8.73633 15.2574L22.9711 1.20845ZM12.9999 18.5702C10.974 18.5702 9.05789 17.7536 7.66574 16.3433L21.8993 2.29316C19.5615 -0.0751 16.363 -1.4298 12.9999 -1.4298V18.5702ZM27.0358 11.1241C27.0358 7.4292 25.5882 3.85985 22.9706 1.20798L8.73679 15.2578C7.633 14.1396 7.0358 12.6502 7.0358 11.1241H27.0358ZM7.66507 16.3426C6.27762 14.9368 5.5208 13.0574 5.5208 11.1241H25.5208C25.5208 7.83623 24.2328 4.65759 21.8999 2.29384L7.66507 16.3426ZM22.9706 21.0404C25.5883 18.3884 27.0358 14.8189 27.0358 11.1241H7.0358C7.0358 9.59829 7.63286 8.10884 8.73684 6.99042L22.9706 21.0404ZM5.5208 11.1241C5.5208 9.19107 6.27751 7.31175 7.66478 5.906L21.9002 19.9542C24.2329 17.5904 25.5208 14.4119 25.5208 11.1241H5.5208ZM12.9999 25.213C16.7647 25.213 20.3489 23.6966 22.971 21.0399L8.73637 6.99089C9.84487 5.86775 11.3759 5.213 12.9999 5.213V25.213ZM7.66552 5.90524C9.05825 4.49425 10.9747 3.6781 12.9999 3.6781V23.6781C16.3623 23.6781 19.5611 22.324 21.8995 19.955L7.66552 5.90524ZM3.02914 21.0404C5.65105 23.6966 9.23503 25.213 12.9999 25.213V5.213C14.624 5.213 16.1547 5.86781 17.2629 6.99042L3.02914 21.0404ZM12.9999 3.6781C15.0252 3.6781 16.9417 4.4944 18.3343 5.90524L4.10032 19.955C6.4385 22.3238 9.63717 23.6781 12.9999 23.6781V3.6781Z" fill="black" mask="url(#path-1-inside-1_4407_9477)"/>
</svg>