<svg width="26" height="26" viewBox="0 0 26 26" fill="none" xmlns="http://www.w3.org/2000/svg">
<path d="M18.6464 17.3445L14.0096 22.0421L15.0806 23.1278L19.7177 18.4299L18.6464 17.3445ZM20.8315 13.2026C20.5235 14.7718 19.763 16.2132 18.6464 17.3445L19.7177 18.4299C21.0462 17.0838 21.9509 15.3689 22.3175 13.502L20.8315 13.2026ZM20.3771 8.52865C20.9814 10.0068 21.1396 11.6333 20.8315 13.2026L22.3175 13.502C22.684 11.635 22.4959 9.69988 21.7768 7.94126L20.3771 8.52865ZM17.4362 4.8982C18.7493 5.78708 19.7727 7.05048 20.3771 8.52865L21.7768 7.94126C21.0577 6.18263 19.8401 4.67952 18.2778 3.62198L17.4362 4.8982ZM13 3.53488C14.5792 3.53488 16.123 4.00932 17.4362 4.8982L18.2778 3.62198C16.7156 2.56446 14.8789 2 13 2V3.53488ZM8.56382 4.8982C9.87693 4.00932 11.4207 3.53488 13 3.53488V2C11.121 2 9.28439 2.56446 7.72213 3.62198L8.56382 4.8982ZM5.62288 8.52865C6.22726 7.05048 7.25072 5.78708 8.56382 4.8982L7.72213 3.62198C6.15988 4.67952 4.94223 6.18263 4.22319 7.94126L5.62288 8.52865ZM5.16843 13.2026C4.86036 11.6333 5.01851 10.0068 5.62288 8.52865L4.22319 7.94126C3.50415 9.69988 3.31599 11.635 3.68251 13.502L5.16843 13.2026ZM7.35362 17.3445C6.23694 16.2132 5.47649 14.7718 5.16843 13.2026L3.68251 13.502C4.04903 15.3689 4.95377 17.0838 6.28231 18.4299L7.35362 17.3445ZM11.9915 22.0421L7.35362 17.3445L6.28231 18.4299L10.9203 23.1276L11.9915 22.0421ZM13.0006 22.4651C12.622 22.4651 12.2593 22.3131 11.9915 22.0421L10.9203 23.1276C11.4721 23.6861 12.2204 24 13.0006 24V22.4651ZM14.0096 22.0421C13.7417 22.3131 13.379 22.4651 13.0006 22.4651V24C13.7806 24 14.5287 23.6863 15.0806 23.1278L14.0096 22.0421ZM8.96394 11.6241C8.96394 12.7086 9.38915 13.7486 10.146 14.5154L11.2173 13.4301C10.7446 12.9511 10.479 12.3015 10.479 11.6241H8.96394ZM10.146 8.73291C9.38915 9.49972 8.96394 10.5397 8.96394 11.6241H10.479C10.479 10.9468 10.7446 10.2972 11.2173 9.81824L10.146 8.73291ZM12.9999 7.53531C11.9295 7.53531 10.9029 7.9661 10.146 8.73291L11.2173 9.81824C11.6901 9.33927 12.3312 9.0702 12.9999 9.0702V7.53531ZM15.8537 8.73291C15.0969 7.9661 14.0703 7.53531 12.9999 7.53531V9.0702C13.6685 9.0702 14.3097 9.33927 14.7825 9.81824L15.8537 8.73291ZM17.0358 11.6241C17.0358 10.5397 16.6106 9.49972 15.8537 8.73291L14.7825 9.81824C15.2552 10.2972 15.5208 10.9468 15.5208 11.6241H17.0358ZM15.8537 14.5154C16.6106 13.7486 17.0358 12.7086 17.0358 11.6241H15.5208C15.5208 12.3015 15.2552 12.9511 14.7825 13.4301L15.8537 14.5154ZM12.9999 15.713C14.0703 15.713 15.0969 15.2822 15.8537 14.5154L14.7825 13.4301C14.3097 13.9091 13.6685 14.1781 12.9999 14.1781V15.713ZM10.146 14.5154C10.9029 15.2822 11.9295 15.713 12.9999 15.713V14.1781C12.3312 14.1781 11.6901 13.9091 11.2173 13.4301L10.146 14.5154Z" fill="#535B63"/>
</svg>
