<svg width="15" height="15" viewBox="0 0 15 15" fill="none" xmlns="http://www.w3.org/2000/svg">
<g clip-path="url(#clip0_2353_8294)">
<path d="M14.0247 2.83325V6.33325H10.5247" stroke="#1F9EFF" stroke-width="2" stroke-linecap="round" stroke-linejoin="round"/>
<path d="M12.5605 9.25009C12.1813 10.3234 11.4636 11.2443 10.5154 11.8742C9.56728 12.5041 8.4401 12.8087 7.30375 12.7423C6.16739 12.6758 5.08343 12.2418 4.21519 11.5056C3.34696 10.7695 2.7415 9.77113 2.49005 8.66096C2.2386 7.55078 2.35478 6.38895 2.82109 5.35055C3.2874 4.31214 4.07857 3.45343 5.07538 2.9038C6.07218 2.35416 7.22063 2.1434 8.34765 2.30326C9.47466 2.46311 10.5192 2.98494 11.3238 3.79009L14.0247 6.33342" stroke="#1F9EFF" stroke-width="1.5" stroke-linecap="round" stroke-linejoin="round"/>
</g>
<defs>
<clipPath id="clip0_2353_8294">
<rect width="14" height="14" fill="white" transform="translate(0.60791 0.5)"/>
</clipPath>
</defs>
</svg>
