<svg xmlns="http://www.w3.org/2000/svg" width="24" height="24" viewBox="0 0 24 24" fill="none">
  <path d="M10.665 10.9199C10.2527 10.9199 9.91504 11.2499 9.91504 11.6622C9.91504 12.0823 10.2527 12.4199 10.665 12.4199C11.0854 12.4199 11.415 12.0823 11.415 11.6622C11.415 11.2499 11.0854 10.9199 10.665 10.9199ZM10.665 15.6074C10.2527 15.6074 9.91504 15.9447 9.91504 16.3574C9.91504 16.7771 10.2527 17.1147 10.665 17.1147C11.0854 17.1147 11.415 16.7771 11.415 16.3574C11.415 15.9447 11.0854 15.6074 10.665 15.6074Z" fill="black"/>
  <path d="M19.8354 13.6756V4.81384C19.8354 3.68628 18.9185 2.76892 17.7905 2.76892H15.6262V2.25C15.6262 1.83582 15.2908 1.5 14.8762 1.5C14.4617 1.5 14.1262 1.83582 14.1262 2.25V2.76892H7.2085V2.25C7.2085 1.83582 6.87305 1.5 6.4585 1.5C6.04395 1.5 5.7085 1.83582 5.7085 2.25V2.76892H3.54492C2.41699 2.76892 1.5 3.68628 1.5 4.81384V17.7902C1.5 18.9177 2.41699 19.8351 3.54492 19.8351H13.6755C14.418 21.4071 16.0143 22.5 17.8652 22.5C20.4207 22.5 22.5 20.4207 22.5 17.8649C22.5 16.0143 21.4072 14.4181 19.8354 13.6756ZM17.8652 21C16.136 21 14.7297 19.5938 14.7297 17.8649C14.7297 16.136 16.136 14.7297 17.8652 14.7297C19.5938 14.7297 21 16.136 21 17.8649C21 19.5938 19.5938 21 17.8652 21ZM3 4.81384C3 4.51355 3.24463 4.26892 3.54492 4.26892H5.7085V5.52136C5.51294 5.65649 5.38477 5.88245 5.38477 6.13843C5.38477 6.55261 5.72021 6.88843 6.13477 6.88843H6.4585C6.87305 6.88843 7.2085 6.55261 7.2085 6.13843V4.26892H14.1262V5.52136C13.9307 5.65649 13.8025 5.88245 13.8025 6.13843C13.8025 6.55261 14.1379 6.88843 14.5525 6.88843H14.8762C15.2908 6.88843 15.6262 6.55261 15.6262 6.13843V4.26892H17.7905C18.0908 4.26892 18.3354 4.51355 18.3354 4.81384V8.19104H3V4.81384ZM3.54492 18.3351C3.24463 18.3351 3 18.0905 3 17.7902V9.69104H18.3354V13.2536C18.1808 13.2379 18.0239 13.2297 17.8652 13.2297C15.3091 13.2297 13.2297 15.3091 13.2297 17.8649C13.2297 18.0236 13.2379 18.1804 13.2536 18.3351H3.54492Z" fill="black"/>
  <path d="M19.218 17.1147H18.6152V16.512C18.6152 16.0978 18.2798 15.762 17.8652 15.762C17.4507 15.762 17.1152 16.0978 17.1152 16.512V17.8647C17.1152 18.2789 17.4507 18.6147 17.8652 18.6147H19.218C19.6326 18.6147 19.968 18.2789 19.968 17.8647C19.968 17.4506 19.6326 17.1147 19.218 17.1147ZM5.8125 10.9199C5.40015 10.9199 5.0625 11.2499 5.0625 11.6622C5.0625 12.0823 5.40015 12.4199 5.8125 12.4199C6.23291 12.4199 6.5625 12.0823 6.5625 11.6622C6.5625 11.2499 6.23291 10.9199 5.8125 10.9199ZM15.5251 10.9199C15.1128 10.9199 14.7751 11.2499 14.7751 11.6622C14.7751 12.0823 15.1128 12.4199 15.5251 12.4199C15.9456 12.4199 16.2751 12.0823 16.2751 11.6622C16.2751 11.2499 15.9456 10.9199 15.5251 10.9199ZM5.8125 15.6074C5.40015 15.6074 5.0625 15.9447 5.0625 16.3574C5.0625 16.7771 5.40015 17.1147 5.8125 17.1147C6.23291 17.1147 6.5625 16.7771 6.5625 16.3574C6.5625 15.9447 6.23291 15.6074 5.8125 15.6074Z" fill="black"/>
</svg>