<svg
xmlns="http://www.w3.org/2000/svg"
width="24"
height="24"
viewBox="0 0 24 24"
fill="none"
>
<path
d="M12.0303 3.25C12.7899 3.25 13.5283 3.50326 14.1279 3.96973L19.46 8.11719L19.6123 8.24316C20.352 8.88955 20.7801 9.82614 20.7803 10.8145V18.0146C20.7803 18.6528 20.5583 19.2684 20.1572 19.7578L19.9746 19.959C19.4589 20.4747 18.7596 20.7646 18.0303 20.7646H6.03027C5.39195 20.7646 4.77653 20.5428 4.28711 20.1416L4.08594 19.959C3.57028 19.4433 3.28027 18.7438 3.28027 18.0146V10.8145C3.28017 10.2944 3.39857 9.7807 3.62695 9.31348L3.71777 9.1416C3.94003 8.74584 4.23935 8.39765 4.59863 8.11816L9.93262 3.96973L10.1641 3.80469C10.7174 3.44382 11.3656 3.25001 12.0303 3.25ZM14.4502 13.9004C14.2169 13.7254 13.9067 13.7028 13.6543 13.834L13.5498 13.9004L12 15.0625L10.4502 13.9004C10.2169 13.7254 9.90674 13.7028 9.6543 13.834L9.5498 13.9004L7.5498 15.4004C7.2187 15.649 7.15194 16.1189 7.40039 16.4502C7.64898 16.7813 8.11893 16.8481 8.4502 16.5996L10 15.4365L11.5498 16.5996C11.8165 16.7996 12.1835 16.7996 12.4502 16.5996L14 15.4365L15.5498 16.5996L15.6133 16.6426C15.9388 16.839 16.3665 16.7607 16.5996 16.4502C16.8326 16.1395 16.7884 15.7069 16.5088 15.4492L16.4502 15.4004L14.4502 13.9004Z"
fill="black"
/>
</svg>