<svg
xmlns="http://www.w3.org/2000/svg"
width="24"
height="24"
viewBox="0 0 24 24"
fill="none"
>
<path
    d="M18.1207 16.7762L18.6511 17.3065L18.6511 17.3065L18.1207 16.7762ZM13.5299 21.367L14.06 21.8976L14.0602 21.8973L13.5299 21.367ZM19.9969 7.34325L20.6898 7.05623V7.05623L19.9969 7.34325ZM16.8089 3.45873L16.3922 4.08233V4.08233L16.8089 3.45873ZM7.19117 3.45873L6.7745 2.83512V2.83512L7.19117 3.45873ZM4.00317 7.34325L3.31026 7.05623H3.31026L4.00317 7.34325ZM3.51053 12.3443L2.77494 12.4906H2.77494L3.51053 12.3443ZM5.8793 16.7762L5.34896 17.3065L5.34903 17.3066L5.8793 16.7762ZM10.4712 21.367L9.94092 21.8974L9.94112 21.8976L10.4712 21.367ZM9.70469 12.9506L9.17436 13.481L9.17436 13.481L9.70469 12.9506ZM9.70469 8.36022L9.17436 7.82989L9.17436 7.82989L9.70469 8.36022ZM14.2951 8.36022L14.8254 7.82989L14.8254 7.82989L14.2951 8.36022ZM14.2951 12.9506L14.8254 13.481V13.481L14.2951 12.9506ZM17.5904 16.2458L12.9996 20.8366L14.0602 21.8973L18.6511 17.3065L17.5904 16.2458ZM19.7539 12.198C19.4489 13.7315 18.696 15.1402 17.5904 16.2458L18.6511 17.3065C19.9664 15.991 20.8622 14.3151 21.2251 12.4906L19.7539 12.198ZM19.304 7.63027C19.9023 9.07484 20.0589 10.6644 19.7539 12.198L21.2251 12.4906C21.588 10.666 21.4017 8.77488 20.6898 7.05623L19.304 7.63027ZM16.3922 4.08233C17.6923 4.95101 18.7056 6.1857 19.304 7.63027L20.6898 7.05623C19.9778 5.33757 18.7723 3.86862 17.2255 2.83512L16.3922 4.08233ZM12 2.75C13.5636 2.75 15.0921 3.21365 16.3922 4.08233L17.2255 2.83512C15.6788 1.80163 13.8603 1.25 12 1.25V2.75ZM7.60784 4.08233C8.90793 3.21365 10.4364 2.75 12 2.75V1.25C10.1397 1.25 8.32126 1.80163 6.7745 2.83512L7.60784 4.08233ZM4.69607 7.63027C5.29445 6.1857 6.30776 4.95101 7.60784 4.08233L6.7745 2.83512C5.22774 3.86862 4.02217 5.33757 3.31026 7.05623L4.69607 7.63027ZM4.24612 12.198C3.94111 10.6644 4.09769 9.07484 4.69607 7.63027L3.31026 7.05623C2.59835 8.77488 2.41205 10.666 2.77494 12.4906L4.24612 12.198ZM6.40964 16.2458C5.30404 15.1402 4.55113 13.7315 4.24612 12.198L2.77494 12.4906C3.13782 14.3151 4.03359 15.991 5.34896 17.3065L6.40964 16.2458ZM11.0015 20.8366L6.40957 16.2458L5.34903 17.3066L9.94092 21.8974L11.0015 20.8366ZM12.0006 21.25C11.6258 21.25 11.2664 21.1012 11.0012 20.8364L9.94112 21.8976C10.4875 22.4434 11.2282 22.75 12.0006 22.75V21.25ZM12.9999 20.8364C12.7347 21.1012 12.3753 21.25 12.0006 21.25V22.75C12.7729 22.75 13.5136 22.4434 14.06 21.8976L12.9999 20.8364ZM8.00399 10.6554C8.00399 11.7152 8.42498 12.7316 9.17436 13.481L10.235 12.4203C9.76695 11.9522 9.50399 11.3174 9.50399 10.6554H8.00399ZM9.17436 7.82989C8.42498 8.57927 8.00399 9.59564 8.00399 10.6554H9.50399C9.50399 9.99347 9.76695 9.35862 10.235 8.89055L9.17436 7.82989ZM11.9999 6.65951C10.9401 6.65951 9.92374 7.08051 9.17436 7.82989L10.235 8.89055C10.7031 8.42247 11.3379 8.15951 11.9999 8.15951V6.65951ZM14.8254 7.82989C14.0761 7.08051 13.0597 6.65951 11.9999 6.65951V8.15951C12.6619 8.15951 13.2967 8.42247 13.7648 8.89055L14.8254 7.82989ZM15.9958 10.6554C15.9958 9.59564 15.5748 8.57927 14.8254 7.82989L13.7648 8.89055C14.2329 9.35862 14.4958 9.99347 14.4958 10.6554H15.9958ZM14.8254 13.481C15.5748 12.7316 15.9958 11.7152 15.9958 10.6554H14.4958C14.4958 11.3174 14.2329 11.9522 13.7648 12.4203L14.8254 13.481ZM11.9999 14.6513C13.0597 14.6513 14.0761 14.2303 14.8254 13.481L13.7648 12.4203C13.2967 12.8884 12.6619 13.1513 11.9999 13.1513V14.6513ZM9.17436 13.481C9.92374 14.2303 10.9401 14.6513 11.9999 14.6513V13.1513C11.3379 13.1513 10.7031 12.8884 10.235 12.4203L9.17436 13.481Z"
    fill="#C8CDD2"
/>
</svg>