<svg
xmlns="http://www.w3.org/2000/svg"
width="24"
height="24"
viewBox="0 0 24 24"
fill="none"
>
<g clipPath="url(#clip0_4620_455)">
<mask
    id="mask0_4620_455"
    maskUnits="userSpaceOnUse"
    x="0"
    y="0"
    width="24"
    height="24"
>
    <path d="M24 0H0V24H24V0Z" fill="white" />
</mask>
<g mask="url(#mask0_4620_455)">
    <path
    fillRule="evenodd"
    clipRule="evenodd"
    d="M13.5907 21.9822L18.3641 17.2088C19.6228 15.9501 20.4799 14.3464 20.827 12.6006C21.1743 10.8548 20.9961 9.04521 20.3149 7.40071C19.6337 5.7562 18.4802 4.35063 17.0001 3.36172C15.52 2.37281 13.78 1.84497 12 1.84497C10.22 1.84497 8.47996 2.37281 6.99991 3.36172C5.51989 4.35063 4.36634 5.7562 3.68513 7.40071C3.00393 9.04521 2.82567 10.8548 3.17291 12.6006C3.52014 14.3464 4.37725 15.9501 5.63588 17.2088L10.4104 21.9822C10.8323 22.4036 11.4042 22.6403 12.0006 22.6403C12.5969 22.6403 13.1689 22.4036 13.5907 21.9822ZM8.62499 10.8447C8.62499 11.7398 8.98058 12.5982 9.61351 13.2312C10.2465 13.8641 11.1049 14.2197 12 14.2197C12.8951 14.2197 13.7535 13.8641 14.3865 13.2312C15.0194 12.5982 15.375 11.7398 15.375 10.8447C15.375 9.94959 15.0194 9.09114 14.3865 8.45821C13.7535 7.82527 12.8951 7.46969 12 7.46969C11.1049 7.46969 10.2465 7.82527 9.61351 8.45821C8.98058 9.09114 8.62499 9.94959 8.62499 10.8447Z"
    fill="black"
    />
</g>
</g>
<defs>
<clipPath id="clip0_4620_455">
    <rect width="24" height="24" fill="white" />
</clipPath>
</defs>
</svg>