<svg width="25" height="24" viewBox="0 0 25 24" fill="none" xmlns="http://www.w3.org/2000/svg">
<path d="M6.66797 18.849C6.91548 18.0252 7.42194 17.3032 8.11222 16.79C8.80249 16.2768 9.63982 15.9997 10.5 16H14.5C15.3612 15.9997 16.1996 16.2774 16.8904 16.7918C17.5811 17.3062 18.0874 18.0298 18.334 18.855M3.5 12C3.5 13.1819 3.73279 14.3522 4.18508 15.4442C4.63738 16.5361 5.30031 17.5282 6.13604 18.364C6.97177 19.1997 7.96392 19.8626 9.05585 20.3149C10.1478 20.7672 11.3181 21 12.5 21C13.6819 21 14.8522 20.7672 15.9442 20.3149C17.0361 19.8626 18.0282 19.1997 18.864 18.364C19.6997 17.5282 20.3626 16.5361 20.8149 15.4442C21.2672 14.3522 21.5 13.1819 21.5 12C21.5 10.8181 21.2672 9.64778 20.8149 8.55585C20.3626 7.46392 19.6997 6.47177 18.864 5.63604C18.0282 4.80031 17.0361 4.13738 15.9442 3.68508C14.8522 3.23279 13.6819 3 12.5 3C11.3181 3 10.1478 3.23279 9.05585 3.68508C7.96392 4.13738 6.97177 4.80031 6.13604 5.63604C5.30031 6.47177 4.63738 7.46392 4.18508 8.55585C3.73279 9.64778 3.5 10.8181 3.5 12ZM9.5 10C9.5 10.7956 9.81607 11.5587 10.3787 12.1213C10.9413 12.6839 11.7044 13 12.5 13C13.2956 13 14.0587 12.6839 14.6213 12.1213C15.1839 11.5587 15.5 10.7956 15.5 10C15.5 9.20435 15.1839 8.44129 14.6213 7.87868C14.0587 7.31607 13.2956 7 12.5 7C11.7044 7 10.9413 7.31607 10.3787 7.87868C9.81607 8.44129 9.5 9.20435 9.5 10Z" stroke="black" stroke-width="1.5" stroke-linecap="round" stroke-linejoin="round"/>
<path d="M20 10C21.6569 10 23 8.65685 23 7C23 5.34315 21.6569 4 20 4C18.3431 4 17 5.34315 17 7C17 8.65685 18.3431 10 20 10Z" fill="#FF5E3A" stroke="white"/>
</svg>
