 <svg
    xmlns="http://www.w3.org/2000/svg"
    width="24"
    height="24"
    viewBox="0 0 24 24"
    fill="none"
>
    <g clipPath="url(#clip0_4620_499)">
    <mask
        id="mask0_4620_499"
        maskUnits="userSpaceOnUse"
        x="1"
        y="1"
        width="22"
        height="22"
    >
        <path d="M1 1H22.9649V22.9651H1V1Z" fill="white" />
    </mask>
    <g mask="url(#mask0_4620_499)">
        <mask
        id="mask1_4620_499"
        maskUnits="userSpaceOnUse"
        x="1"
        y="1"
        width="22"
        height="22"
        >
        <path
            d="M2.15789 1H21.807C22.4465 1 22.9649 1.51843 22.9649 2.15789V21.8072C22.9649 22.4467 22.4465 22.9651 21.807 22.9651H2.15789C1.51821 22.9651 1 22.4467 1 21.8072V2.15789C1 1.51843 1.51821 1 2.15789 1Z"
            fill="white"
        />
        </mask>
        <g mask="url(#mask1_4620_499)">
        <path
            d="M6 1.65039H17.9648C20.3673 1.65039 22.3145 3.59756 22.3145 6V17.9648C22.3145 20.3673 20.3673 22.3154 17.9648 22.3154H6C3.59756 22.3154 1.65039 20.3673 1.65039 17.9648V6C1.65039 3.59756 3.59756 1.65039 6 1.65039Z"
            fill="black"
            stroke="black"
            strokeWidth="1.3"
        />
        </g>
    </g>
    <path
        d="M15.7497 12.286L11.9997 16L8.24967 12.286C8.00232 12.0453 7.80749 11.756 7.67744 11.4363C7.54739 11.1167 7.48494 10.7735 7.49403 10.4285C7.50312 10.0835 7.58355 9.7441 7.73024 9.4317C7.87694 9.1193 8.08673 8.84066 8.3464 8.61332C8.60609 8.38599 8.91002 8.21488 9.23907 8.11077C9.56812 8.00667 9.91517 7.97182 10.2583 8.00843C10.6015 8.04504 10.9334 8.15231 11.2331 8.32349C11.5328 8.49465 11.7938 8.72603 11.9997 9.00303C12.2064 8.72804 12.4677 8.49869 12.7672 8.32933C13.0667 8.15997 13.3979 8.05425 13.7401 8.01879C14.0823 7.98333 14.4282 8.01888 14.756 8.12322C15.0839 8.22758 15.3867 8.39847 15.6454 8.62521C15.9042 8.85196 16.1133 9.12967 16.2599 9.44097C16.4064 9.75228 16.487 10.0905 16.4968 10.4344C16.5066 10.7783 16.4453 11.1205 16.3167 11.4397C16.1882 11.7588 15.9951 12.0479 15.7497 12.289"
        stroke="white"
        strokeWidth="1.2"
        strokeLinecap="round"
        strokeLinejoin="round"
    />
    <mask
        id="mask2_4620_499"
        maskUnits="userSpaceOnUse"
        x="17"
        y="4"
        width="4"
        height="3"
    >
        <path d="M17.5 4H20.16V6.65998H17.5V4Z" fill="white" />
    </mask>
    <g mask="url(#mask2_4620_499)">
        <mask
        id="mask3_4620_499"
        maskUnits="userSpaceOnUse"
        x="17"
        y="4"
        width="4"
        height="3"
        >
        <path
            d="M18.83 4C18.0955 4 17.5 4.59553 17.5 5.32998C17.5 6.06465 18.0955 6.65998 18.83 6.65998C19.5647 6.65998 20.16 6.06465 20.16 5.32998C20.16 4.59553 19.5647 4 18.83 4Z"
            fill="white"
        />
        </mask>
        <g mask="url(#mask3_4620_499)">
        <path d="M17.5 4H20.16V6.65998H17.5V4Z" fill="white" />
        </g>
    </g>
    </g>
    <defs>
    <clipPath id="clip0_4620_499">
        <rect
        width="22"
        height="22"
        fill="white"
        transform="translate(1 1)"
        />
    </clipPath>
    </defs>
</svg>